<?xml version="1.0" encoding="utf-8" standalone="no"?>
<!DOCTYPE svg PUBLIC "-//W3C//DTD SVG 1.1//EN"
  "http://www.w3.org/Graphics/SVG/1.1/DTD/svg11.dtd">
<svg xmlns:xlink="http://www.w3.org/1999/xlink" width="486.8875pt" height="144.947127pt" viewBox="0 0 486.8875 144.947127" xmlns="http://www.w3.org/2000/svg" version="1.1">
 <metadata>
  <rdf:RDF xmlns:dc="http://purl.org/dc/elements/1.1/" xmlns:cc="http://creativecommons.org/ns#" xmlns:rdf="http://www.w3.org/1999/02/22-rdf-syntax-ns#">
   <cc:Work>
    <dc:type rdf:resource="http://purl.org/dc/dcmitype/StillImage"/>
    <dc:date>2025-03-03T07:39:12.573066</dc:date>
    <dc:format>image/svg+xml</dc:format>
    <dc:creator>
     <cc:Agent>
      <dc:title>Matplotlib v3.10.0, https://matplotlib.org/</dc:title>
     </cc:Agent>
    </dc:creator>
   </cc:Work>
  </rdf:RDF>
 </metadata>
 <defs>
  <style type="text/css">*{stroke-linejoin: round; stroke-linecap: butt}</style>
 </defs>
 <g id="figure_1">
  <g id="patch_1">
   <path d="M 0 144.947127 
L 486.8875 144.947127 
L 486.8875 0 
L 0 0 
z
" style="fill: #ffffff"/>
  </g>
  <g id="axes_1">
   <g id="patch_2">
    <path d="M 33.2875 95.9625 
L 479.6875 95.9625 
L 479.6875 22.5225 
L 33.2875 22.5225 
z
" style="fill: #fdfefe"/>
   </g>
   <g id="matplotlib.axis_1">
    <g id="xtick_1">
     <g id="line2d_1">
      <path d="M 63.249777 95.9625 
L 63.249777 22.5225 
" clip-path="url(#p2e7cf88d11)" style="fill: none; stroke-dasharray: 1.85,0.8; stroke-dashoffset: 0; stroke: #d3d3d3; stroke-width: 0.5"/>
     </g>
     <g id="line2d_2">
      <defs>
       <path id="m8d2037baa4" d="M 0 0 
L 0 3.5 
" style="stroke: #000000; stroke-width: 0.8"/>
      </defs>
      <g>
       <use xlink:href="#m8d2037baa4" x="63.249777" y="95.9625" style="stroke: #000000; stroke-width: 0.8"/>
      </g>
     </g>
     <g id="text_1">
      <!-- 2008 -->
      <g transform="translate(40.169587 122.26794) rotate(-30) scale(0.1 -0.1)">
       <defs>
        <path id="DejaVuSans-32" d="M 1228 531 
L 3431 531 
L 3431 0 
L 469 0 
L 469 531 
Q 828 903 1448 1529 
Q 2069 2156 2228 2338 
Q 2531 2678 2651 2914 
Q 2772 3150 2772 3378 
Q 2772 3750 2511 3984 
Q 2250 4219 1831 4219 
Q 1534 4219 1204 4116 
Q 875 4013 500 3803 
L 500 4441 
Q 881 4594 1212 4672 
Q 1544 4750 1819 4750 
Q 2544 4750 2975 4387 
Q 3406 4025 3406 3419 
Q 3406 3131 3298 2873 
Q 3191 2616 2906 2266 
Q 2828 2175 2409 1742 
Q 1991 1309 1228 531 
z
" transform="scale(0.015625)"/>
        <path id="DejaVuSans-30" d="M 2034 4250 
Q 1547 4250 1301 3770 
Q 1056 3291 1056 2328 
Q 1056 1369 1301 889 
Q 1547 409 2034 409 
Q 2525 409 2770 889 
Q 3016 1369 3016 2328 
Q 3016 3291 2770 3770 
Q 2525 4250 2034 4250 
z
M 2034 4750 
Q 2819 4750 3233 4129 
Q 3647 3509 3647 2328 
Q 3647 1150 3233 529 
Q 2819 -91 2034 -91 
Q 1250 -91 836 529 
Q 422 1150 422 2328 
Q 422 3509 836 4129 
Q 1250 4750 2034 4750 
z
" transform="scale(0.015625)"/>
        <path id="DejaVuSans-38" d="M 2034 2216 
Q 1584 2216 1326 1975 
Q 1069 1734 1069 1313 
Q 1069 891 1326 650 
Q 1584 409 2034 409 
Q 2484 409 2743 651 
Q 3003 894 3003 1313 
Q 3003 1734 2745 1975 
Q 2488 2216 2034 2216 
z
M 1403 2484 
Q 997 2584 770 2862 
Q 544 3141 544 3541 
Q 544 4100 942 4425 
Q 1341 4750 2034 4750 
Q 2731 4750 3128 4425 
Q 3525 4100 3525 3541 
Q 3525 3141 3298 2862 
Q 3072 2584 2669 2484 
Q 3125 2378 3379 2068 
Q 3634 1759 3634 1313 
Q 3634 634 3220 271 
Q 2806 -91 2034 -91 
Q 1263 -91 848 271 
Q 434 634 434 1313 
Q 434 1759 690 2068 
Q 947 2378 1403 2484 
z
M 1172 3481 
Q 1172 3119 1398 2916 
Q 1625 2713 2034 2713 
Q 2441 2713 2670 2916 
Q 2900 3119 2900 3481 
Q 2900 3844 2670 4047 
Q 2441 4250 2034 4250 
Q 1625 4250 1398 4047 
Q 1172 3844 1172 3481 
z
" transform="scale(0.015625)"/>
       </defs>
       <use xlink:href="#DejaVuSans-32"/>
       <use xlink:href="#DejaVuSans-30" transform="translate(63.623047 0)"/>
       <use xlink:href="#DejaVuSans-30" transform="translate(127.246094 0)"/>
       <use xlink:href="#DejaVuSans-38" transform="translate(190.869141 0)"/>
      </g>
     </g>
    </g>
    <g id="xtick_2">
     <g id="line2d_3">
      <path d="M 109.457424 95.9625 
L 109.457424 22.5225 
" clip-path="url(#p2e7cf88d11)" style="fill: none; stroke-dasharray: 1.85,0.8; stroke-dashoffset: 0; stroke: #d3d3d3; stroke-width: 0.5"/>
     </g>
     <g id="line2d_4">
      <g>
       <use xlink:href="#m8d2037baa4" x="109.457424" y="95.9625" style="stroke: #000000; stroke-width: 0.8"/>
      </g>
     </g>
     <g id="text_2">
      <!-- 2010 -->
      <g transform="translate(86.377233 122.26794) rotate(-30) scale(0.1 -0.1)">
       <defs>
        <path id="DejaVuSans-31" d="M 794 531 
L 1825 531 
L 1825 4091 
L 703 3866 
L 703 4441 
L 1819 4666 
L 2450 4666 
L 2450 531 
L 3481 531 
L 3481 0 
L 794 0 
L 794 531 
z
" transform="scale(0.015625)"/>
       </defs>
       <use xlink:href="#DejaVuSans-32"/>
       <use xlink:href="#DejaVuSans-30" transform="translate(63.623047 0)"/>
       <use xlink:href="#DejaVuSans-31" transform="translate(127.246094 0)"/>
       <use xlink:href="#DejaVuSans-30" transform="translate(190.869141 0)"/>
      </g>
     </g>
    </g>
    <g id="xtick_3">
     <g id="line2d_5">
      <path d="M 155.601859 95.9625 
L 155.601859 22.5225 
" clip-path="url(#p2e7cf88d11)" style="fill: none; stroke-dasharray: 1.85,0.8; stroke-dashoffset: 0; stroke: #d3d3d3; stroke-width: 0.5"/>
     </g>
     <g id="line2d_6">
      <g>
       <use xlink:href="#m8d2037baa4" x="155.601859" y="95.9625" style="stroke: #000000; stroke-width: 0.8"/>
      </g>
     </g>
     <g id="text_3">
      <!-- 2012 -->
      <g transform="translate(132.521668 122.26794) rotate(-30) scale(0.1 -0.1)">
       <use xlink:href="#DejaVuSans-32"/>
       <use xlink:href="#DejaVuSans-30" transform="translate(63.623047 0)"/>
       <use xlink:href="#DejaVuSans-31" transform="translate(127.246094 0)"/>
       <use xlink:href="#DejaVuSans-32" transform="translate(190.869141 0)"/>
      </g>
     </g>
    </g>
    <g id="xtick_4">
     <g id="line2d_7">
      <path d="M 201.809505 95.9625 
L 201.809505 22.5225 
" clip-path="url(#p2e7cf88d11)" style="fill: none; stroke-dasharray: 1.85,0.8; stroke-dashoffset: 0; stroke: #d3d3d3; stroke-width: 0.5"/>
     </g>
     <g id="line2d_8">
      <g>
       <use xlink:href="#m8d2037baa4" x="201.809505" y="95.9625" style="stroke: #000000; stroke-width: 0.8"/>
      </g>
     </g>
     <g id="text_4">
      <!-- 2014 -->
      <g transform="translate(178.729315 122.26794) rotate(-30) scale(0.1 -0.1)">
       <defs>
        <path id="DejaVuSans-34" d="M 2419 4116 
L 825 1625 
L 2419 1625 
L 2419 4116 
z
M 2253 4666 
L 3047 4666 
L 3047 1625 
L 3713 1625 
L 3713 1100 
L 3047 1100 
L 3047 0 
L 2419 0 
L 2419 1100 
L 313 1100 
L 313 1709 
L 2253 4666 
z
" transform="scale(0.015625)"/>
       </defs>
       <use xlink:href="#DejaVuSans-32"/>
       <use xlink:href="#DejaVuSans-30" transform="translate(63.623047 0)"/>
       <use xlink:href="#DejaVuSans-31" transform="translate(127.246094 0)"/>
       <use xlink:href="#DejaVuSans-34" transform="translate(190.869141 0)"/>
      </g>
     </g>
    </g>
    <g id="xtick_5">
     <g id="line2d_9">
      <path d="M 247.95394 95.9625 
L 247.95394 22.5225 
" clip-path="url(#p2e7cf88d11)" style="fill: none; stroke-dasharray: 1.85,0.8; stroke-dashoffset: 0; stroke: #d3d3d3; stroke-width: 0.5"/>
     </g>
     <g id="line2d_10">
      <g>
       <use xlink:href="#m8d2037baa4" x="247.95394" y="95.9625" style="stroke: #000000; stroke-width: 0.8"/>
      </g>
     </g>
     <g id="text_5">
      <!-- 2016 -->
      <g transform="translate(224.87375 122.26794) rotate(-30) scale(0.1 -0.1)">
       <defs>
        <path id="DejaVuSans-36" d="M 2113 2584 
Q 1688 2584 1439 2293 
Q 1191 2003 1191 1497 
Q 1191 994 1439 701 
Q 1688 409 2113 409 
Q 2538 409 2786 701 
Q 3034 994 3034 1497 
Q 3034 2003 2786 2293 
Q 2538 2584 2113 2584 
z
M 3366 4563 
L 3366 3988 
Q 3128 4100 2886 4159 
Q 2644 4219 2406 4219 
Q 1781 4219 1451 3797 
Q 1122 3375 1075 2522 
Q 1259 2794 1537 2939 
Q 1816 3084 2150 3084 
Q 2853 3084 3261 2657 
Q 3669 2231 3669 1497 
Q 3669 778 3244 343 
Q 2819 -91 2113 -91 
Q 1303 -91 875 529 
Q 447 1150 447 2328 
Q 447 3434 972 4092 
Q 1497 4750 2381 4750 
Q 2619 4750 2861 4703 
Q 3103 4656 3366 4563 
z
" transform="scale(0.015625)"/>
       </defs>
       <use xlink:href="#DejaVuSans-32"/>
       <use xlink:href="#DejaVuSans-30" transform="translate(63.623047 0)"/>
       <use xlink:href="#DejaVuSans-31" transform="translate(127.246094 0)"/>
       <use xlink:href="#DejaVuSans-36" transform="translate(190.869141 0)"/>
      </g>
     </g>
    </g>
    <g id="xtick_6">
     <g id="line2d_11">
      <path d="M 294.161587 95.9625 
L 294.161587 22.5225 
" clip-path="url(#p2e7cf88d11)" style="fill: none; stroke-dasharray: 1.85,0.8; stroke-dashoffset: 0; stroke: #d3d3d3; stroke-width: 0.5"/>
     </g>
     <g id="line2d_12">
      <g>
       <use xlink:href="#m8d2037baa4" x="294.161587" y="95.9625" style="stroke: #000000; stroke-width: 0.8"/>
      </g>
     </g>
     <g id="text_6">
      <!-- 2018 -->
      <g transform="translate(271.081396 122.26794) rotate(-30) scale(0.1 -0.1)">
       <use xlink:href="#DejaVuSans-32"/>
       <use xlink:href="#DejaVuSans-30" transform="translate(63.623047 0)"/>
       <use xlink:href="#DejaVuSans-31" transform="translate(127.246094 0)"/>
       <use xlink:href="#DejaVuSans-38" transform="translate(190.869141 0)"/>
      </g>
     </g>
    </g>
    <g id="xtick_7">
     <g id="line2d_13">
      <path d="M 340.306022 95.9625 
L 340.306022 22.5225 
" clip-path="url(#p2e7cf88d11)" style="fill: none; stroke-dasharray: 1.85,0.8; stroke-dashoffset: 0; stroke: #d3d3d3; stroke-width: 0.5"/>
     </g>
     <g id="line2d_14">
      <g>
       <use xlink:href="#m8d2037baa4" x="340.306022" y="95.9625" style="stroke: #000000; stroke-width: 0.8"/>
      </g>
     </g>
     <g id="text_7">
      <!-- 2020 -->
      <g transform="translate(317.225831 122.26794) rotate(-30) scale(0.1 -0.1)">
       <use xlink:href="#DejaVuSans-32"/>
       <use xlink:href="#DejaVuSans-30" transform="translate(63.623047 0)"/>
       <use xlink:href="#DejaVuSans-32" transform="translate(127.246094 0)"/>
       <use xlink:href="#DejaVuSans-30" transform="translate(190.869141 0)"/>
      </g>
     </g>
    </g>
    <g id="xtick_8">
     <g id="line2d_15">
      <path d="M 386.513668 95.9625 
L 386.513668 22.5225 
" clip-path="url(#p2e7cf88d11)" style="fill: none; stroke-dasharray: 1.85,0.8; stroke-dashoffset: 0; stroke: #d3d3d3; stroke-width: 0.5"/>
     </g>
     <g id="line2d_16">
      <g>
       <use xlink:href="#m8d2037baa4" x="386.513668" y="95.9625" style="stroke: #000000; stroke-width: 0.8"/>
      </g>
     </g>
     <g id="text_8">
      <!-- 2022 -->
      <g transform="translate(363.433478 122.26794) rotate(-30) scale(0.1 -0.1)">
       <use xlink:href="#DejaVuSans-32"/>
       <use xlink:href="#DejaVuSans-30" transform="translate(63.623047 0)"/>
       <use xlink:href="#DejaVuSans-32" transform="translate(127.246094 0)"/>
       <use xlink:href="#DejaVuSans-32" transform="translate(190.869141 0)"/>
      </g>
     </g>
    </g>
    <g id="xtick_9">
     <g id="line2d_17">
      <path d="M 432.658103 95.9625 
L 432.658103 22.5225 
" clip-path="url(#p2e7cf88d11)" style="fill: none; stroke-dasharray: 1.85,0.8; stroke-dashoffset: 0; stroke: #d3d3d3; stroke-width: 0.5"/>
     </g>
     <g id="line2d_18">
      <g>
       <use xlink:href="#m8d2037baa4" x="432.658103" y="95.9625" style="stroke: #000000; stroke-width: 0.8"/>
      </g>
     </g>
     <g id="text_9">
      <!-- 2024 -->
      <g transform="translate(409.577913 122.26794) rotate(-30) scale(0.1 -0.1)">
       <use xlink:href="#DejaVuSans-32"/>
       <use xlink:href="#DejaVuSans-30" transform="translate(63.623047 0)"/>
       <use xlink:href="#DejaVuSans-32" transform="translate(127.246094 0)"/>
       <use xlink:href="#DejaVuSans-34" transform="translate(190.869141 0)"/>
      </g>
     </g>
    </g>
    <g id="xtick_10">
     <g id="line2d_19">
      <path d="M 478.86575 95.9625 
L 478.86575 22.5225 
" clip-path="url(#p2e7cf88d11)" style="fill: none; stroke-dasharray: 1.85,0.8; stroke-dashoffset: 0; stroke: #d3d3d3; stroke-width: 0.5"/>
     </g>
     <g id="line2d_20">
      <g>
       <use xlink:href="#m8d2037baa4" x="478.86575" y="95.9625" style="stroke: #000000; stroke-width: 0.8"/>
      </g>
     </g>
     <g id="text_10">
      <!-- 2026 -->
      <g transform="translate(455.78556 122.26794) rotate(-30) scale(0.1 -0.1)">
       <use xlink:href="#DejaVuSans-32"/>
       <use xlink:href="#DejaVuSans-30" transform="translate(63.623047 0)"/>
       <use xlink:href="#DejaVuSans-32" transform="translate(127.246094 0)"/>
       <use xlink:href="#DejaVuSans-36" transform="translate(190.869141 0)"/>
      </g>
     </g>
    </g>
    <g id="text_11">
     <!-- Date -->
     <g transform="translate(244.536719 135.66744) scale(0.1 -0.1)">
      <defs>
       <path id="DejaVuSans-44" d="M 1259 4147 
L 1259 519 
L 2022 519 
Q 2988 519 3436 956 
Q 3884 1394 3884 2338 
Q 3884 3275 3436 3711 
Q 2988 4147 2022 4147 
L 1259 4147 
z
M 628 4666 
L 1925 4666 
Q 3281 4666 3915 4102 
Q 4550 3538 4550 2338 
Q 4550 1131 3912 565 
Q 3275 0 1925 0 
L 628 0 
L 628 4666 
z
" transform="scale(0.015625)"/>
       <path id="DejaVuSans-61" d="M 2194 1759 
Q 1497 1759 1228 1600 
Q 959 1441 959 1056 
Q 959 750 1161 570 
Q 1363 391 1709 391 
Q 2188 391 2477 730 
Q 2766 1069 2766 1631 
L 2766 1759 
L 2194 1759 
z
M 3341 1997 
L 3341 0 
L 2766 0 
L 2766 531 
Q 2569 213 2275 61 
Q 1981 -91 1556 -91 
Q 1019 -91 701 211 
Q 384 513 384 1019 
Q 384 1609 779 1909 
Q 1175 2209 1959 2209 
L 2766 2209 
L 2766 2266 
Q 2766 2663 2505 2880 
Q 2244 3097 1772 3097 
Q 1472 3097 1187 3025 
Q 903 2953 641 2809 
L 641 3341 
Q 956 3463 1253 3523 
Q 1550 3584 1831 3584 
Q 2591 3584 2966 3190 
Q 3341 2797 3341 1997 
z
" transform="scale(0.015625)"/>
       <path id="DejaVuSans-74" d="M 1172 4494 
L 1172 3500 
L 2356 3500 
L 2356 3053 
L 1172 3053 
L 1172 1153 
Q 1172 725 1289 603 
Q 1406 481 1766 481 
L 2356 481 
L 2356 0 
L 1766 0 
Q 1100 0 847 248 
Q 594 497 594 1153 
L 594 3053 
L 172 3053 
L 172 3500 
L 594 3500 
L 594 4494 
L 1172 4494 
z
" transform="scale(0.015625)"/>
       <path id="DejaVuSans-65" d="M 3597 1894 
L 3597 1613 
L 953 1613 
Q 991 1019 1311 708 
Q 1631 397 2203 397 
Q 2534 397 2845 478 
Q 3156 559 3463 722 
L 3463 178 
Q 3153 47 2828 -22 
Q 2503 -91 2169 -91 
Q 1331 -91 842 396 
Q 353 884 353 1716 
Q 353 2575 817 3079 
Q 1281 3584 2069 3584 
Q 2775 3584 3186 3129 
Q 3597 2675 3597 1894 
z
M 3022 2063 
Q 3016 2534 2758 2815 
Q 2500 3097 2075 3097 
Q 1594 3097 1305 2825 
Q 1016 2553 972 2059 
L 3022 2063 
z
" transform="scale(0.015625)"/>
      </defs>
      <use xlink:href="#DejaVuSans-44"/>
      <use xlink:href="#DejaVuSans-61" transform="translate(77.001953 0)"/>
      <use xlink:href="#DejaVuSans-74" transform="translate(138.28125 0)"/>
      <use xlink:href="#DejaVuSans-65" transform="translate(177.490234 0)"/>
     </g>
    </g>
   </g>
   <g id="matplotlib.axis_2">
    <g id="ytick_1">
     <g id="line2d_21">
      <path d="M 33.2875 76.469362 
L 479.6875 76.469362 
" clip-path="url(#p2e7cf88d11)" style="fill: none; stroke-dasharray: 1.85,0.8; stroke-dashoffset: 0; stroke: #d3d3d3; stroke-width: 0.5"/>
     </g>
     <g id="line2d_22">
      <defs>
       <path id="m86d6746faa" d="M 0 0 
L -3.5 0 
" style="stroke: #000000; stroke-width: 0.8"/>
      </defs>
      <g>
       <use xlink:href="#m86d6746faa" x="33.2875" y="76.469362" style="stroke: #000000; stroke-width: 0.8"/>
      </g>
     </g>
     <g id="text_12">
      <!-- 50 -->
      <g transform="translate(13.5625 80.268581) scale(0.1 -0.1)">
       <defs>
        <path id="DejaVuSans-35" d="M 691 4666 
L 3169 4666 
L 3169 4134 
L 1269 4134 
L 1269 2991 
Q 1406 3038 1543 3061 
Q 1681 3084 1819 3084 
Q 2600 3084 3056 2656 
Q 3513 2228 3513 1497 
Q 3513 744 3044 326 
Q 2575 -91 1722 -91 
Q 1428 -91 1123 -41 
Q 819 9 494 109 
L 494 744 
Q 775 591 1075 516 
Q 1375 441 1709 441 
Q 2250 441 2565 725 
Q 2881 1009 2881 1497 
Q 2881 1984 2565 2268 
Q 2250 2553 1709 2553 
Q 1456 2553 1204 2497 
Q 953 2441 691 2322 
L 691 4666 
z
" transform="scale(0.015625)"/>
       </defs>
       <use xlink:href="#DejaVuSans-35"/>
       <use xlink:href="#DejaVuSans-30" transform="translate(63.623047 0)"/>
      </g>
     </g>
    </g>
    <g id="ytick_2">
     <g id="line2d_23">
      <path d="M 33.2875 50.132622 
L 479.6875 50.132622 
" clip-path="url(#p2e7cf88d11)" style="fill: none; stroke-dasharray: 1.85,0.8; stroke-dashoffset: 0; stroke: #d3d3d3; stroke-width: 0.5"/>
     </g>
     <g id="line2d_24">
      <g>
       <use xlink:href="#m86d6746faa" x="33.2875" y="50.132622" style="stroke: #000000; stroke-width: 0.8"/>
      </g>
     </g>
     <g id="text_13">
      <!-- 100 -->
      <g transform="translate(7.2 53.93184) scale(0.1 -0.1)">
       <use xlink:href="#DejaVuSans-31"/>
       <use xlink:href="#DejaVuSans-30" transform="translate(63.623047 0)"/>
       <use xlink:href="#DejaVuSans-30" transform="translate(127.246094 0)"/>
      </g>
     </g>
    </g>
    <g id="ytick_3">
     <g id="line2d_25">
      <path d="M 33.2875 23.795881 
L 479.6875 23.795881 
" clip-path="url(#p2e7cf88d11)" style="fill: none; stroke-dasharray: 1.85,0.8; stroke-dashoffset: 0; stroke: #d3d3d3; stroke-width: 0.5"/>
     </g>
     <g id="line2d_26">
      <g>
       <use xlink:href="#m86d6746faa" x="33.2875" y="23.795881" style="stroke: #000000; stroke-width: 0.8"/>
      </g>
     </g>
     <g id="text_14">
      <!-- 150 -->
      <g transform="translate(7.2 27.5951) scale(0.1 -0.1)">
       <use xlink:href="#DejaVuSans-31"/>
       <use xlink:href="#DejaVuSans-35" transform="translate(63.623047 0)"/>
       <use xlink:href="#DejaVuSans-30" transform="translate(127.246094 0)"/>
      </g>
     </g>
    </g>
   </g>
   <g id="line2d_27">
    <path d="M 53.578409 63.116634 
L 53.641621 62.900673 
L 54.084102 65.824051 
L 54.147313 65.729239 
L 54.336948 65.813517 
L 54.400159 65.666031 
L 54.463371 65.070821 
L 54.526582 66.055815 
L 54.589794 65.702902 
L 54.779429 66.013676 
L 54.905852 66.619421 
L 55.032275 65.60809 
L 55.22191 65.434268 
L 55.285121 65.644962 
L 55.474756 64.517749 
L 56.170083 62.574098 
L 56.233294 61.889342 
L 56.296506 62.184314 
L 56.359718 62.658375 
L 56.612564 61.936749 
L 56.802198 61.036032 
L 56.991833 61.241459 
L 57.118256 62.021026 
L 57.181468 60.651516 
L 57.244679 61.104508 
L 57.560737 62.047363 
L 57.623949 61.209854 
L 57.68716 61.246726 
L 57.876795 62.468751 
L 58.382487 58.797409 
L 58.445699 59.018638 
L 58.50891 58.244338 
L 58.572122 58.670993 
L 58.824968 59.166123 
L 59.204237 55.231414 
L 59.267449 56.748411 
L 59.457084 54.304361 
L 59.646718 55.14187 
L 59.70993 53.682814 
L 59.773141 53.693349 
L 59.836353 53.93038 
L 59.899565 53.724953 
L 60.089199 54.357035 
L 60.152411 56.016249 
L 60.215622 54.68361 
L 60.278834 55.278821 
L 60.342045 54.546659 
L 60.53168 54.199014 
L 60.594892 52.508196 
L 60.658103 52.850573 
L 60.784526 52.365977 
L 60.974161 52.59774 
L 61.227007 56.316488 
L 61.416642 55.505317 
L 61.479853 55.647535 
L 61.543065 56.195339 
L 61.606277 55.305157 
L 61.669488 56.116329 
L 61.859123 56.43237 
L 61.985546 53.282496 
L 62.048757 54.283292 
L 62.111969 54.509788 
L 62.301604 54.720482 
L 62.364815 55.336761 
L 62.55445 54.104202 
L 62.744085 53.977786 
L 62.933719 52.882177 
L 62.996931 53.356239 
L 63.186565 53.372041 
L 63.312989 51.270369 
L 63.3762 51.396785 
L 63.629046 53.087604 
L 63.692258 52.481859 
L 63.881893 54.836363 
L 64.071527 53.861904 
L 64.261162 56.058388 
L 64.324373 55.805555 
L 64.57722 56.216409 
L 64.640431 57.180333 
L 64.766854 54.925908 
L 64.956489 54.673076 
L 65.082912 54.067331 
L 65.146124 54.235886 
L 65.209335 55.694941 
L 65.39897 55.189276 
L 65.525393 56.569321 
L 65.588605 56.184804 
L 65.651816 54.378104 
L 65.841451 53.540596 
L 65.904662 53.893508 
L 65.967874 53.65121 
L 66.031085 52.682018 
L 66.094297 52.961187 
L 66.347143 50.89112 
L 66.410355 50.964863 
L 66.473566 52.113144 
L 66.536778 51.707559 
L 66.726412 51.349379 
L 66.916047 49.65856 
L 66.979259 50.079948 
L 67.168893 49.879789 
L 67.232105 51.438924 
L 67.358528 48.757844 
L 67.42174 48.878993 
L 67.737797 46.829994 
L 67.801009 46.161041 
L 68.053855 49.210836 
L 68.117067 47.203976 
L 68.24349 49.932462 
L 68.496336 50.206364 
L 68.559548 49.816581 
L 68.685971 47.498948 
L 69.002028 50.043077 
L 69.191663 47.551621 
L 69.381298 46.371735 
L 69.444509 46.793123 
L 69.507721 45.671178 
L 69.570932 45.813396 
L 69.88699 44.033033 
L 70.076625 42.800473 
L 70.26626 42.531838 
L 70.392683 41.462567 
L 70.455894 42.579244 
L 70.519106 41.525775 
L 70.70874 41.315081 
L 70.898375 44.601906 
L 70.961587 42.463363 
L 71.214433 39.434638 
L 71.404068 36.753558 
L 71.593702 38.065127 
L 71.656914 37.438313 
L 71.720125 38.618199 
L 71.783337 38.212613 
L 71.846548 36.969519 
L 72.036183 36.932647 
L 72.162606 32.908393 
L 72.289029 33.503604 
L 72.541876 35.220759 
L 72.605087 33.840714 
L 72.668299 35.968723 
L 72.73151 35.499929 
L 72.921145 35.373512 
L 73.047568 38.491782 
L 73.173991 30.279987 
L 73.426837 33.793308 
L 73.55326 31.122763 
L 73.616472 31.638963 
L 73.806107 31.849657 
L 73.869318 32.371124 
L 73.93253 30.938405 
L 73.995741 33.277108 
L 74.058953 31.770646 
L 74.311799 30.927871 
L 74.375011 32.049816 
L 74.501434 28.899942 
L 74.691068 29.152774 
L 74.75428 28.710317 
L 74.880703 25.860682 
L 75.133549 28.078235 
L 75.196761 30.943673 
L 75.259972 30.864662 
L 75.386395 26.69819 
L 75.57603 26.998429 
L 75.828876 34.230498 
L 76.018511 32.9558 
L 76.271357 37.217084 
L 76.460992 36.521794 
L 76.524203 38.170474 
L 76.587415 35.858108 
L 76.650627 37.501521 
L 76.713838 37.396174 
L 77.029896 41.17813 
L 77.093107 40.725138 
L 77.156319 43.111247 
L 77.345954 43.458892 
L 77.409165 44.259529 
L 77.535588 42.926889 
L 77.5988 43.5221 
L 77.788435 43.843408 
L 77.914858 42.56871 
L 77.978069 39.513648 
L 78.041281 42.800473 
L 78.230915 42.742532 
L 78.357339 41.588983 
L 78.483762 42.731998 
L 78.926243 47.978276 
L 79.115877 48.320654 
L 79.305512 51.375716 
L 79.368723 51.40732 
L 79.558358 53.166614 
L 79.62157 55.810823 
L 79.811204 50.338048 
L 80.000839 46.951143 
L 80.127262 48.842121 
L 80.190474 47.709641 
L 80.253685 48.26798 
L 80.44332 53.303565 
L 80.506531 51.096546 
L 80.569743 52.592473 
L 80.696166 55.268286 
L 80.885801 58.728934 
L 80.949012 58.212733 
L 81.012224 58.370754 
L 81.075435 59.266203 
L 81.138647 63.78032 
L 81.328282 62.005224 
L 81.581128 66.14536 
L 81.770763 64.865394 
L 82.023609 70.122207 
L 82.213243 70.459318 
L 82.276455 71.049261 
L 82.339667 68.320774 
L 82.402878 69.247828 
L 82.46609 68.399785 
L 82.655724 70.949181 
L 82.718936 67.809842 
L 82.908571 72.597861 
L 83.098205 71.68661 
L 83.224628 75.221 
L 83.351051 74.236006 
L 83.667109 75.563378 
L 83.730321 77.480693 
L 83.793532 76.896017 
L 83.983167 74.399294 
L 84.046379 76.285005 
L 84.10959 74.404561 
L 84.236013 74.631057 
L 84.678494 81.873661 
L 84.868129 79.935277 
L 84.93134 80.930806 
L 84.994552 80.472546 
L 85.057763 77.84414 
L 85.120975 78.36034 
L 85.31061 79.31373 
L 85.437033 78.823866 
L 85.500244 79.966881 
L 85.563456 79.629771 
L 85.816302 81.547085 
L 85.879514 83.522341 
L 86.195571 81.447006 
L 86.258783 81.6577 
L 86.448418 78.096972 
L 86.701264 76.190192 
L 86.890898 79.408542 
L 87.080533 80.203912 
L 87.206956 79.060897 
L 87.333379 78.276062 
L 87.586226 79.82993 
L 87.77586 77.327939 
L 87.965495 78.070636 
L 88.028706 79.771989 
L 88.091918 79.155709 
L 88.218341 78.639509 
L 88.407976 79.724583 
L 88.471187 79.587632 
L 88.534399 79.55076 
L 88.59761 78.334003 
L 88.660822 78.465687 
L 88.850457 78.565766 
L 88.97688 79.482285 
L 89.103303 78.43935 
L 89.419361 81.341659 
L 89.482572 80.00902 
L 89.545784 80.082763 
L 89.735418 80.493616 
L 89.925053 77.728258 
L 89.988265 77.944219 
L 90.177899 80.072228 
L 90.304322 78.054834 
L 90.367534 79.218917 
L 90.430746 78.607905 
L 90.683592 79.024026 
L 90.746803 80.393536 
L 90.810015 78.470954 
L 90.873226 78.639509 
L 91.062861 78.334003 
L 91.315707 75.826745 
L 91.568554 74.62579 
L 91.631765 75.547576 
L 91.694977 74.646859 
L 91.947823 77.528099 
L 92.200669 74.641592 
L 92.453515 75.826745 
L 92.516727 75.631853 
L 92.579938 74.330818 
L 92.895996 75.436962 
L 93.970593 74.968168 
L 94.160227 74.056916 
L 94.223439 74.299214 
L 94.413073 72.18174 
L 94.602708 72.529385 
L 94.66592 72.287087 
L 94.855554 73.319488 
L 95.298035 70.791161 
L 95.550881 70.548863 
L 95.993362 66.89859 
L 96.056574 68.104813 
L 96.119785 66.614154 
L 96.182997 66.809045 
L 96.372632 67.051343 
L 96.562266 64.99181 
L 96.815113 66.229637 
L 97.004747 65.376327 
L 97.067959 66.361321 
L 97.257593 67.525405 
L 97.447228 66.050547 
L 97.51044 66.503539 
L 97.700074 65.413198 
L 97.889709 67.699227 
L 98.205767 69.50066 
L 98.268978 70.975518 
L 98.33219 70.622605 
L 98.395401 70.928112 
L 98.648248 70.749022 
L 98.837882 68.36818 
L 99.15394 67.404256 
L 99.280363 65.766111 
L 99.469998 65.50801 
L 99.533209 65.997874 
L 99.596421 67.762435 
L 99.722844 65.039217 
L 100.038902 63.032357 
L 100.102113 63.390537 
L 100.165325 64.043688 
L 100.35496 64.091094 
L 100.418171 64.638898 
L 100.481383 64.412402 
L 100.544594 64.101629 
L 100.797441 65.650229 
L 100.923864 63.516953 
L 100.987075 64.180639 
L 101.050287 63.727647 
L 101.239921 63.690775 
L 101.366345 65.065553 
L 101.492768 64.465076 
L 101.935249 67.609682 
L 102.314518 66.008409 
L 102.377729 67.151423 
L 102.567364 67.283107 
L 102.693787 65.055019 
L 102.756999 65.118227 
L 102.82021 65.239376 
L 103.009845 66.624688 
L 103.073056 65.655496 
L 103.19948 68.663152 
L 103.262691 68.510399 
L 103.515537 68.31024 
L 103.64196 66.361321 
L 103.705172 66.951264 
L 103.894807 66.967066 
L 103.958018 66.693164 
L 104.02123 67.409523 
L 104.147653 65.934666 
L 104.400499 64.670502 
L 104.463711 64.301788 
L 104.590134 62.252789 
L 104.779768 61.841936 
L 104.84298 62.121106 
L 104.906192 60.830605 
L 104.969403 60.925418 
L 105.222249 62.110571 
L 105.285461 61.762926 
L 105.348672 62.848 
L 105.411884 61.699718 
L 105.475096 63.195645 
L 105.66473 62.484553 
L 105.791153 61.251993 
L 105.917576 62.842732 
L 106.233634 61.747124 
L 106.360057 63.011288 
L 106.676115 60.946487 
L 106.802538 62.142175 
L 106.992173 62.005224 
L 107.055384 62.531959 
L 107.118596 61.489024 
L 107.245019 62.15271 
L 107.497865 61.009695 
L 107.6875 61.97362 
L 107.877135 62.547761 
L 108.066769 64.954939 
L 108.129981 64.944404 
L 108.382827 64.854859 
L 108.446039 64.064757 
L 108.50925 64.159569 
L 108.572462 63.95941 
L 108.762096 64.359729 
L 108.825308 64.112163 
L 108.951731 62.610969 
L 109.331 61.704985 
L 109.394212 61.757659 
L 109.773481 59.671789 
L 109.899904 59.945691 
L 110.089539 60.156385 
L 110.342385 62.189581 
L 110.595232 61.915679 
L 110.784866 64.444006 
L 110.974501 63.991014 
L 111.227347 65.165633 
L 111.416982 64.29652 
L 111.480193 62.742653 
L 111.543405 62.816396 
L 111.669828 66.150627 
L 111.859463 65.876725 
L 112.049097 64.328125 
L 112.112309 64.407135 
L 112.55479 61.620708 
L 112.744424 61.399479 
L 112.934059 62.621504 
L 112.997271 61.936749 
L 113.186905 62.305463 
L 113.439751 60.725258 
L 113.629386 60.419752 
L 113.692598 60.714724 
L 113.755809 60.414485 
L 113.819021 60.519832 
L 114.071867 61.778728 
L 114.19829 59.634917 
L 114.261502 59.88775 
L 114.324713 60.730526 
L 114.577559 60.298603 
L 114.767194 61.041299 
L 115.462521 57.427899 
L 115.652156 58.123189 
L 115.905002 58.181129 
L 116.031425 56.890629 
L 116.284271 58.439229 
L 116.537118 56.84849 
L 116.726752 57.069719 
L 116.789964 57.62279 
L 116.853175 57.422631 
L 117.169233 55.958308 
L 117.422079 61.578569 
L 117.738137 60.035236 
L 118.307041 65.049751 
L 118.496676 65.318386 
L 118.559887 66.171696 
L 118.686311 63.480081 
L 118.749522 63.817192 
L 119.002368 64.507214 
L 119.128791 63.08503 
L 119.192003 64.83379 
L 119.508061 64.83379 
L 119.571272 63.148239 
L 119.634484 63.643369 
L 119.824119 63.195645 
L 120.013753 61.362608 
L 120.076965 61.604906 
L 120.266599 61.288865 
L 120.393023 62.632038 
L 120.456234 62.526692 
L 120.519446 61.657579 
L 120.70908 61.936749 
L 120.961927 65.065553 
L 121.214773 65.1709 
L 121.404407 63.079763 
L 121.594042 63.632835 
L 121.720465 62.368671 
L 121.846888 63.1061 
L 122.036523 62.974416 
L 122.099734 62.658375 
L 122.162946 63.1061 
L 122.226158 61.8156 
L 122.289369 62.010491 
L 122.479004 61.984155 
L 122.605427 62.742653 
L 122.73185 61.625975 
L 122.984696 59.255668 
L 123.047908 59.508501 
L 123.174331 60.58304 
L 123.363966 60.14585 
L 123.616812 63.243051 
L 123.806446 63.380002 
L 123.869658 62.284393 
L 123.93287 62.526692 
L 124.059293 63.690775 
L 124.248927 64.027886 
L 124.312139 64.681037 
L 124.501774 62.431879 
L 124.691408 62.458216 
L 124.75462 63.490616 
L 124.881043 62.284393 
L 124.944254 62.421345 
L 125.260312 61.631242 
L 125.323524 61.999957 
L 125.57637 61.17825 
L 125.639582 61.109775 
L 125.829216 61.610173 
L 126.018851 61.025497 
L 126.145274 61.747124 
L 126.208486 61.662846 
L 126.271697 61.262528 
L 126.524543 61.346806 
L 126.714178 58.692062 
L 126.903813 58.939627 
L 127.030236 58.00204 
L 127.093447 58.860617 
L 127.156659 58.544576 
L 127.409505 58.823746 
L 127.472717 58.223268 
L 127.535928 58.281209 
L 127.59914 59.376817 
L 127.788774 58.365487 
L 127.851986 60.087909 
L 127.915198 58.771072 
L 127.978409 59.703393 
L 128.041621 59.108183 
L 128.294467 58.739468 
L 128.357678 58.965964 
L 128.42089 58.77634 
L 128.484102 59.008103 
L 128.800159 57.30675 
L 128.926582 56.395498 
L 129.24264 55.947774 
L 129.305852 56.026784 
L 129.369063 57.327819 
L 129.558698 57.138194 
L 129.685121 58.939627 
L 129.748333 58.007307 
L 129.811544 58.381289 
L 130.001179 58.581448 
L 130.06439 58.95543 
L 130.127602 57.591186 
L 130.254025 57.728137 
L 130.44366 56.801084 
L 130.506871 57.549048 
L 130.696506 54.652006 
L 130.949352 54.667808 
L 131.138987 55.147137 
L 131.391833 54.76262 
L 131.455045 54.241153 
L 131.518256 54.499253 
L 131.581468 54.520322 
L 131.960737 53.161347 
L 132.213583 53.372041 
L 132.276795 53.092871 
L 132.340006 53.219288 
L 132.403218 53.772359 
L 132.466429 52.897979 
L 132.656064 52.850573 
L 132.719276 53.540596 
L 132.782487 52.502928 
L 132.845699 53.019128 
L 132.90891 53.645943 
L 133.224968 51.122883 
L 133.28818 51.154487 
L 133.604237 51.291438 
L 133.667449 51.101814 
L 133.730661 51.934055 
L 133.793872 51.396785 
L 133.983507 51.918253 
L 134.046718 52.634612 
L 134.236353 50.438128 
L 134.552411 48.900062 
L 134.615622 49.205568 
L 134.678834 50.222166 
L 134.868469 50.527673 
L 134.93168 50.17476 
L 134.994892 49.173964 
L 135.058103 49.674362 
L 135.310949 48.510278 
L 135.374161 49.268776 
L 135.437373 48.141564 
L 135.500584 48.768378 
L 135.563796 48.80525 
L 135.816642 47.088094 
L 135.943065 44.148914 
L 136.006277 43.738061 
L 136.195911 43.917151 
L 136.322334 41.520508 
L 136.385546 42.342214 
L 136.448757 41.720667 
L 136.638392 42.21053 
L 136.701604 43.253465 
L 136.764815 41.736469 
L 136.828027 42.005104 
L 136.891238 42.842612 
L 137.080873 42.932157 
L 137.144085 45.644841 
L 137.207296 44.538698 
L 137.270508 42.284273 
L 137.333719 42.795206 
L 137.712989 41.85235 
L 137.7762 41.920826 
L 137.965835 42.336946 
L 138.092258 42.163124 
L 138.218681 40.282681 
L 138.59795 38.191544 
L 138.661162 36.095139 
L 138.850797 37.501521 
L 138.914008 39.113329 
L 138.97722 38.080929 
L 139.040431 38.354831 
L 139.103643 37.78069 
L 139.356489 38.897368 
L 139.482912 37.496254 
L 139.735758 37.670076 
L 139.988605 36.495458 
L 140.178239 36.901043 
L 140.304662 38.971111 
L 140.431085 45.323533 
L 140.683932 40.846287 
L 140.747143 43.511565 
L 140.810355 43.295604 
L 140.873566 42.847879 
L 141.063201 43.427288 
L 141.126412 44.870541 
L 141.189624 43.653783 
L 141.252836 44.11731 
L 141.316047 43.606377 
L 141.505682 44.8126 
L 141.695316 42.205263 
L 141.758528 42.215797 
L 142.011374 41.320348 
L 142.074586 42.479165 
L 142.137797 41.947163 
L 142.201009 41.789142 
L 142.390644 42.505502 
L 142.580278 39.824421 
L 142.64349 40.240542 
L 142.833124 40.071987 
L 142.896336 39.513648 
L 143.085971 43.174455 
L 143.338817 44.364875 
L 143.402028 42.64772 
L 143.528452 47.435739 
L 143.718086 46.97748 
L 143.907721 43.558971 
L 143.970932 43.932953 
L 144.28699 42.958494 
L 144.350202 40.340622 
L 144.413413 40.477573 
L 144.603048 41.051714 
L 144.792683 40.48284 
L 144.855894 41.041179 
L 145.045529 41.678528 
L 145.298375 40.298483 
L 145.48801 40.682999 
L 145.551221 40.503909 
L 145.740856 41.315081 
L 145.930491 41.27821 
L 145.993702 41.462567 
L 146.120125 46.313794 
L 146.183337 45.197116 
L 146.436183 48.778913 
L 146.625818 45.902941 
L 146.941876 44.549233 
L 147.005087 46.450745 
L 147.068299 45.592168 
L 147.257933 45.729119 
L 147.51078 44.148914 
L 147.700414 43.875012 
L 147.826837 42.31061 
L 147.890049 42.605581 
L 147.95326 43.637981 
L 148.206107 43.34301 
L 148.269318 41.810212 
L 148.33253 42.46863 
L 148.395741 43.406218 
L 148.648588 43.869745 
L 148.711799 43.60111 
L 148.775011 42.05251 
L 148.838222 43.695922 
L 149.027857 45.318265 
L 149.091068 44.580837 
L 149.15428 44.675649 
L 149.280703 48.041484 
L 149.533549 46.371735 
L 149.723184 48.678834 
L 149.912819 49.231905 
L 149.97603 50.243236 
L 150.165665 47.035421 
L 150.608146 42.400155 
L 150.924203 45.713317 
L 150.987415 44.99169 
L 151.050627 45.097037 
L 151.240261 44.101508 
L 151.303473 44.380678 
L 151.366684 45.439414 
L 151.429896 43.769665 
L 151.493107 44.91268 
L 151.809165 45.212919 
L 152.125223 42.463363 
L 152.188435 42.2316 
L 152.251646 43.648516 
L 152.314858 42.911087 
L 152.378069 42.674057 
L 152.567704 43.869745 
L 152.630915 43.606377 
L 152.694127 43.875012 
L 152.82055 46.150506 
L 153.073396 45.376206 
L 153.263031 46.761519 
L 153.515877 44.433351 
L 153.6423 45.397276 
L 153.705512 44.896878 
L 153.895147 44.965353 
L 153.958358 44.438618 
L 154.084781 45.860802 
L 154.147993 45.592168 
L 154.337627 46.308527 
L 154.400839 45.128641 
L 154.590474 48.36806 
L 154.780108 48.215307 
L 154.969743 45.976684 
L 155.032955 45.939813 
L 155.285801 45.24979 
L 155.349012 46.150506 
L 155.412224 45.913476 
L 155.475435 46.245319 
L 155.791493 42.916355 
L 155.854705 43.42202 
L 155.917916 43.253465 
L 156.107551 43.574773 
L 156.170763 43.137583 
L 156.360397 44.63351 
L 156.613243 44.059369 
L 156.676455 44.517629 
L 156.739667 44.048835 
L 156.802878 44.939016 
L 156.992513 44.559767 
L 157.118936 44.965353 
L 157.245359 44.096241 
L 157.434994 44.470222 
L 157.561417 44.043567 
L 157.624628 43.774932 
L 157.68784 42.452828 
L 158.003898 41.072783 
L 158.067109 40.340622 
L 158.130321 41.014842 
L 158.383167 40.567118 
L 158.50959 39.539985 
L 158.572802 39.819154 
L 158.952071 37.691146 
L 159.015282 36.716686 
L 159.204917 37.401441 
L 159.268129 38.781487 
L 159.33134 38.196811 
L 159.394552 36.33217 
L 159.457763 37.675343 
L 159.647398 37.596333 
L 159.71061 38.554991 
L 159.900244 36.448051 
L 160.089879 36.785162 
L 160.15309 36.321635 
L 160.279514 37.728017 
L 160.342725 36.537596 
L 160.53236 36.59027 
L 160.721994 37.943978 
L 160.785206 36.895776 
L 160.974841 36.621874 
L 161.038052 36.679815 
L 161.164475 38.339029 
L 161.227687 38.080929 
L 161.417322 36.737756 
L 161.480533 37.037994 
L 161.543745 38.365366 
L 161.606956 37.791225 
L 161.859802 38.191544 
L 161.923014 39.661134 
L 161.986226 39.503113 
L 162.112649 38.634001 
L 162.428706 40.667197 
L 162.491918 40.651395 
L 162.55513 40.251077 
L 162.744764 40.277413 
L 162.807976 40.567118 
L 162.934399 39.640064 
L 162.99761 39.68747 
L 163.187245 39.877095 
L 163.250457 39.777015 
L 163.629726 43.200792 
L 163.692938 43.427288 
L 163.756149 43.179722 
L 164.072207 44.0383 
L 164.135418 43.685388 
L 164.19863 43.964557 
L 164.325053 46.371735 
L 164.514688 45.492088 
L 164.577899 45.702782 
L 164.641111 47.203976 
L 164.704322 46.682509 
L 164.767534 46.535023 
L 165.02038 46.614033 
L 165.210015 50.959595 
L 165.462861 50.743634 
L 165.526073 49.795511 
L 165.589284 50.169493 
L 166.031765 51.697024 
L 166.094977 51.391518 
L 166.347823 52.365977 
L 166.474246 55.805555 
L 166.537458 54.883769 
L 166.727092 54.867967 
L 166.853515 53.556398 
L 166.916727 54.68361 
L 166.979938 51.291438 
L 167.169573 51.533736 
L 167.232785 49.774442 
L 167.359208 49.763907 
L 167.422419 51.086012 
L 167.612054 49.964066 
L 167.675266 51.201893 
L 167.8649 48.868458 
L 168.117746 48.025682 
L 168.244169 46.02409 
L 168.307381 46.535023 
L 168.497016 48.415466 
L 168.560227 48.331189 
L 168.749862 46.724647 
L 168.939497 46.866866 
L 169.002708 47.541086 
L 169.571612 43.169187 
L 169.634824 43.311406 
L 169.88767 42.742532 
L 170.014093 41.230803 
L 170.077305 42.911087 
L 170.266939 42.916355 
L 170.456574 42.226332 
L 170.519785 42.974296 
L 170.70942 43.674853 
L 170.772632 43.506298 
L 170.899055 43.469426 
L 170.962266 42.458095 
L 171.215113 42.663522 
L 171.278324 43.237663 
L 171.341536 43.026969 
L 171.404747 42.626651 
L 171.594382 42.331679 
L 171.784017 41.230803 
L 172.100074 43.796002 
L 172.163286 45.818664 
L 172.226497 44.849471 
L 172.289709 44.11731 
L 172.479344 44.965353 
L 172.73219 43.606377 
L 172.921825 43.711724 
L 172.985036 44.0383 
L 173.048248 45.829198 
L 173.111459 43.506298 
L 173.174671 43.801269 
L 173.364305 43.906616 
L 173.55394 41.857618 
L 173.617152 42.431759 
L 173.806786 41.810212 
L 173.869998 42.194728 
L 174.059633 44.791531 
L 174.249267 45.160245 
L 174.37569 45.997753 
L 174.502113 45.102304 
L 174.881383 45.829198 
L 174.944594 47.140768 
L 175.134229 46.060962 
L 175.197441 44.301667 
L 175.260652 46.54029 
L 175.323864 46.313794 
L 175.387075 45.181314 
L 175.57671 45.355137 
L 175.639921 45.781792 
L 175.766345 44.349073 
L 176.019191 44.422816 
L 176.082402 44.954818 
L 176.272037 44.13838 
L 176.461672 44.380678 
L 176.588095 45.123374 
L 176.714518 44.21739 
L 176.904153 44.380678 
L 177.156999 46.434943 
L 177.346633 46.271655 
L 177.473056 45.128641 
L 177.536268 45.966149 
L 177.59948 45.312998 
L 177.915537 44.675649 
L 177.978749 44.759927 
L 178.04196 45.40781 
L 178.231595 45.497355 
L 178.358018 44.301667 
L 178.42123 44.443886 
L 178.484441 44.538698 
L 178.674076 44.280598 
L 178.800499 43.564239 
L 178.863711 43.738061 
L 178.926922 44.175251 
L 179.116557 44.127845 
L 179.179768 43.843408 
L 179.24298 43.93822 
L 179.306192 43.869745 
L 179.369403 44.528163 
L 179.559038 43.875012 
L 179.622249 44.707253 
L 179.685461 44.543965 
L 179.811884 44.543965 
L 180.254365 43.137583 
L 180.444 43.032236 
L 180.696846 41.304546 
L 180.88648 41.915559 
L 181.139327 40.177334 
L 181.328961 40.58292 
L 181.455384 40.272146 
L 181.581808 40.345889 
L 181.834654 40.904228 
L 181.961077 43.0059 
L 182.024288 42.705661 
L 182.213923 42.526571 
L 182.466769 44.65458 
L 182.656404 44.817867 
L 182.719616 44.017231 
L 182.782827 44.306935 
L 182.846039 44.259529 
L 183.162096 45.049631 
L 183.225308 45.644841 
L 183.28852 45.17078 
L 183.351731 45.191849 
L 183.604577 46.208447 
L 183.667789 45.539494 
L 183.731 46.197913 
L 183.794212 46.097833 
L 183.983847 45.829198 
L 184.173481 44.854739 
L 184.426328 44.2964 
L 184.489539 44.501827 
L 184.679174 47.962474 
L 184.868808 47.678037 
L 184.93202 46.851064 
L 184.995232 47.082827 
L 185.311289 49.927195 
L 185.437712 49.942997 
L 185.500924 50.590881 
L 185.564136 50.316979 
L 185.75377 49.927195 
L 185.816982 49.969334 
L 185.943405 48.336456 
L 186.006616 48.46814 
L 186.196251 48.125762 
L 186.322674 50.158958 
L 186.449097 47.925603 
L 186.638732 47.25665 
L 186.765155 47.846593 
L 186.828367 47.778117 
L 187.144424 48.763111 
L 187.270847 48.131029 
L 187.523694 48.173168 
L 187.586905 48.073088 
L 187.713328 48.847389 
L 187.77654 48.742042 
L 188.029386 47.904533 
L 188.219021 49.927195 
L 188.661502 47.730711 
L 188.851136 48.052019 
L 188.914348 48.573487 
L 188.977559 48.294317 
L 189.103983 47.872929 
L 189.42004 46.909005 
L 189.546463 49.653293 
L 189.79931 49.468936 
L 189.862521 49.258242 
L 189.925733 48.647229 
L 189.988944 48.994874 
L 190.178579 48.552417 
L 190.431425 46.066229 
L 190.62106 46.218982 
L 190.747483 45.650108 
L 190.810695 46.060962 
L 190.873906 45.492088 
L 191.189964 45.202384 
L 191.316387 45.881872 
L 191.506022 45.839733 
L 191.569233 45.697515 
L 191.632445 46.345398 
L 191.695656 46.1031 
L 191.758868 46.355933 
L 191.948503 46.208447 
L 192.011714 46.492884 
L 192.138137 45.107572 
L 192.201349 45.418345 
L 192.390983 45.550029 
L 192.580618 46.614033 
L 192.64383 45.802861 
L 192.833464 45.40781 
L 193.086311 44.248994 
L 193.402368 44.965353 
L 193.46558 44.917947 
L 193.528791 44.317469 
L 193.718426 44.480757 
L 193.844849 41.383556 
L 193.971272 42.753067 
L 194.224119 41.87342 
L 194.28733 42.279006 
L 194.350542 42.094648 
L 194.413753 41.641657 
L 194.603388 42.90582 
L 194.666599 44.206855 
L 194.729811 44.075171 
L 194.856234 43.400951 
L 195.172292 44.549233 
L 195.235503 45.518425 
L 195.298715 45.276127 
L 195.48835 45.834466 
L 195.677984 45.281394 
L 195.741196 45.5869 
L 195.930831 45.723851 
L 195.994042 45.950347 
L 196.057254 45.291929 
L 196.120465 45.392008 
L 196.183677 45.14971 
L 196.373311 45.033829 
L 196.436523 44.780996 
L 196.499734 45.360404 
L 196.562946 43.917151 
L 196.626158 44.191053 
L 196.815792 44.317469 
L 196.879004 44.886343 
L 197.005427 44.354341 
L 197.258273 45.054898 
L 197.321485 44.881076 
L 197.511119 46.482349 
L 197.827177 44.939016 
L 197.890389 45.476286 
L 197.9536 47.019619 
L 198.143235 46.851064 
L 198.33287 48.310119 
L 198.396081 47.435739 
L 198.585716 46.761519 
L 198.648927 47.072292 
L 198.838562 45.629039 
L 199.091408 46.487617 
L 199.281043 44.312202 
L 199.533889 44.401747 
L 199.597101 44.175251 
L 199.723524 45.028561 
L 199.97637 43.485228 
L 200.039582 43.875012 
L 200.102793 44.349073 
L 200.166005 44.017231 
L 200.418851 45.191849 
L 200.482062 45.023294 
L 200.545274 45.565831 
L 200.608486 45.481553 
L 200.79812 44.617708 
L 200.861332 44.649312 
L 200.987755 44.71252 
L 201.050966 43.932953 
L 201.240601 44.043567 
L 201.430236 43.822339 
L 201.493447 43.716992 
L 201.746294 44.443886 
L 201.935928 46.503419 
L 202.125563 46.587696 
L 202.188774 46.261121 
L 202.251986 46.366468 
L 202.315198 46.766786 
L 202.378409 46.313794 
L 202.631255 46.766786 
L 202.694467 46.377002 
L 202.757678 46.398072 
L 202.82089 46.413874 
L 203.136948 45.776525 
L 203.200159 46.139972 
L 203.263371 45.981951 
L 203.453006 46.608766 
L 203.64264 45.94508 
L 203.705852 46.761519 
L 203.958698 47.088094 
L 204.085121 46.345398 
L 204.148333 45.091769 
L 204.337967 45.5869 
L 204.401179 45.560563 
L 204.590814 45.534227 
L 204.906871 44.617708 
L 204.970083 44.707253 
L 205.033294 44.944284 
L 205.222929 44.528163 
L 205.412564 45.413078 
L 205.475775 45.355137 
L 205.66541 44.233192 
L 205.791833 46.045159 
L 205.855045 45.86607 
L 205.918256 45.392008 
L 206.107891 45.876604 
L 206.171102 45.629039 
L 206.297525 46.240051 
L 206.360737 45.618504 
L 206.550372 45.634306 
L 206.676795 47.051223 
L 206.803218 46.487617 
L 207.056064 46.450745 
L 207.119276 46.429676 
L 207.245699 45.881872 
L 207.435333 46.045159 
L 207.561757 47.609562 
L 207.68818 46.592964 
L 207.877814 47.067025 
L 208.004237 45.929278 
L 208.130661 46.271655 
L 208.320295 45.355137 
L 208.383507 45.528959 
L 208.446718 45.497355 
L 208.50993 45.112839 
L 208.762776 44.89161 
L 208.889199 45.334068 
L 208.952411 44.691451 
L 209.015622 45.086502 
L 209.205257 45.855535 
L 209.268469 45.402543 
L 209.394892 46.045159 
L 209.458103 45.60797 
L 209.710949 46.413874 
L 209.774161 45.850268 
L 209.837373 45.897674 
L 209.900584 45.976684 
L 210.090219 45.702782 
L 210.279853 44.63351 
L 210.343065 44.644045 
L 210.5327 45.197116 
L 210.785546 44.580837 
L 211.228027 45.176047 
L 211.544085 45.708049 
L 211.860142 44.870541 
L 211.923354 45.118106 
L 211.986565 44.89161 
L 212.112989 43.069108 
L 212.302623 43.169187 
L 212.365835 43.048038 
L 212.492258 42.199995 
L 212.555469 42.331679 
L 212.745104 42.695126 
L 212.808316 42.516036 
L 213.187585 43.622179 
L 213.250797 43.659051 
L 213.37722 44.338539 
L 213.630066 44.738857 
L 213.756489 45.771257 
L 213.819701 45.565831 
L 213.882912 46.624568 
L 214.072547 46.456013 
L 214.19897 47.051223 
L 214.262181 46.993282 
L 214.325393 46.319062 
L 214.515028 46.087298 
L 214.578239 46.271655 
L 214.641451 45.902941 
L 214.704662 46.408607 
L 214.767874 45.713317 
L 215.083932 46.703578 
L 215.210355 47.583225 
L 215.399989 47.282986 
L 215.526412 47.714909 
L 215.589624 47.267184 
L 215.652836 47.488413 
L 215.84247 47.667503 
L 216.032105 49.073885 
L 216.348163 49.310915 
L 216.474586 48.747309 
L 216.537797 48.926399 
L 216.853855 48.699903 
L 216.917067 48.836854 
L 216.980278 48.452338 
L 217.233124 49.953532 
L 217.296336 48.673566 
L 217.359548 49.168697 
L 217.422759 49.700699 
L 217.612394 50.027275 
L 217.86524 51.654885 
L 218.118086 51.907718 
L 218.181298 50.675158 
L 218.244509 51.344112 
L 218.307721 50.980665 
L 218.560567 51.791836 
L 218.939836 51.607479 
L 219.129471 53.598537 
L 219.192683 54.183212 
L 219.382317 53.93038 
L 219.824798 55.984645 
L 219.951221 58.67626 
L 220.077644 58.275942 
L 220.330491 57.391027 
L 220.393702 58.186397 
L 220.456914 57.069719 
L 220.520125 57.438433 
L 220.70976 57.596454 
L 220.772972 57.491107 
L 220.836183 56.916966 
L 220.962606 57.580652 
L 221.152241 58.149525 
L 221.215452 59.181925 
L 221.278664 59.11345 
L 221.341876 59.160856 
L 221.405087 58.881687 
L 221.657933 59.787671 
L 221.847568 61.857738 
L 222.037203 61.030765 
L 222.163626 61.668114 
L 222.290049 60.477693 
L 222.479684 60.835873 
L 222.606107 61.852471 
L 222.73253 65.855655 
L 222.922164 64.596759 
L 223.111799 66.12429 
L 223.175011 66.424529 
L 223.870338 71.275757 
L 223.933549 71.307361 
L 223.996761 71.58653 
L 224.059972 70.47512 
L 224.249607 71.144073 
L 224.312819 70.311832 
L 224.502453 71.491718 
L 224.944934 73.087724 
L 225.387415 76.411421 
L 225.640261 78.265527 
L 225.703473 77.159384 
L 225.766684 77.696654 
L 225.829896 77.686119 
L 226.082742 77.528099 
L 226.145954 76.980295 
L 226.209165 77.248929 
L 226.272377 77.106711 
L 226.462011 77.438554 
L 226.525223 76.680056 
L 226.588435 77.275266 
L 226.651646 76.927621 
L 226.714858 74.894425 
L 226.904492 73.967371 
L 226.967704 72.302889 
L 227.030915 74.278145 
L 227.094127 73.008714 
L 227.157339 72.36083 
L 227.346973 72.076393 
L 227.473396 74.014778 
L 227.599819 72.576792 
L 227.852666 69.869375 
L 227.979089 71.091399 
L 228.0423 71.086132 
L 228.295147 71.907838 
L 228.484781 69.843038 
L 228.674416 71.444312 
L 228.737627 70.664744 
L 228.800839 70.91231 
L 228.864051 70.949181 
L 229.180108 73.103526 
L 229.24332 72.497781 
L 229.306531 72.740079 
L 229.369743 74.00951 
L 229.622589 74.662661 
L 229.685801 73.356359 
L 229.749012 74.135927 
L 229.812224 73.667133 
L 230.001859 73.351092 
L 230.06507 73.777747 
L 230.191493 71.628669 
L 230.254705 73.092992 
L 230.444339 73.1562 
L 230.507551 73.777747 
L 230.570763 72.729545 
L 230.633974 73.862024 
L 230.950032 71.676075 
L 231.013243 73.545984 
L 231.076455 73.008714 
L 231.139667 72.323959 
L 231.329301 72.292355 
L 231.392513 72.028987 
L 231.582147 69.384779 
L 231.771782 69.384779 
L 231.834994 70.106405 
L 231.898205 69.764028 
L 232.024628 68.420854 
L 232.277475 68.757964 
L 232.403898 67.630752 
L 232.467109 67.799307 
L 232.656744 67.804574 
L 232.783167 67.109284 
L 232.90959 68.362913 
L 233.099225 68.615746 
L 233.162436 67.588613 
L 233.225648 67.61495 
L 233.352071 67.741366 
L 233.541706 67.899386 
L 233.604917 69.08454 
L 233.668129 68.552538 
L 233.73134 67.757168 
L 233.794552 68.373448 
L 234.047398 69.24256 
L 234.11061 70.11694 
L 234.173821 69.843038 
L 234.237033 68.273368 
L 234.426667 68.631548 
L 234.489879 68.31024 
L 234.616302 70.132742 
L 234.679514 69.458522 
L 234.869148 69.785097 
L 234.995571 68.199625 
L 235.374841 69.816701 
L 235.501264 68.958123 
L 235.564475 69.611275 
L 235.75411 69.442719 
L 235.817322 68.858044 
L 235.943745 69.516462 
L 236.006956 69.484858 
L 236.196591 70.143277 
L 236.259802 69.311036 
L 236.639072 73.024516 
L 236.765495 72.755881 
L 236.891918 71.870967 
L 237.081553 72.334494 
L 237.144764 71.986849 
L 237.207976 72.755881 
L 237.271187 72.513583 
L 237.334399 72.508316 
L 237.524034 72.966575 
L 237.587245 72.761149 
L 237.77688 74.035847 
L 238.029726 74.731137 
L 238.092938 74.688998 
L 238.156149 74.72587 
L 238.408995 76.722194 
L 238.472207 76.474629 
L 238.661842 77.201523 
L 238.851476 76.2534 
L 238.914688 76.901284 
L 238.977899 76.648452 
L 239.104322 76.980295 
L 239.293957 76.980295 
L 239.357169 77.096176 
L 239.546803 78.860738 
L 239.736438 80.319793 
L 239.79965 80.045891 
L 239.862861 80.082763 
L 239.989284 76.443025 
L 240.178919 74.283412 
L 240.24213 76.701125 
L 240.305342 76.205994 
L 240.368554 76.111182 
L 240.431765 76.674788 
L 240.684611 76.722194 
L 240.747823 77.74406 
L 240.811034 77.054037 
L 241.063881 78.381409 
L 241.190304 78.254993 
L 241.253515 76.953958 
L 241.316727 77.802001 
L 241.569573 76.953958 
L 241.632785 77.654515 
L 241.695996 77.433286 
L 241.759208 77.20679 
L 241.948842 77.870476 
L 242.075266 77.327939 
L 242.138477 77.686119 
L 242.201689 77.454356 
L 242.391323 76.864413 
L 242.580958 74.862821 
L 242.644169 75.073515 
L 243.023439 77.14885 
L 243.339497 77.14885 
L 243.402708 77.601842 
L 243.46592 77.480693 
L 243.718766 77.765129 
L 243.781977 78.149646 
L 243.845189 76.96976 
L 243.908401 77.101444 
L 243.971612 76.701125 
L 244.161247 77.106711 
L 244.224458 76.184925 
L 244.414093 77.828338 
L 244.603728 77.949487 
L 244.666939 77.817803 
L 244.856574 79.835197 
L 245.10942 79.856267 
L 245.299055 79.282126 
L 245.488689 79.192581 
L 245.615113 78.486756 
L 245.741536 79.176779 
L 245.994382 79.398007 
L 246.057593 80.42514 
L 246.120805 79.714048 
L 246.500074 81.678769 
L 246.563286 81.878928 
L 246.626497 82.827051 
L 246.816132 82.832318 
L 246.879344 82.553149 
L 247.068978 83.380122 
L 247.321825 83.785708 
L 247.448248 82.84812 
L 247.701094 83.517073 
L 247.764305 82.900794 
L 247.827517 83.601351 
L 247.890729 83.169428 
L 248.143575 83.201033 
L 248.712479 86.84077 
L 248.838902 86.472056 
L 249.15496 88.120736 
L 249.281383 85.855776 
L 249.471017 86.74069 
L 249.723864 84.507335 
L 249.913498 84.533672 
L 249.97671 85.571339 
L 250.039921 84.349314 
L 250.103133 84.654821 
L 250.355979 85.487062 
L 250.419191 86.835503 
L 250.482402 86.561601 
L 250.545614 86.972454 
L 250.608825 85.234229 
L 250.861672 85.855776 
L 250.924883 84.633751 
L 250.988095 84.749633 
L 251.051306 85.418586 
L 251.240941 84.533672 
L 251.304153 85.281635 
L 251.430576 84.217631 
L 251.493787 84.31771 
L 251.873056 83.280043 
L 252.125903 81.294253 
L 252.189114 81.921067 
L 252.252326 81.173104 
L 252.315537 81.710373 
L 252.378749 81.531283 
L 252.631595 82.400396 
L 252.758018 80.925538 
L 252.82123 81.104628 
L 253.074076 80.793854 
L 253.200499 81.504946 
L 253.453345 81.594491 
L 253.516557 82.189702 
L 253.579768 82.126494 
L 253.706192 81.9158 
L 253.895826 82.953467 
L 253.959038 82.858655 
L 254.148672 80.714844 
L 254.338307 80.24605 
L 254.401519 79.266324 
L 254.46473 79.534958 
L 254.780788 80.203912 
L 254.907211 78.681648 
L 254.970423 79.350601 
L 255.033634 79.045095 
L 255.223269 79.376938 
L 255.476115 77.454356 
L 255.66575 77.470158 
L 255.792173 79.303195 
L 255.855384 79.097768 
L 255.918596 78.908144 
L 256.108231 79.824662 
L 256.297865 77.480693 
L 256.361077 77.612376 
L 256.613923 76.848611 
L 256.803558 77.143582 
L 256.993192 77.338474 
L 257.056404 77.201523 
L 257.119616 76.606313 
L 257.182827 76.685323 
L 257.246039 76.827541 
L 257.625308 76.448292 
L 257.68852 76.658986 
L 257.878154 76.179658 
L 258.004577 75.147257 
L 258.067789 75.442229 
L 258.131 76.184925 
L 258.320635 76.285005 
L 258.447058 77.011899 
L 258.51027 77.949487 
L 258.573481 76.906552 
L 258.763116 76.126984 
L 258.826328 76.142786 
L 258.889539 76.53257 
L 258.952751 75.990033 
L 259.015962 77.30687 
L 259.205597 77.965289 
L 259.33202 76.148054 
L 259.395232 76.637917 
L 259.458443 76.553639 
L 259.711289 77.543901 
L 259.774501 77.101444 
L 259.837712 78.365607 
L 259.900924 78.175983 
L 260.090559 78.444617 
L 260.15377 77.275266 
L 260.216982 78.43935 
L 260.280193 77.854674 
L 260.343405 77.728258 
L 260.596251 78.228656 
L 260.659463 77.960021 
L 260.785886 78.739589 
L 261.101944 79.90894 
L 261.228367 80.440942 
L 261.418001 80.44621 
L 261.481213 80.788587 
L 261.607636 79.477017 
L 261.670847 79.487552 
L 261.860482 78.897609 
L 261.986905 79.603434 
L 262.113328 78.065368 
L 262.429386 76.548372 
L 262.555809 76.005835 
L 262.745444 76.911819 
L 262.808655 76.490431 
L 262.871867 76.96976 
L 262.935079 76.643184 
L 262.99829 76.511501 
L 263.187925 76.859146 
L 263.440771 78.139111 
L 263.693617 77.912615 
L 263.756829 77.533366 
L 263.82004 76.474629 
L 263.883252 77.517564 
L 264.072887 77.354276 
L 264.19931 78.655311 
L 264.262521 78.265527 
L 264.325733 78.69745 
L 264.578579 78.639509 
L 264.705002 77.707189 
L 264.768214 78.634242 
L 264.957848 77.865209 
L 265.02106 78.592103 
L 265.147483 76.86968 
L 265.210695 76.964492 
L 265.400329 76.943423 
L 265.589964 75.147257 
L 265.653175 75.452764 
L 265.906022 75.199931 
L 265.969233 75.515972 
L 266.032445 75.40009 
L 266.348503 75.584447 
L 266.411714 75.06298 
L 266.474926 75.742468 
L 266.538137 75.531774 
L 266.727772 75.700329 
L 266.980618 76.622115 
L 267.423099 78.79753 
L 267.739157 78.386676 
L 268.055215 79.403275 
L 268.118426 78.075903 
L 268.181638 78.244458 
L 268.244849 78.318201 
L 268.308061 78.123309 
L 268.560907 76.932888 
L 268.624119 77.022433 
L 268.750542 77.92315 
L 268.940176 77.396415 
L 269.003388 78.376142 
L 269.193023 74.120125 
L 269.382657 73.867292 
L 269.50908 74.889157 
L 269.635503 74.1886 
L 269.88835 73.456439 
L 269.951561 74.415096 
L 270.014773 74.351888 
L 270.077984 73.725073 
L 270.267619 73.877827 
L 270.330831 73.651331 
L 270.394042 74.120125 
L 270.457254 73.809351 
L 270.520465 73.75141 
L 270.836523 73.193071 
L 270.899734 73.23521 
L 270.962946 73.240477 
L 271.215792 73.588122 
L 271.405427 72.729545 
L 271.658273 74.552047 
L 271.784696 73.303686 
L 271.847908 73.598657 
L 272.100754 73.588122 
L 272.163966 74.404561 
L 272.227177 74.278145 
L 272.290389 73.577588 
L 272.480023 73.714539 
L 272.543235 73.603924 
L 272.606446 73.793549 
L 272.669658 73.182537 
L 272.73287 73.561786 
L 272.922504 73.714539 
L 273.17535 72.882298 
L 273.428197 73.809351 
L 273.491408 73.77248 
L 273.617831 72.940239 
L 273.807466 73.524914 
L 273.870678 73.324755 
L 273.933889 73.440637 
L 273.997101 73.49331 
L 274.060312 73.409033 
L 274.313158 72.961308 
L 274.37637 73.393231 
L 274.439582 73.003447 
L 274.502793 73.31422 
L 274.692428 73.345824 
L 274.882062 73.793549 
L 274.945274 73.361626 
L 275.19812 73.351092 
L 275.387755 75.747735 
L 275.57739 75.75827 
L 275.640601 75.984766 
L 275.703813 75.515972 
L 275.767024 75.552843 
L 276.01987 75.616051 
L 276.209505 76.17439 
L 276.272717 76.047974 
L 276.462351 76.074311 
L 276.651986 74.910227 
L 276.715198 74.978702 
L 276.904832 74.825949 
L 277.094467 73.893629 
L 277.410525 73.187804 
L 277.536948 73.366894 
L 277.789794 73.646063 
L 277.853006 73.893629 
L 278.04264 75.436962 
L 278.232275 75.626586 
L 278.295486 75.363219 
L 278.358698 75.510704 
L 278.42191 75.710864 
L 278.485121 75.558111 
L 278.674756 75.668725 
L 278.86439 77.322672 
L 278.927602 76.943423 
L 279.117237 76.817007 
L 279.180448 77.138315 
L 279.370083 76.026905 
L 280.06541 74.283412 
L 280.128621 74.383492 
L 280.191833 75.700329 
L 280.255045 75.336882 
L 280.507891 75.50017 
L 280.571102 76.306074 
L 280.634314 76.295539 
L 280.88716 76.748531 
L 280.950372 76.406154 
L 281.076795 77.596574 
L 281.140006 77.443821 
L 281.329641 77.370078 
L 281.392853 77.143582 
L 281.519276 78.091705 
L 281.582487 77.854674 
L 281.772122 78.096972 
L 281.898545 79.197848 
L 281.961757 78.987154 
L 282.024968 78.818599 
L 282.214603 78.665846 
L 282.467449 77.56497 
L 282.657084 76.637917 
L 282.90993 78.202319 
L 283.099565 78.112774 
L 283.352411 77.043503 
L 283.542045 77.301603 
L 283.668469 76.627382 
L 283.73168 76.838076 
L 283.794892 77.491227 
L 283.984526 77.20679 
L 284.237373 75.14199 
L 284.490219 75.084049 
L 284.616642 75.410625 
L 284.679853 75.194664 
L 284.869488 75.221 
L 284.9327 75.342149 
L 284.995911 75.047178 
L 285.059123 75.468566 
L 285.122334 75.363219 
L 285.438392 76.327143 
L 285.564815 75.036643 
L 285.75445 75.594982 
L 285.817661 75.484368 
L 285.880873 75.115653 
L 285.944085 75.394823 
L 286.007296 75.199931 
L 286.196931 75.473833 
L 286.260142 75.415892 
L 286.323354 76.01637 
L 286.386565 75.215733 
L 286.449777 75.247337 
L 286.702623 74.688998 
L 286.829046 74.104322 
L 286.892258 74.478304 
L 287.081893 74.4467 
L 287.334739 73.509112 
L 287.524373 73.582855 
L 287.587585 73.761945 
L 287.77722 72.855961 
L 287.966854 71.718214 
L 288.156489 72.566257 
L 288.219701 72.497781 
L 288.535758 73.4143 
L 288.59897 72.782218 
L 288.662181 73.509112 
L 288.851816 73.419567 
L 288.978239 72.813822 
L 289.041451 73.177269 
L 289.104662 72.692673 
L 289.42072 72.176473 
L 289.483932 72.661069 
L 289.547143 72.387167 
L 289.736778 72.587326 
L 289.989624 70.97025 
L 290.305682 70.522526 
L 290.368893 70.875438 
L 290.62174 68.952856 
L 290.748163 69.363709 
L 290.811374 69.131946 
L 290.874586 69.347907 
L 291.06422 69.537532 
L 291.253855 70.485654 
L 291.317067 69.769295 
L 291.506701 70.032662 
L 291.759548 69.168817 
L 291.949182 69.179352 
L 292.075605 69.563868 
L 292.138817 69.32157 
L 292.202028 69.363709 
L 292.391663 69.911513 
L 292.454875 69.695552 
L 292.518086 70.559397 
L 292.581298 70.043197 
L 292.644509 69.411115 
L 292.834144 68.731627 
L 292.960567 69.916781 
L 293.023779 69.458522 
L 293.08699 69.50066 
L 293.276625 69.405848 
L 293.782317 67.504335 
L 293.90874 67.662356 
L 293.971952 67.725564 
L 294.224798 67.741366 
L 294.351221 66.951264 
L 294.414433 67.188295 
L 294.604068 67.104017 
L 294.793702 66.324449 
L 294.856914 66.003141 
L 295.10976 66.38239 
L 295.172972 66.261241 
L 295.236183 66.298113 
L 295.299395 66.666827 
L 295.489029 66.445598 
L 295.615452 65.655496 
L 295.678664 65.713437 
L 295.741876 65.660764 
L 296.057933 66.435064 
L 296.121145 66.419262 
L 296.563626 68.668419 
L 296.626837 69.732424 
L 296.879684 69.769295 
L 297.069318 68.652617 
L 297.385376 68.347111 
L 297.511799 67.351582 
L 297.701434 67.251503 
L 297.95428 68.900183 
L 298.207126 68.152219 
L 298.333549 69.300501 
L 298.396761 68.31024 
L 298.649607 68.757964 
L 298.712819 68.626281 
L 298.77603 68.505132 
L 298.839242 67.930991 
L 299.028876 68.015268 
L 299.281723 65.697635 
L 299.534569 65.876725 
L 299.59778 66.182231 
L 299.660992 65.792447 
L 299.913838 67.17776 
L 299.97705 66.924927 
L 300.040261 66.977601 
L 300.103473 66.814313 
L 300.166684 67.456929 
L 300.356319 66.645758 
L 300.482742 64.849592 
L 300.545954 64.870661 
L 300.609165 64.57569 
L 300.7988 65.186702 
L 300.862011 65.102425 
L 301.051646 63.796122 
L 301.241281 63.453745 
L 301.304492 63.901469 
L 301.367704 63.827726 
L 301.430915 63.437943 
L 301.494127 63.490616 
L 301.746973 63.211447 
L 301.810185 64.164837 
L 301.873396 64.027886 
L 301.936608 63.369467 
L 302.126243 62.684712 
L 302.189454 63.380002 
L 302.315877 61.999957 
L 302.379089 62.184314 
L 302.758358 61.036032 
L 302.82157 61.452153 
L 303.137627 60.772665 
L 303.516897 63.095565 
L 303.64332 61.936749 
L 303.706531 61.936749 
L 303.896166 63.148239 
L 303.959378 63.100832 
L 304.022589 63.111367 
L 304.085801 62.078967 
L 304.149012 62.531959 
L 304.338647 62.531959 
L 304.401859 62.837465 
L 304.46507 62.384473 
L 304.528282 62.805861 
L 304.591493 64.122698 
L 304.781128 63.121902 
L 304.844339 63.258853 
L 304.907551 63.437943 
L 304.970763 64.328125 
L 305.033974 63.011288 
L 305.223609 63.44321 
L 305.476455 60.962289 
L 305.66609 62.089502 
L 305.729301 61.847204 
L 305.918936 62.189581 
L 306.171782 61.267795 
L 306.234994 64.143767 
L 306.298205 63.590696 
L 306.361417 63.127169 
L 306.551051 64.965474 
L 306.614263 64.796919 
L 306.803898 64.31759 
L 306.993532 64.322857 
L 307.183167 63.54329 
L 307.246379 63.674973 
L 307.436013 63.316794 
L 307.688859 64.243847 
L 307.878494 63.95941 
L 307.941706 63.485349 
L 308.068129 64.844325 
L 308.13134 64.454541 
L 308.384186 64.638898 
L 308.447398 65.534347 
L 308.51061 65.181435 
L 308.573821 64.970741 
L 308.826667 64.549353 
L 309.016302 62.869069 
L 309.205937 62.663643 
L 309.269148 62.800594 
L 309.395571 61.841936 
L 309.458783 62.026293 
L 309.711629 61.631242 
L 309.838052 62.510889 
L 309.901264 62.337067 
L 310.090898 62.05263 
L 310.217322 60.804269 
L 310.343745 61.673381 
L 310.533379 61.694451 
L 310.659802 60.983359 
L 310.723014 61.352073 
L 310.786226 61.299399 
L 311.039072 59.682324 
L 311.102283 59.961493 
L 311.165495 59.761334 
L 311.418341 58.044178 
L 311.481553 58.138991 
L 311.544764 57.354156 
L 311.671187 58.476101 
L 311.860822 58.607785 
L 311.924034 58.033644 
L 312.050457 60.530367 
L 312.113668 60.440822 
L 312.303303 60.256464 
L 312.366514 59.924622 
L 312.492938 61.041299 
L 312.556149 60.783199 
L 312.745784 60.756863 
L 312.872207 62.684712 
L 312.99863 61.920946 
L 313.188265 62.068432 
L 313.441111 64.444006 
L 313.630746 64.264916 
L 313.883592 65.839853 
L 314.073226 65.871458 
L 314.136438 68.320774 
L 314.19965 67.978397 
L 314.326073 67.641286 
L 314.515707 67.625484 
L 314.578919 69.869375 
L 314.64213 69.368977 
L 314.768554 71.834095 
L 314.958188 70.949181 
L 315.0214 71.091399 
L 315.084611 71.855165 
L 315.147823 71.460114 
L 315.211034 71.881502 
L 315.463881 70.106405 
L 315.590304 71.17041 
L 315.653515 70.322367 
L 315.84315 71.217816 
L 315.906362 71.096667 
L 315.969573 71.123003 
L 316.032785 70.438248 
L 316.095996 71.054528 
L 316.285631 71.40744 
L 316.475266 74.178065 
L 316.538477 74.457235 
L 316.728112 76.221796 
L 316.854535 74.114857 
L 316.917746 75.331615 
L 316.980958 75.310545 
L 317.360227 73.33529 
L 317.423439 72.750614 
L 317.613073 72.608396 
L 317.802708 70.317099 
L 317.86592 70.949181 
L 318.055554 71.734016 
L 318.308401 69.77983 
L 318.68767 70.627873 
L 318.750881 70.338169 
L 318.940516 71.238885 
L 319.130151 70.206485 
L 319.193362 70.21702 
L 319.382997 69.879909 
L 319.446209 70.159079 
L 319.50942 69.785097 
L 319.572632 70.343436 
L 319.635843 70.095871 
L 319.825478 70.406644 
L 320.078324 67.909921 
L 320.33117 67.804574 
L 320.457593 67.477999 
L 320.520805 67.451662 
L 320.71044 68.694756 
L 320.773651 68.457725 
L 320.836863 67.836178 
L 320.900074 68.025803 
L 320.963286 68.531468 
L 321.342555 67.883584 
L 321.405767 68.178556 
L 321.721825 67.225166 
L 321.785036 67.393721 
L 321.848248 67.430593 
L 322.101094 67.193562 
L 322.164305 66.724768 
L 322.227517 67.061878 
L 322.290729 67.499068 
L 322.480363 67.404256 
L 322.543575 67.003937 
L 322.606786 67.07768 
L 322.669998 67.082948 
L 322.733209 66.782709 
L 323.112479 66.250707 
L 323.17569 65.755576 
L 323.365325 65.355257 
L 323.428537 65.613357 
L 323.491748 65.023414 
L 323.55496 65.497476 
L 323.618171 65.118227 
L 323.807806 65.313119 
L 324.250287 63.806657 
L 324.37671 63.527488 
L 324.439921 63.643369 
L 324.503133 64.802186 
L 324.692768 64.860127 
L 324.755979 64.459808 
L 324.882402 65.539615 
L 324.945614 65.486941 
L 325.135249 65.281515 
L 325.19846 65.997874 
L 325.261672 65.739774 
L 325.388095 65.60809 
L 325.577729 65.813517 
L 325.767364 64.55462 
L 325.830576 64.770582 
L 326.02021 64.896998 
L 326.083422 64.786384 
L 326.209845 67.114552 
L 326.273056 66.624688 
L 326.525903 65.876725 
L 326.589114 66.22437 
L 326.715537 68.836974 
L 327.031595 70.870171 
L 327.158018 69.469056 
L 327.410864 69.995791 
L 327.474076 71.217816 
L 327.537288 70.511991 
L 327.600499 70.143277 
L 327.790134 70.706883 
L 328.04298 68.462993 
L 328.232615 68.642083 
L 328.295826 68.542003 
L 328.422249 67.751901 
L 328.485461 67.751901 
L 328.675096 68.536736 
L 328.738307 69.93785 
L 328.801519 69.189887 
L 328.927942 68.973925 
L 329.180788 69.010797 
L 329.244 67.509603 
L 329.307211 67.767703 
L 329.370423 67.662356 
L 329.560057 67.788772 
L 329.749692 70.185416 
L 330.06575 69.184619 
L 330.128961 69.526997 
L 330.192173 69.416383 
L 330.445019 69.247828 
L 330.571442 68.478795 
L 330.634654 70.938646 
L 330.697865 70.206485 
L 330.950712 71.760353 
L 331.013923 73.187804 
L 331.077135 72.582059 
L 331.140346 71.976314 
L 331.329981 71.955244 
L 331.393192 70.517258 
L 331.456404 71.475916 
L 331.519616 72.134334 
L 331.582827 71.918373 
L 331.898885 71.043993 
L 332.214943 71.886769 
L 332.404577 70.63314 
L 332.720635 72.118532 
L 332.91027 70.390842 
L 333.099904 69.837771 
L 333.163116 69.948385 
L 333.352751 71.086132 
L 333.542385 66.450866 
L 333.668808 69.305768 
L 333.73202 68.884381 
L 333.795232 68.947589 
L 333.984866 68.689489 
L 334.111289 69.943118 
L 334.174501 69.75876 
L 334.55377 72.418771 
L 334.616982 72.408236 
L 334.680193 72.060591 
L 334.996251 72.086928 
L 335.122674 70.933379 
L 335.37552 71.8657 
L 335.501944 71.24942 
L 335.565155 71.50752 
L 335.75479 71.749818 
L 336.007636 70.138009 
L 336.260482 70.364505 
L 336.386905 71.080865 
L 336.450117 70.311832 
L 336.639751 70.080069 
L 336.702963 69.642879 
L 336.766175 70.285495 
L 336.829386 69.995791 
L 336.892598 69.879909 
L 337.145444 70.11694 
L 337.335079 69.463789 
L 337.524713 69.916781 
L 337.587925 70.722685 
L 337.714348 69.110877 
L 337.777559 69.416383 
L 337.967194 69.279432 
L 338.030406 68.952856 
L 338.093617 69.06347 
L 338.409675 70.717418 
L 338.472887 70.770091 
L 338.662521 68.889648 
L 338.915367 68.915985 
L 338.978579 69.24256 
L 339.041791 68.989728 
L 339.105002 68.452458 
L 339.294637 68.38925 
L 339.484271 67.757168 
L 339.547483 67.967862 
L 339.737118 67.836178 
L 339.926752 67.030274 
L 340.179599 66.756372 
L 340.24281 68.041605 
L 340.369233 67.909921 
L 340.432445 66.672094 
L 340.622079 66.508807 
L 340.685291 66.845917 
L 340.811714 68.373448 
L 341.06456 68.989728 
L 341.127772 68.836974 
L 341.190983 69.095075 
L 341.317407 68.64735 
L 341.570253 68.784301 
L 341.759887 70.838567 
L 341.949522 71.560193 
L 342.012734 71.460114 
L 342.075945 71.302093 
L 342.392003 74.125392 
L 342.455215 74.383492 
L 342.518426 73.688202 
L 342.581638 73.872559 
L 342.834484 74.746939 
L 343.08733 72.613663 
L 343.340176 72.387167 
L 343.466599 71.565461 
L 343.845869 74.662661 
L 343.972292 76.19546 
L 344.161927 75.468566 
L 344.225138 75.489635 
L 344.351561 76.474629 
L 344.604407 84.707494 
L 344.667619 83.201033 
L 344.730831 83.954263 
L 344.794042 85.307972 
L 344.857254 84.976129 
L 345.1101 87.673011 
L 345.173311 89.70094 
L 345.236523 87.809962 
L 345.299734 88.594797 
L 345.552581 88.505252 
L 345.615792 88.378836 
L 345.995062 90.828153 
L 346.121485 87.035662 
L 346.184696 84.839178 
L 346.374331 85.397517 
L 346.437542 86.019064 
L 346.500754 85.508131 
L 346.563966 86.22449 
L 346.816812 86.087539 
L 346.943235 88.220815 
L 347.006446 88.15234 
L 347.069658 88.015389 
L 347.259293 89.337493 
L 347.322504 92.624318 
L 347.385716 92.076514 
L 347.512139 91.512908 
L 347.701774 92.276673 
L 347.764985 92.029108 
L 347.95462 88.879234 
L 348.144254 88.478915 
L 348.207466 86.493125 
L 348.270678 87.151544 
L 348.333889 87.288495 
L 348.397101 86.493125 
L 348.713158 87.430713 
L 348.839582 85.687221 
L 349.218851 83.812045 
L 349.282062 84.301908 
L 349.534909 83.754104 
L 349.59812 84.507335 
L 349.661332 84.217631 
L 349.724543 84.196561 
L 350.167024 80.52522 
L 350.356659 81.315322 
L 350.41987 81.115163 
L 350.483082 80.825459 
L 350.546294 82.500475 
L 350.609505 82.405663 
L 350.79914 81.884196 
L 350.988774 80.94134 
L 351.241621 80.114367 
L 351.304832 80.351397 
L 351.368044 81.573422 
L 351.431255 81.183638 
L 351.494467 81.19944 
L 351.684102 80.835993 
L 351.747313 81.130965 
L 351.873736 80.082763 
L 352.253006 80.003752 
L 352.316217 80.498883 
L 352.379429 80.030089 
L 352.569063 80.303991 
L 352.632275 80.209179 
L 352.695486 79.740385 
L 352.758698 79.961614 
L 352.82191 80.082763 
L 353.011544 80.00902 
L 353.074756 79.461215 
L 353.137967 79.477017 
L 353.201179 79.993218 
L 353.26439 79.977416 
L 353.517237 80.040624 
L 353.580448 79.761454 
L 353.64366 80.188109 
L 353.706871 79.998485 
L 354.022929 79.013491 
L 354.086141 79.05563 
L 354.149352 79.419077 
L 354.338987 79.108303 
L 354.402198 79.366403 
L 354.46541 78.87654 
L 354.528621 79.124105 
L 354.591833 79.208383 
L 354.844679 78.860738 
L 354.907891 78.908144 
L 355.034314 79.445413 
L 355.28716 78.650044 
L 355.350372 78.765925 
L 355.476795 79.076699 
L 355.729641 78.79753 
L 355.919276 80.335595 
L 356.172122 81.852591 
L 356.235333 81.320589 
L 356.298545 81.705106 
L 356.361757 81.826255 
L 356.551391 81.942136 
L 356.741026 79.998485 
L 356.804237 80.077495 
L 356.993872 80.978212 
L 357.057084 80.830726 
L 357.246718 80.725379 
L 357.436353 80.456744 
L 357.562776 81.236312 
L 357.625988 81.246846 
L 357.689199 82.121226 
L 358.068469 79.977416 
L 358.13168 80.235516 
L 358.321315 80.830726 
L 358.447738 79.98795 
L 358.510949 80.072228 
L 358.763796 80.356665 
L 358.827007 80.072228 
L 358.890219 80.825459 
L 358.95343 80.440942 
L 359.206277 81.494412 
L 359.269488 81.104628 
L 359.459123 83.074616 
L 359.711969 81.889463 
L 359.775181 81.088826 
L 359.838392 81.246846 
L 359.901604 82.026414 
L 360.217661 79.735118 
L 360.344085 80.272387 
L 360.660142 79.450681 
L 360.723354 79.524424 
L 361.102623 77.201523 
L 361.481893 77.828338 
L 361.671527 76.864413 
L 361.924373 77.080374 
L 361.987585 77.069839 
L 362.050797 76.337678 
L 362.114008 76.485164 
L 362.303643 76.316609 
L 362.556489 75.278941 
L 362.809335 76.427223 
L 362.935758 75.789874 
L 363.188605 76.01637 
L 363.378239 75.521239 
L 363.631085 75.895221 
L 363.82072 74.162263 
L 363.883932 73.31422 
L 364.073566 73.488043 
L 364.136778 73.003447 
L 364.199989 73.277349 
L 364.263201 73.087724 
L 364.326412 73.783014 
L 364.705682 73.256279 
L 364.768893 73.619726 
L 365.02174 73.356359 
L 365.148163 73.556518 
L 365.211374 73.372161 
L 365.401009 73.124596 
L 365.653855 71.549659 
L 366.412394 68.915985 
L 366.475605 69.131946 
L 366.538817 69.669215 
L 366.854875 67.493801 
L 366.918086 67.578078 
L 367.234144 69.77983 
L 367.360567 67.651821 
L 367.423779 66.271776 
L 367.676625 67.240968 
L 367.739836 67.040809 
L 367.803048 66.129558 
L 367.86626 66.345519 
L 368.055894 66.524609 
L 368.182317 66.988135 
L 368.245529 69.474324 
L 368.30874 68.815905 
L 368.498375 68.768499 
L 368.561587 70.785893 
L 368.624798 68.879113 
L 368.68801 70.174881 
L 368.751221 68.794836 
L 368.940856 68.578874 
L 369.067279 69.337373 
L 369.130491 68.642083 
L 369.383337 70.069534 
L 369.572972 69.516462 
L 369.636183 69.648146 
L 369.889029 69.268897 
L 370.015452 67.546474 
L 370.078664 67.636019 
L 370.268299 67.488533 
L 370.394722 68.399785 
L 370.457933 68.357646 
L 370.521145 67.983664 
L 370.71078 68.225962 
L 370.900414 66.693164 
L 370.963626 67.383186 
L 371.15326 67.219899 
L 371.279684 66.48247 
L 371.342895 66.940729 
L 371.406107 66.84065 
L 371.595741 66.81958 
L 371.658953 66.698431 
L 371.722164 66.292845 
L 371.785376 67.488533 
L 371.848588 66.614154 
L 372.038222 66.219102 
L 372.164645 67.69396 
L 372.227857 68.510399 
L 372.480703 66.745837 
L 372.607126 66.529876 
L 372.733549 66.129558 
L 372.986395 65.802982 
L 373.17603 64.939137 
L 373.365665 65.149831 
L 373.555299 64.607294 
L 373.808146 64.428204 
L 373.934569 63.6223 
L 373.99778 64.312322 
L 374.060992 64.085827 
L 374.503473 62.679445 
L 374.693107 63.469547 
L 374.756319 63.427408 
L 374.945954 62.684712 
L 375.262011 64.127965 
L 375.325223 63.764518 
L 375.388435 63.011288 
L 375.578069 63.216714 
L 375.641281 62.516157 
L 376.02055 66.66156 
L 376.083762 66.277043 
L 376.273396 63.775053 
L 376.589454 63.437943 
L 376.715877 62.600434 
L 377.031935 65.734506 
L 377.095147 65.255178 
L 377.347993 66.440331 
L 377.474416 65.176168 
L 377.537627 65.244643 
L 377.790474 66.192766 
L 377.916897 66.866986 
L 378.04332 68.473527 
L 378.485801 64.512482 
L 378.675435 64.1385 
L 378.738647 64.359729 
L 378.801859 65.097157 
L 378.86507 64.338659 
L 378.928282 64.559888 
L 379.181128 65.044484 
L 379.244339 64.565155 
L 379.307551 65.1709 
L 379.370763 64.3966 
L 379.623609 64.03842 
L 379.750032 62.948079 
L 380.002878 63.869865 
L 380.06609 63.638102 
L 380.255724 61.673381 
L 380.445359 60.914883 
L 380.634994 61.446885 
L 380.951051 59.318877 
L 381.014263 60.098444 
L 381.077475 59.640185 
L 381.330321 58.744736 
L 381.393532 58.865885 
L 381.456744 58.992301 
L 381.583167 58.107386 
L 381.772802 58.386556 
L 381.899225 57.601721 
L 381.962436 58.23907 
L 382.025648 57.754474 
L 382.278494 57.296215 
L 382.404917 58.391823 
L 382.720975 58.181129 
L 382.847398 60.382881 
L 382.91061 59.224064 
L 383.100244 58.860617 
L 383.163456 58.149525 
L 383.226667 59.276738 
L 383.289879 59.155589 
L 383.35309 59.524303 
L 383.542725 59.587511 
L 383.605937 59.387352 
L 383.795571 61.251993 
L 383.985206 60.825338 
L 384.048418 59.45056 
L 384.111629 59.482164 
L 384.238052 64.501947 
L 384.427687 64.122698 
L 384.55411 66.529876 
L 384.617322 66.108488 
L 384.680533 65.997874 
L 384.996591 62.869069 
L 385.059802 63.606498 
L 385.123014 63.221981 
L 385.37586 63.985747 
L 385.439072 63.890935 
L 385.502283 63.290457 
L 385.75513 65.134029 
L 385.944764 62.326532 
L 386.387245 61.025497 
L 386.450457 61.836669 
L 386.703303 60.667318 
L 386.829726 59.619115 
L 386.892938 59.745532 
L 387.082572 60.209058 
L 387.208995 58.207466 
L 387.272207 58.312813 
L 387.335418 57.475305 
L 387.651476 56.221676 
L 387.714688 56.25328 
L 387.967534 57.36469 
L 388.093957 55.421039 
L 388.157169 55.747615 
L 388.410015 54.76262 
L 388.473226 55.842427 
L 388.536438 55.679139 
L 388.662861 53.677547 
L 388.852496 53.983053 
L 388.915707 54.989116 
L 388.978919 54.583531 
L 389.04213 54.657274 
L 389.105342 53.061267 
L 389.294977 51.986728 
L 389.358188 53.672279 
L 389.4214 52.866375 
L 389.484611 53.835567 
L 389.547823 53.535328 
L 390.179938 49.611154 
L 390.685631 35.394582 
L 390.812054 45.218186 
L 390.875266 43.458892 
L 391.0649 46.498151 
L 391.191323 51.175556 
L 391.317746 45.955615 
L 391.633804 38.75515 
L 391.697016 40.108858 
L 391.760227 39.255548 
L 392.013073 44.744125 
L 392.076285 43.048038 
L 392.202708 47.820256 
L 392.392343 46.166308 
L 392.455554 46.635102 
L 392.581977 49.827115 
L 392.645189 48.668299 
L 392.834824 50.933258 
L 393.024458 43.969824 
L 393.277305 43.200792 
L 393.403728 46.550825 
L 393.466939 45.744921 
L 393.719785 48.910597 
L 393.972632 45.212919 
L 394.162266 46.139972 
L 394.225478 47.51475 
L 394.415113 43.606377 
L 394.667959 48.836854 
L 394.857593 44.048835 
L 395.047228 42.631918 
L 395.173651 45.334068 
L 395.300074 43.5221 
L 395.616132 42.742532 
L 395.742555 39.898164 
L 395.995401 38.101999 
L 396.058613 41.552112 
L 396.121825 40.856822 
L 396.185036 39.745411 
L 396.374671 39.856026 
L 396.437882 39.297687 
L 396.501094 37.712215 
L 396.564305 37.98085 
L 396.627517 38.539189 
L 396.817152 38.402237 
L 396.943575 40.38276 
L 397.006786 39.698005 
L 397.069998 43.221861 
L 397.322844 42.415957 
L 397.449267 44.838937 
L 397.512479 43.221861 
L 397.702113 42.184193 
L 397.765325 40.66193 
L 397.828537 41.567914 
L 397.95496 44.006696 
L 398.271017 49.769175 
L 398.397441 46.434943 
L 398.587075 46.392804 
L 398.650287 50.401256 
L 398.713498 50.359118 
L 398.77671 50.606683 
L 399.092768 46.261121 
L 399.155979 46.487617 
L 399.282402 48.44707 
L 399.472037 47.419937 
L 399.535249 47.814988 
L 399.724883 44.860006 
L 400.104153 53.229822 
L 400.356999 51.897183 
L 400.42021 52.076273 
L 400.546633 50.343315 
L 400.609845 51.107081 
L 400.862691 54.16741 
L 400.925903 53.477388 
L 401.052326 51.860312 
L 401.24196 51.986728 
L 401.368384 49.490005 
L 401.431595 50.480267 
L 401.684441 47.451541 
L 401.874076 54.156875 
L 401.937288 53.809231 
L 402.190134 53.90931 
L 402.253345 56.453439 
L 402.316557 55.847694 
L 402.379768 53.904043 
L 402.569403 53.29303 
L 402.632615 53.73022 
L 402.695826 53.240357 
L 402.759038 54.957512 
L 402.822249 54.688878 
L 403.011884 54.3465 
L 403.138307 55.489515 
L 403.201519 55.157672 
L 403.26473 57.427899 
L 403.454365 58.528774 
L 403.580788 55.758149 
L 403.644 56.195339 
L 403.707211 56.474509 
L 403.896846 56.000447 
L 404.149692 51.22823 
L 404.339327 52.139481 
L 404.46575 54.109469 
L 404.528961 52.992792 
L 404.592173 54.541392 
L 404.781808 54.546659 
L 404.845019 55.384168 
L 405.034654 53.556398 
L 405.224288 53.682814 
L 405.2875 53.545863 
L 405.413923 51.733895 
L 405.477135 52.36071 
L 405.729981 52.950653 
L 405.793192 52.155283 
L 405.856404 52.940118 
L 405.919616 50.885852 
L 406.10925 51.22823 
L 406.235673 54.004122 
L 406.298885 53.466853 
L 406.362096 52.244828 
L 406.741366 55.515851 
L 406.804577 56.653598 
L 406.994212 56.743143 
L 407.057424 56.263815 
L 407.247058 58.75527 
L 407.499904 59.071311 
L 407.626328 57.043382 
L 408.13202 62.721583 
L 408.321655 61.726055 
L 408.448078 59.245134 
L 408.574501 61.172983 
L 408.827347 60.672585 
L 409.016982 58.602517 
L 409.269828 58.386556 
L 409.396251 59.476897 
L 409.459463 57.554315 
L 409.712309 59.561175 
L 409.77552 61.805065 
L 409.838732 61.35734 
L 409.901944 61.420548 
L 410.15479 60.614644 
L 410.344424 57.886158 
L 410.597271 57.549048 
L 410.660482 58.044178 
L 410.786905 56.648331 
L 410.97654 56.35336 
L 411.102963 57.443701 
L 411.166175 56.732609 
L 411.229386 57.159264 
L 411.608655 59.524303 
L 411.671867 60.698922 
L 411.861502 60.14585 
L 411.987925 57.986237 
L 412.051136 58.297011 
L 412.114348 57.301482 
L 412.303983 57.185601 
L 412.556829 59.087113 
L 412.809675 59.060776 
L 412.872887 60.351277 
L 412.936098 59.503234 
L 412.99931 59.002836 
L 413.188944 59.376817 
L 413.441791 57.596454 
L 413.631425 57.412097 
L 413.82106 59.829809 
L 413.884271 59.202995 
L 414.073906 60.261732 
L 414.326752 64.370263 
L 414.516387 63.938341 
L 414.64281 62.41081 
L 414.706022 62.821663 
L 414.769233 63.306259 
L 415.022079 61.37841 
L 415.085291 61.573302 
L 415.590983 57.970435 
L 415.84383 58.465566 
L 415.970253 56.806352 
L 416.033464 57.459503 
L 416.096676 57.343621 
L 416.412734 59.023905 
L 416.475945 60.087909 
L 416.539157 59.792938 
L 416.728791 59.229332 
L 416.855215 61.884075 
L 416.918426 61.525895 
L 416.981638 60.909616 
L 417.171272 61.030765 
L 417.297695 64.707374 
L 417.360907 64.617829 
L 417.424119 63.142971 
L 417.676965 62.015759 
L 417.866599 63.738182 
L 418.056234 63.179843 
L 418.119446 63.348398 
L 418.182657 62.268591 
L 418.245869 62.848 
L 418.30908 62.995485 
L 418.498715 62.779524 
L 418.625138 61.531163 
L 418.68835 62.637306 
L 418.751561 62.273859 
L 419.067619 64.533551 
L 419.194042 62.705781 
L 419.383677 62.400275 
L 419.446888 62.621504 
L 419.5101 62.273859 
L 419.826158 64.965474 
L 420.015792 62.948079 
L 420.079004 62.452949 
L 420.33185 62.82693 
L 420.395062 62.184314 
L 420.521485 63.906737 
L 420.711119 63.732914 
L 420.774331 64.744245 
L 420.963966 63.353665 
L 421.1536 63.485349 
L 421.406446 61.473222 
L 421.596081 61.884075 
L 421.785716 59.950958 
L 421.848927 60.735793 
L 422.038562 61.45742 
L 422.101774 60.86221 
L 422.164985 60.951754 
L 422.228197 60.856942 
L 422.291408 60.103711 
L 422.733889 58.038911 
L 422.923524 57.738672 
L 423.049947 58.981766 
L 423.17637 57.380492 
L 423.366005 57.854554 
L 423.492428 56.69047 
L 423.555639 57.296215 
L 423.618851 57.080254 
L 423.808486 57.396295 
L 423.934909 58.850083 
L 423.99812 58.49717 
L 424.061332 58.138991 
L 424.250966 58.31808 
L 424.37739 58.976499 
L 424.440601 58.897489 
L 424.503813 58.307546 
L 424.693447 58.33915 
L 424.946294 56.163735 
L 425.262351 55.083929 
L 425.325563 55.442108 
L 425.388774 55.057592 
L 425.578409 55.062859 
L 425.831255 53.329902 
L 426.02089 53.066534 
L 426.084102 53.113941 
L 426.273736 53.677547 
L 426.463371 53.667012 
L 426.526582 53.3141 
L 426.589794 51.949857 
L 426.653006 52.566136 
L 426.716217 52.603008 
L 427.095486 58.523507 
L 427.158698 58.254872 
L 427.348333 56.374429 
L 427.411544 56.637796 
L 427.474756 57.601721 
L 427.537967 57.506909 
L 427.601179 54.931176 
L 427.790814 55.584327 
L 427.854025 55.452643 
L 427.980448 54.146341 
L 428.04366 54.262222 
L 428.296506 56.416568 
L 428.359718 55.331494 
L 428.422929 56.490311 
L 428.486141 55.147137 
L 428.802198 58.228536 
L 428.86541 57.059184 
L 428.928621 58.091584 
L 429.118256 57.938831 
L 429.244679 60.909616 
L 429.307891 60.66205 
L 429.371102 59.914087 
L 429.560737 59.339946 
L 429.623949 59.366283 
L 429.68716 60.045771 
L 429.750372 62.026293 
L 429.813583 60.346009 
L 430.066429 59.376817 
L 430.445699 60.677852 
L 430.572122 59.03444 
L 430.635333 59.176658 
L 430.698545 61.257261 
L 430.88818 61.704985 
L 430.951391 62.142175 
L 431.077814 63.80139 
L 431.141026 62.858534 
L 431.330661 62.758455 
L 431.393872 64.228045 
L 431.457084 63.690775 
L 431.520295 62.452949 
L 431.583507 62.484553 
L 432.278834 60.103711 
L 432.468469 62.226453 
L 432.721315 62.832198 
L 432.784526 61.589104 
L 432.847738 61.936749 
L 432.910949 61.320469 
L 433.100584 62.711049 
L 433.163796 61.936749 
L 433.227007 62.352869 
L 433.35343 61.568034 
L 433.606277 61.568034 
L 433.669488 61.783995 
L 433.7327 61.141379 
L 433.795911 61.425816 
L 433.985546 60.635714 
L 434.048757 60.904348 
L 434.111969 60.646248 
L 434.238392 58.797409 
L 434.428027 59.403154 
L 434.491238 59.155589 
L 434.617661 61.352073 
L 434.680873 62.0737 
L 434.933719 61.410014 
L 434.996931 61.083438 
L 435.123354 59.513768 
L 435.312989 59.613848 
L 435.3762 59.208262 
L 435.439412 59.824542 
L 435.565835 58.839548 
L 435.818681 59.434758 
L 435.945104 58.734201 
L 436.008316 59.814007 
L 436.19795 59.334679 
L 436.324373 58.728934 
L 436.450797 58.797409 
L 436.640431 59.19246 
L 436.703643 59.592779 
L 436.830066 59.108183 
L 436.893277 59.571709 
L 437.082912 59.503234 
L 437.146124 59.655987 
L 437.272547 57.812415 
L 437.335758 57.854554 
L 437.588605 56.780015 
L 437.778239 57.807148 
L 437.967874 57.111858 
L 438.094297 57.459503 
L 438.157508 56.727341 
L 438.410355 56.758945 
L 438.663201 54.78369 
L 438.852836 55.19981 
L 438.916047 55.705476 
L 438.979259 55.147137 
L 439.04247 55.536921 
L 439.105682 55.162939 
L 439.358528 55.389435 
L 439.484951 56.922233 
L 439.548163 56.827421 
L 439.737797 56.980174 
L 439.927432 55.921437 
L 439.990644 55.663337 
L 440.24349 56.527182 
L 440.306701 58.85535 
L 440.369913 58.734201 
L 440.433124 59.108183 
L 440.812394 58.623587 
L 440.875605 59.197728 
L 441.06524 58.897489 
L 441.128452 59.413689 
L 441.191663 59.218797 
L 441.318086 58.570913 
L 441.507721 58.713132 
L 441.697356 59.950958 
L 442.013413 58.444497 
L 442.076625 58.771072 
L 442.203048 59.814007 
L 442.455894 61.97362 
L 442.835164 59.80874 
L 443.024798 59.218797 
L 443.08801 59.287272 
L 443.467279 57.659662 
L 443.530491 57.907227 
L 443.720125 57.501641 
L 443.783337 58.028376 
L 443.846548 57.90196 
L 443.972972 57.290948 
L 444.162606 57.190868 
L 444.225818 57.380492 
L 444.289029 56.801084 
L 444.668299 58.212733 
L 444.73151 57.991505 
L 444.794722 57.82295 
L 444.857933 58.017842 
L 445.047568 58.112654 
L 445.11078 58.702597 
L 445.237203 57.975703 
L 445.300414 59.282005 
L 445.490049 59.403154 
L 445.55326 60.135315 
L 445.616472 59.766601 
L 445.679684 59.418956 
L 445.742895 60.072107 
L 445.995741 61.388944 
L 446.058953 60.288069 
L 446.122164 60.92015 
L 446.185376 62.347602 
L 446.375011 62.616236 
L 446.438222 62.521424 
L 446.627857 60.846407 
L 446.817492 59.455828 
L 446.943915 60.793734 
L 447.007126 60.119513 
L 447.259972 61.899877 
L 447.386395 62.74792 
L 447.702453 59.914087 
L 447.828876 61.37841 
L 447.892088 60.698922 
L 448.39778 65.376327 
L 448.587415 64.965474 
L 448.650627 66.361321 
L 448.713838 65.613357 
L 448.77705 64.896998 
L 448.840261 65.086623 
L 449.093107 63.985747 
L 449.156319 64.012084 
L 449.219531 63.3642 
L 449.282742 63.569626 
L 449.472377 63.8804 
L 449.535588 63.211447 
L 449.662011 65.09189 
L 449.725223 64.891731 
L 449.914858 65.002345 
L 450.167704 61.694451 
L 450.357339 60.177454 
L 450.483762 62.468751 
L 450.546973 60.983359 
L 450.610185 61.172983 
L 450.799819 62.005224 
L 450.926243 63.711845 
L 450.989454 63.590696 
L 451.052666 64.322857 
L 451.2423 63.674973 
L 451.305512 62.753187 
L 451.368723 63.322061 
L 451.431935 63.627567 
L 451.495147 62.74792 
L 451.747993 65.344723 
L 451.874416 64.270184 
L 451.937627 64.301788 
L 452.190474 63.021822 
L 452.253685 63.34313 
L 452.316897 62.969149 
L 452.380108 63.896202 
L 452.569743 64.970741 
L 452.632955 64.939137 
L 452.759378 64.586225 
L 452.822589 65.386861 
L 453.075435 64.191173 
L 453.138647 64.454541 
L 453.26507 63.211447 
L 453.581128 64.444006 
L 453.707551 64.386065 
L 453.897186 64.970741 
L 453.960397 64.027886 
L 454.023609 64.717908 
L 454.08682 64.83379 
L 454.150032 65.344723 
L 454.402878 64.781116 
L 454.592513 63.569626 
L 454.782147 63.875133 
L 454.971782 64.417669 
L 455.034994 64.386065 
L 455.224628 64.549353 
L 455.28784 64.048955 
L 455.414263 64.21751 
L 455.477475 63.738182 
L 455.730321 63.490616 
L 455.919955 62.505622 
L 456.10959 62.616236 
L 456.172802 62.221185 
L 456.236013 62.689979 
L 456.299225 62.289661 
L 456.362436 60.793734 
L 456.552071 60.135315 
L 456.615282 60.709456 
L 456.678494 59.598046 
L 456.741706 59.98783 
L 457.184186 61.568034 
L 457.247398 61.45742 
L 457.437033 62.205383 
L 457.500244 61.989422 
L 457.563456 62.468751 
L 457.626667 62.315998 
L 457.689879 62.373938 
L 457.879514 62.795326 
L 457.942725 62.66891 
L 458.069148 63.674973 
L 458.321994 62.842732 
L 458.385206 62.247522 
L 458.574841 63.437943 
L 458.890898 62.753187 
L 458.95411 62.521424 
L 459.017322 63.601231 
L 459.206956 63.416873 
L 459.333379 64.602027 
L 459.396591 63.806657 
L 459.396591 63.806657 
" clip-path="url(#p2e7cf88d11)" style="fill: none; stroke: #607d8b; stroke-width: 0.7; stroke-linecap: square"/>
   </g>
   <g id="line2d_28">
    <path d="M 53.578409 55.34952 
L 62.111969 55.612551 
L 69.570932 55.831283 
L 78.041281 56.091546 
L 85.500244 56.310277 
L 92.579938 56.515165 
L 100.418171 56.711747 
L 108.572462 56.958166 
L 116.031425 57.176898 
L 124.059293 57.417779 
L 131.075775 57.630973 
L 138.661162 57.855242 
L 146.499395 58.079511 
L 153.705512 58.284399 
L 161.101264 58.503131 
L 169.192343 58.74955 
L 177.409845 58.979356 
L 184.679174 59.187013 
L 192.074926 59.405745 
L 199.597101 59.624476 
L 214.641451 60.064708 
L 223.175011 60.32774 
L 230.570763 60.546471 
L 238.661842 60.79289 
L 245.551901 61.003316 
L 253.200499 61.230354 
L 258.889539 61.402016 
L 266.980618 61.648436 
L 274.755639 61.872705 
L 282.90993 62.121892 
L 289.799989 62.332318 
L 297.511799 62.562124 
L 304.528282 62.775318 
L 312.99863 63.035581 
L 320.773651 63.25985 
L 328.927942 63.509038 
L 335.818001 63.719464 
L 343.529811 63.94927 
L 350.546294 64.162464 
L 359.016642 64.422727 
L 366.475605 64.641459 
L 374.945954 64.901722 
L 380.634994 65.073384 
L 388.662861 65.317035 
L 395.679344 65.530229 
L 403.707211 65.77111 
L 411.102963 65.989842 
L 419.194042 66.236261 
L 426.463371 66.452224 
L 434.680873 66.704181 
L 441.697356 66.917375 
L 449.725223 67.158256 
L 457.120975 67.376988 
L 459.396591 67.448976 
L 459.396591 67.448976 
" clip-path="url(#p2e7cf88d11)" style="fill: none; stroke: #ffa500; stroke-width: 0.7; stroke-linecap: square"/>
   </g>
   <g id="text_15">
    <!-- Regresso Linear -->
    <g transform="translate(204.91 16.5225) scale(0.12 -0.12)">
     <defs>
      <path id="DejaVuSans-52" d="M 2841 2188 
Q 3044 2119 3236 1894 
Q 3428 1669 3622 1275 
L 4263 0 
L 3584 0 
L 2988 1197 
Q 2756 1666 2539 1819 
Q 2322 1972 1947 1972 
L 1259 1972 
L 1259 0 
L 628 0 
L 628 4666 
L 2053 4666 
Q 2853 4666 3247 4331 
Q 3641 3997 3641 3322 
Q 3641 2881 3436 2590 
Q 3231 2300 2841 2188 
z
M 1259 4147 
L 1259 2491 
L 2053 2491 
Q 2509 2491 2742 2702 
Q 2975 2913 2975 3322 
Q 2975 3731 2742 3939 
Q 2509 4147 2053 4147 
L 1259 4147 
z
" transform="scale(0.015625)"/>
      <path id="DejaVuSans-67" d="M 2906 1791 
Q 2906 2416 2648 2759 
Q 2391 3103 1925 3103 
Q 1463 3103 1205 2759 
Q 947 2416 947 1791 
Q 947 1169 1205 825 
Q 1463 481 1925 481 
Q 2391 481 2648 825 
Q 2906 1169 2906 1791 
z
M 3481 434 
Q 3481 -459 3084 -895 
Q 2688 -1331 1869 -1331 
Q 1566 -1331 1297 -1286 
Q 1028 -1241 775 -1147 
L 775 -588 
Q 1028 -725 1275 -790 
Q 1522 -856 1778 -856 
Q 2344 -856 2625 -561 
Q 2906 -266 2906 331 
L 2906 616 
Q 2728 306 2450 153 
Q 2172 0 1784 0 
Q 1141 0 747 490 
Q 353 981 353 1791 
Q 353 2603 747 3093 
Q 1141 3584 1784 3584 
Q 2172 3584 2450 3431 
Q 2728 3278 2906 2969 
L 2906 3500 
L 3481 3500 
L 3481 434 
z
" transform="scale(0.015625)"/>
      <path id="DejaVuSans-72" d="M 2631 2963 
Q 2534 3019 2420 3045 
Q 2306 3072 2169 3072 
Q 1681 3072 1420 2755 
Q 1159 2438 1159 1844 
L 1159 0 
L 581 0 
L 581 3500 
L 1159 3500 
L 1159 2956 
Q 1341 3275 1631 3429 
Q 1922 3584 2338 3584 
Q 2397 3584 2469 3576 
Q 2541 3569 2628 3553 
L 2631 2963 
z
" transform="scale(0.015625)"/>
      <path id="DejaVuSans-73" d="M 2834 3397 
L 2834 2853 
Q 2591 2978 2328 3040 
Q 2066 3103 1784 3103 
Q 1356 3103 1142 2972 
Q 928 2841 928 2578 
Q 928 2378 1081 2264 
Q 1234 2150 1697 2047 
L 1894 2003 
Q 2506 1872 2764 1633 
Q 3022 1394 3022 966 
Q 3022 478 2636 193 
Q 2250 -91 1575 -91 
Q 1294 -91 989 -36 
Q 684 19 347 128 
L 347 722 
Q 666 556 975 473 
Q 1284 391 1588 391 
Q 1994 391 2212 530 
Q 2431 669 2431 922 
Q 2431 1156 2273 1281 
Q 2116 1406 1581 1522 
L 1381 1569 
Q 847 1681 609 1914 
Q 372 2147 372 2553 
Q 372 3047 722 3315 
Q 1072 3584 1716 3584 
Q 2034 3584 2315 3537 
Q 2597 3491 2834 3397 
z
" transform="scale(0.015625)"/>
      <path id="DejaVuSans-e3" d="M 2194 1759 
Q 1497 1759 1228 1600 
Q 959 1441 959 1056 
Q 959 750 1161 570 
Q 1363 391 1709 391 
Q 2188 391 2477 730 
Q 2766 1069 2766 1631 
L 2766 1759 
L 2194 1759 
z
M 3341 1997 
L 3341 0 
L 2766 0 
L 2766 531 
Q 2569 213 2275 61 
Q 1981 -91 1556 -91 
Q 1019 -91 701 211 
Q 384 513 384 1019 
Q 384 1609 779 1909 
Q 1175 2209 1959 2209 
L 2766 2209 
L 2766 2266 
Q 2766 2663 2505 2880 
Q 2244 3097 1772 3097 
Q 1472 3097 1187 3025 
Q 903 2953 641 2809 
L 641 3341 
Q 956 3463 1253 3523 
Q 1550 3584 1831 3584 
Q 2591 3584 2966 3190 
Q 3341 2797 3341 1997 
z
M 1844 4281 
L 1665 4453 
Q 1597 4516 1545 4545 
Q 1494 4575 1453 4575 
Q 1334 4575 1278 4461 
Q 1222 4347 1215 4091 
L 825 4091 
Q 831 4513 990 4742 
Q 1150 4972 1434 4972 
Q 1553 4972 1653 4928 
Q 1753 4884 1869 4781 
L 2047 4609 
Q 2115 4547 2167 4517 
Q 2219 4488 2259 4488 
Q 2378 4488 2434 4602 
Q 2490 4716 2497 4972 
L 2887 4972 
Q 2881 4550 2721 4320 
Q 2562 4091 2278 4091 
Q 2159 4091 2059 4134 
Q 1959 4178 1844 4281 
z
" transform="scale(0.015625)"/>
      <path id="DejaVuSans-6f" d="M 1959 3097 
Q 1497 3097 1228 2736 
Q 959 2375 959 1747 
Q 959 1119 1226 758 
Q 1494 397 1959 397 
Q 2419 397 2687 759 
Q 2956 1122 2956 1747 
Q 2956 2369 2687 2733 
Q 2419 3097 1959 3097 
z
M 1959 3584 
Q 2709 3584 3137 3096 
Q 3566 2609 3566 1747 
Q 3566 888 3137 398 
Q 2709 -91 1959 -91 
Q 1206 -91 779 398 
Q 353 888 353 1747 
Q 353 2609 779 3096 
Q 1206 3584 1959 3584 
z
" transform="scale(0.015625)"/>
      <path id="DejaVuSans-20" transform="scale(0.015625)"/>
      <path id="DejaVuSans-4c" d="M 628 4666 
L 1259 4666 
L 1259 531 
L 3531 531 
L 3531 0 
L 628 0 
L 628 4666 
z
" transform="scale(0.015625)"/>
      <path id="DejaVuSans-69" d="M 603 3500 
L 1178 3500 
L 1178 0 
L 603 0 
L 603 3500 
z
M 603 4863 
L 1178 4863 
L 1178 4134 
L 603 4134 
L 603 4863 
z
" transform="scale(0.015625)"/>
      <path id="DejaVuSans-6e" d="M 3513 2113 
L 3513 0 
L 2938 0 
L 2938 2094 
Q 2938 2591 2744 2837 
Q 2550 3084 2163 3084 
Q 1697 3084 1428 2787 
Q 1159 2491 1159 1978 
L 1159 0 
L 581 0 
L 581 3500 
L 1159 3500 
L 1159 2956 
Q 1366 3272 1645 3428 
Q 1925 3584 2291 3584 
Q 2894 3584 3203 3211 
Q 3513 2838 3513 2113 
z
" transform="scale(0.015625)"/>
     </defs>
     <use xlink:href="#DejaVuSans-52"/>
     <use xlink:href="#DejaVuSans-65" transform="translate(64.982422 0)"/>
     <use xlink:href="#DejaVuSans-67" transform="translate(126.505859 0)"/>
     <use xlink:href="#DejaVuSans-72" transform="translate(189.982422 0)"/>
     <use xlink:href="#DejaVuSans-65" transform="translate(228.845703 0)"/>
     <use xlink:href="#DejaVuSans-73" transform="translate(290.369141 0)"/>
     <use xlink:href="#DejaVuSans-73" transform="translate(342.46875 0)"/>
     <use xlink:href="#DejaVuSans-e3" transform="translate(394.568359 0)"/>
     <use xlink:href="#DejaVuSans-6f" transform="translate(455.847656 0)"/>
     <use xlink:href="#DejaVuSans-20" transform="translate(517.029297 0)"/>
     <use xlink:href="#DejaVuSans-4c" transform="translate(548.816406 0)"/>
     <use xlink:href="#DejaVuSans-69" transform="translate(604.529297 0)"/>
     <use xlink:href="#DejaVuSans-6e" transform="translate(632.3125 0)"/>
     <use xlink:href="#DejaVuSans-65" transform="translate(695.691406 0)"/>
     <use xlink:href="#DejaVuSans-61" transform="translate(757.214844 0)"/>
     <use xlink:href="#DejaVuSans-72" transform="translate(818.494141 0)"/>
    </g>
   </g>
   <g id="legend_1">
    <g id="patch_3">
     <path d="M 349.915625 60.156875 
L 472.6875 60.156875 
Q 474.6875 60.156875 474.6875 58.156875 
L 474.6875 29.5225 
Q 474.6875 27.5225 472.6875 27.5225 
L 349.915625 27.5225 
Q 347.915625 27.5225 347.915625 29.5225 
L 347.915625 58.156875 
Q 347.915625 60.156875 349.915625 60.156875 
z
" style="fill: #fdfefe; opacity: 0.8; stroke: #cccccc; stroke-linejoin: miter"/>
    </g>
    <g id="line2d_29">
     <path d="M 351.915625 35.620938 
L 361.915625 35.620938 
L 371.915625 35.620938 
" style="fill: none; stroke: #607d8b; stroke-width: 0.7; stroke-linecap: square"/>
    </g>
    <g id="text_16">
     <!-- fechamento -->
     <g transform="translate(379.915625 39.120938) scale(0.1 -0.1)">
      <defs>
       <path id="DejaVuSans-66" d="M 2375 4863 
L 2375 4384 
L 1825 4384 
Q 1516 4384 1395 4259 
Q 1275 4134 1275 3809 
L 1275 3500 
L 2222 3500 
L 2222 3053 
L 1275 3053 
L 1275 0 
L 697 0 
L 697 3053 
L 147 3053 
L 147 3500 
L 697 3500 
L 697 3744 
Q 697 4328 969 4595 
Q 1241 4863 1831 4863 
L 2375 4863 
z
" transform="scale(0.015625)"/>
       <path id="DejaVuSans-63" d="M 3122 3366 
L 3122 2828 
Q 2878 2963 2633 3030 
Q 2388 3097 2138 3097 
Q 1578 3097 1268 2742 
Q 959 2388 959 1747 
Q 959 1106 1268 751 
Q 1578 397 2138 397 
Q 2388 397 2633 464 
Q 2878 531 3122 666 
L 3122 134 
Q 2881 22 2623 -34 
Q 2366 -91 2075 -91 
Q 1284 -91 818 406 
Q 353 903 353 1747 
Q 353 2603 823 3093 
Q 1294 3584 2113 3584 
Q 2378 3584 2631 3529 
Q 2884 3475 3122 3366 
z
" transform="scale(0.015625)"/>
       <path id="DejaVuSans-68" d="M 3513 2113 
L 3513 0 
L 2938 0 
L 2938 2094 
Q 2938 2591 2744 2837 
Q 2550 3084 2163 3084 
Q 1697 3084 1428 2787 
Q 1159 2491 1159 1978 
L 1159 0 
L 581 0 
L 581 4863 
L 1159 4863 
L 1159 2956 
Q 1366 3272 1645 3428 
Q 1925 3584 2291 3584 
Q 2894 3584 3203 3211 
Q 3513 2838 3513 2113 
z
" transform="scale(0.015625)"/>
       <path id="DejaVuSans-6d" d="M 3328 2828 
Q 3544 3216 3844 3400 
Q 4144 3584 4550 3584 
Q 5097 3584 5394 3201 
Q 5691 2819 5691 2113 
L 5691 0 
L 5113 0 
L 5113 2094 
Q 5113 2597 4934 2840 
Q 4756 3084 4391 3084 
Q 3944 3084 3684 2787 
Q 3425 2491 3425 1978 
L 3425 0 
L 2847 0 
L 2847 2094 
Q 2847 2600 2669 2842 
Q 2491 3084 2119 3084 
Q 1678 3084 1418 2786 
Q 1159 2488 1159 1978 
L 1159 0 
L 581 0 
L 581 3500 
L 1159 3500 
L 1159 2956 
Q 1356 3278 1631 3431 
Q 1906 3584 2284 3584 
Q 2666 3584 2933 3390 
Q 3200 3197 3328 2828 
z
" transform="scale(0.015625)"/>
      </defs>
      <use xlink:href="#DejaVuSans-66"/>
      <use xlink:href="#DejaVuSans-65" transform="translate(35.205078 0)"/>
      <use xlink:href="#DejaVuSans-63" transform="translate(96.728516 0)"/>
      <use xlink:href="#DejaVuSans-68" transform="translate(151.708984 0)"/>
      <use xlink:href="#DejaVuSans-61" transform="translate(215.087891 0)"/>
      <use xlink:href="#DejaVuSans-6d" transform="translate(276.367188 0)"/>
      <use xlink:href="#DejaVuSans-65" transform="translate(373.779297 0)"/>
      <use xlink:href="#DejaVuSans-6e" transform="translate(435.302734 0)"/>
      <use xlink:href="#DejaVuSans-74" transform="translate(498.681641 0)"/>
      <use xlink:href="#DejaVuSans-6f" transform="translate(537.890625 0)"/>
     </g>
    </g>
    <g id="line2d_30">
     <path d="M 351.915625 50.299063 
L 361.915625 50.299063 
L 371.915625 50.299063 
" style="fill: none; stroke: #ffa500; stroke-width: 0.7; stroke-linecap: square"/>
    </g>
    <g id="text_17">
     <!-- Linear_Regression -->
     <g transform="translate(379.915625 53.799063) scale(0.1 -0.1)">
      <defs>
       <path id="DejaVuSans-5f" d="M 3263 -1063 
L 3263 -1509 
L -63 -1509 
L -63 -1063 
L 3263 -1063 
z
" transform="scale(0.015625)"/>
      </defs>
      <use xlink:href="#DejaVuSans-4c"/>
      <use xlink:href="#DejaVuSans-69" transform="translate(55.712891 0)"/>
      <use xlink:href="#DejaVuSans-6e" transform="translate(83.496094 0)"/>
      <use xlink:href="#DejaVuSans-65" transform="translate(146.875 0)"/>
      <use xlink:href="#DejaVuSans-61" transform="translate(208.398438 0)"/>
      <use xlink:href="#DejaVuSans-72" transform="translate(269.677734 0)"/>
      <use xlink:href="#DejaVuSans-5f" transform="translate(310.791016 0)"/>
      <use xlink:href="#DejaVuSans-52" transform="translate(360.791016 0)"/>
      <use xlink:href="#DejaVuSans-65" transform="translate(425.773438 0)"/>
      <use xlink:href="#DejaVuSans-67" transform="translate(487.296875 0)"/>
      <use xlink:href="#DejaVuSans-72" transform="translate(550.773438 0)"/>
      <use xlink:href="#DejaVuSans-65" transform="translate(589.636719 0)"/>
      <use xlink:href="#DejaVuSans-73" transform="translate(651.160156 0)"/>
      <use xlink:href="#DejaVuSans-73" transform="translate(703.259766 0)"/>
      <use xlink:href="#DejaVuSans-69" transform="translate(755.359375 0)"/>
      <use xlink:href="#DejaVuSans-6f" transform="translate(783.142578 0)"/>
      <use xlink:href="#DejaVuSans-6e" transform="translate(844.324219 0)"/>
     </g>
    </g>
   </g>
  </g>
 </g>
 <defs>
  <clipPath id="p2e7cf88d11">
   <rect x="33.2875" y="22.5225" width="446.4" height="73.44"/>
  </clipPath>
 </defs>
</svg>
