<?xml version="1.0" encoding="utf-8" standalone="no"?>
<!DOCTYPE svg PUBLIC "-//W3C//DTD SVG 1.1//EN"
  "http://www.w3.org/Graphics/SVG/1.1/DTD/svg11.dtd">
<svg xmlns:xlink="http://www.w3.org/1999/xlink" width="1281.765625pt" height="281.634375pt" viewBox="0 0 1281.765625 281.634375" xmlns="http://www.w3.org/2000/svg" version="1.1">
 <metadata>
  <rdf:RDF xmlns:dc="http://purl.org/dc/elements/1.1/" xmlns:cc="http://creativecommons.org/ns#" xmlns:rdf="http://www.w3.org/1999/02/22-rdf-syntax-ns#">
   <cc:Work>
    <dc:type rdf:resource="http://purl.org/dc/dcmitype/StillImage"/>
    <dc:date>2025-03-03T23:22:01.977319</dc:date>
    <dc:format>image/svg+xml</dc:format>
    <dc:creator>
     <cc:Agent>
      <dc:title>Matplotlib v3.10.0, https://matplotlib.org/</dc:title>
     </cc:Agent>
    </dc:creator>
   </cc:Work>
  </rdf:RDF>
 </metadata>
 <defs>
  <style type="text/css">*{stroke-linejoin: round; stroke-linecap: butt}</style>
 </defs>
 <g id="figure_1">
  <g id="patch_1">
   <path d="M 0 281.634375 
L 1281.765625 281.634375 
L 1281.765625 0 
L 0 0 
z
" style="fill: #ffffff"/>
  </g>
  <g id="axes_1">
   <g id="patch_2">
    <path d="M 46.965625 244.078125 
L 1274.565625 244.078125 
L 1274.565625 22.318125 
L 46.965625 22.318125 
z
" style="fill: #fdfefe"/>
   </g>
   <g id="matplotlib.axis_1">
    <g id="xtick_1">
     <g id="line2d_1">
      <path d="M 114.488314 244.078125 
L 114.488314 22.318125 
" clip-path="url(#pfa1e1d0472)" style="fill: none; stroke-dasharray: 1.85,0.8; stroke-dashoffset: 0; stroke: #d3d3d3; stroke-width: 0.5"/>
     </g>
     <g id="line2d_2">
      <defs>
       <path id="m7b7bddf41f" d="M 0 0 
L 0 3.5 
" style="stroke: #000000; stroke-width: 0.8"/>
      </defs>
      <g>
       <use xlink:href="#m7b7bddf41f" x="114.488314" y="244.078125" style="stroke: #000000; stroke-width: 0.8"/>
      </g>
     </g>
     <g id="text_1">
      <!-- 2020 -->
      <g transform="translate(101.763314 258.676562) scale(0.1 -0.1)">
       <defs>
        <path id="DejaVuSans-32" d="M 1228 531 
L 3431 531 
L 3431 0 
L 469 0 
L 469 531 
Q 828 903 1448 1529 
Q 2069 2156 2228 2338 
Q 2531 2678 2651 2914 
Q 2772 3150 2772 3378 
Q 2772 3750 2511 3984 
Q 2250 4219 1831 4219 
Q 1534 4219 1204 4116 
Q 875 4013 500 3803 
L 500 4441 
Q 881 4594 1212 4672 
Q 1544 4750 1819 4750 
Q 2544 4750 2975 4387 
Q 3406 4025 3406 3419 
Q 3406 3131 3298 2873 
Q 3191 2616 2906 2266 
Q 2828 2175 2409 1742 
Q 1991 1309 1228 531 
z
" transform="scale(0.015625)"/>
        <path id="DejaVuSans-30" d="M 2034 4250 
Q 1547 4250 1301 3770 
Q 1056 3291 1056 2328 
Q 1056 1369 1301 889 
Q 1547 409 2034 409 
Q 2525 409 2770 889 
Q 3016 1369 3016 2328 
Q 3016 3291 2770 3770 
Q 2525 4250 2034 4250 
z
M 2034 4750 
Q 2819 4750 3233 4129 
Q 3647 3509 3647 2328 
Q 3647 1150 3233 529 
Q 2819 -91 2034 -91 
Q 1250 -91 836 529 
Q 422 1150 422 2328 
Q 422 3509 836 4129 
Q 1250 4750 2034 4750 
z
" transform="scale(0.015625)"/>
       </defs>
       <use xlink:href="#DejaVuSans-32"/>
       <use xlink:href="#DejaVuSans-30" transform="translate(63.623047 0)"/>
       <use xlink:href="#DejaVuSans-32" transform="translate(127.246094 0)"/>
       <use xlink:href="#DejaVuSans-30" transform="translate(190.869141 0)"/>
      </g>
     </g>
    </g>
    <g id="xtick_2">
     <g id="line2d_3">
      <path d="M 329.013524 244.078125 
L 329.013524 22.318125 
" clip-path="url(#pfa1e1d0472)" style="fill: none; stroke-dasharray: 1.85,0.8; stroke-dashoffset: 0; stroke: #d3d3d3; stroke-width: 0.5"/>
     </g>
     <g id="line2d_4">
      <g>
       <use xlink:href="#m7b7bddf41f" x="329.013524" y="244.078125" style="stroke: #000000; stroke-width: 0.8"/>
      </g>
     </g>
     <g id="text_2">
      <!-- 2021 -->
      <g transform="translate(316.288524 258.676562) scale(0.1 -0.1)">
       <defs>
        <path id="DejaVuSans-31" d="M 794 531 
L 1825 531 
L 1825 4091 
L 703 3866 
L 703 4441 
L 1819 4666 
L 2450 4666 
L 2450 531 
L 3481 531 
L 3481 0 
L 794 0 
L 794 531 
z
" transform="scale(0.015625)"/>
       </defs>
       <use xlink:href="#DejaVuSans-32"/>
       <use xlink:href="#DejaVuSans-30" transform="translate(63.623047 0)"/>
       <use xlink:href="#DejaVuSans-32" transform="translate(127.246094 0)"/>
       <use xlink:href="#DejaVuSans-31" transform="translate(190.869141 0)"/>
      </g>
     </g>
    </g>
    <g id="xtick_3">
     <g id="line2d_5">
      <path d="M 542.9526 244.078125 
L 542.9526 22.318125 
" clip-path="url(#pfa1e1d0472)" style="fill: none; stroke-dasharray: 1.85,0.8; stroke-dashoffset: 0; stroke: #d3d3d3; stroke-width: 0.5"/>
     </g>
     <g id="line2d_6">
      <g>
       <use xlink:href="#m7b7bddf41f" x="542.9526" y="244.078125" style="stroke: #000000; stroke-width: 0.8"/>
      </g>
     </g>
     <g id="text_3">
      <!-- 2022 -->
      <g transform="translate(530.2276 258.676562) scale(0.1 -0.1)">
       <use xlink:href="#DejaVuSans-32"/>
       <use xlink:href="#DejaVuSans-30" transform="translate(63.623047 0)"/>
       <use xlink:href="#DejaVuSans-32" transform="translate(127.246094 0)"/>
       <use xlink:href="#DejaVuSans-32" transform="translate(190.869141 0)"/>
      </g>
     </g>
    </g>
    <g id="xtick_4">
     <g id="line2d_7">
      <path d="M 756.891675 244.078125 
L 756.891675 22.318125 
" clip-path="url(#pfa1e1d0472)" style="fill: none; stroke-dasharray: 1.85,0.8; stroke-dashoffset: 0; stroke: #d3d3d3; stroke-width: 0.5"/>
     </g>
     <g id="line2d_8">
      <g>
       <use xlink:href="#m7b7bddf41f" x="756.891675" y="244.078125" style="stroke: #000000; stroke-width: 0.8"/>
      </g>
     </g>
     <g id="text_4">
      <!-- 2023 -->
      <g transform="translate(744.166675 258.676562) scale(0.1 -0.1)">
       <defs>
        <path id="DejaVuSans-33" d="M 2597 2516 
Q 3050 2419 3304 2112 
Q 3559 1806 3559 1356 
Q 3559 666 3084 287 
Q 2609 -91 1734 -91 
Q 1441 -91 1130 -33 
Q 819 25 488 141 
L 488 750 
Q 750 597 1062 519 
Q 1375 441 1716 441 
Q 2309 441 2620 675 
Q 2931 909 2931 1356 
Q 2931 1769 2642 2001 
Q 2353 2234 1838 2234 
L 1294 2234 
L 1294 2753 
L 1863 2753 
Q 2328 2753 2575 2939 
Q 2822 3125 2822 3475 
Q 2822 3834 2567 4026 
Q 2313 4219 1838 4219 
Q 1578 4219 1281 4162 
Q 984 4106 628 3988 
L 628 4550 
Q 988 4650 1302 4700 
Q 1616 4750 1894 4750 
Q 2613 4750 3031 4423 
Q 3450 4097 3450 3541 
Q 3450 3153 3228 2886 
Q 3006 2619 2597 2516 
z
" transform="scale(0.015625)"/>
       </defs>
       <use xlink:href="#DejaVuSans-32"/>
       <use xlink:href="#DejaVuSans-30" transform="translate(63.623047 0)"/>
       <use xlink:href="#DejaVuSans-32" transform="translate(127.246094 0)"/>
       <use xlink:href="#DejaVuSans-33" transform="translate(190.869141 0)"/>
      </g>
     </g>
    </g>
    <g id="xtick_5">
     <g id="line2d_9">
      <path d="M 970.830751 244.078125 
L 970.830751 22.318125 
" clip-path="url(#pfa1e1d0472)" style="fill: none; stroke-dasharray: 1.85,0.8; stroke-dashoffset: 0; stroke: #d3d3d3; stroke-width: 0.5"/>
     </g>
     <g id="line2d_10">
      <g>
       <use xlink:href="#m7b7bddf41f" x="970.830751" y="244.078125" style="stroke: #000000; stroke-width: 0.8"/>
      </g>
     </g>
     <g id="text_5">
      <!-- 2024 -->
      <g transform="translate(958.105751 258.676562) scale(0.1 -0.1)">
       <defs>
        <path id="DejaVuSans-34" d="M 2419 4116 
L 825 1625 
L 2419 1625 
L 2419 4116 
z
M 2253 4666 
L 3047 4666 
L 3047 1625 
L 3713 1625 
L 3713 1100 
L 3047 1100 
L 3047 0 
L 2419 0 
L 2419 1100 
L 313 1100 
L 313 1709 
L 2253 4666 
z
" transform="scale(0.015625)"/>
       </defs>
       <use xlink:href="#DejaVuSans-32"/>
       <use xlink:href="#DejaVuSans-30" transform="translate(63.623047 0)"/>
       <use xlink:href="#DejaVuSans-32" transform="translate(127.246094 0)"/>
       <use xlink:href="#DejaVuSans-34" transform="translate(190.869141 0)"/>
      </g>
     </g>
    </g>
    <g id="xtick_6">
     <g id="line2d_11">
      <path d="M 1185.355961 244.078125 
L 1185.355961 22.318125 
" clip-path="url(#pfa1e1d0472)" style="fill: none; stroke-dasharray: 1.85,0.8; stroke-dashoffset: 0; stroke: #d3d3d3; stroke-width: 0.5"/>
     </g>
     <g id="line2d_12">
      <g>
       <use xlink:href="#m7b7bddf41f" x="1185.355961" y="244.078125" style="stroke: #000000; stroke-width: 0.8"/>
      </g>
     </g>
     <g id="text_6">
      <!-- 2025 -->
      <g transform="translate(1172.630961 258.676562) scale(0.1 -0.1)">
       <defs>
        <path id="DejaVuSans-35" d="M 691 4666 
L 3169 4666 
L 3169 4134 
L 1269 4134 
L 1269 2991 
Q 1406 3038 1543 3061 
Q 1681 3084 1819 3084 
Q 2600 3084 3056 2656 
Q 3513 2228 3513 1497 
Q 3513 744 3044 326 
Q 2575 -91 1722 -91 
Q 1428 -91 1123 -41 
Q 819 9 494 109 
L 494 744 
Q 775 591 1075 516 
Q 1375 441 1709 441 
Q 2250 441 2565 725 
Q 2881 1009 2881 1497 
Q 2881 1984 2565 2268 
Q 2250 2553 1709 2553 
Q 1456 2553 1204 2497 
Q 953 2441 691 2322 
L 691 4666 
z
" transform="scale(0.015625)"/>
       </defs>
       <use xlink:href="#DejaVuSans-32"/>
       <use xlink:href="#DejaVuSans-30" transform="translate(63.623047 0)"/>
       <use xlink:href="#DejaVuSans-32" transform="translate(127.246094 0)"/>
       <use xlink:href="#DejaVuSans-35" transform="translate(190.869141 0)"/>
      </g>
     </g>
    </g>
    <g id="text_7">
     <!-- Data -->
     <g transform="translate(648.827344 272.354687) scale(0.1 -0.1)">
      <defs>
       <path id="DejaVuSans-44" d="M 1259 4147 
L 1259 519 
L 2022 519 
Q 2988 519 3436 956 
Q 3884 1394 3884 2338 
Q 3884 3275 3436 3711 
Q 2988 4147 2022 4147 
L 1259 4147 
z
M 628 4666 
L 1925 4666 
Q 3281 4666 3915 4102 
Q 4550 3538 4550 2338 
Q 4550 1131 3912 565 
Q 3275 0 1925 0 
L 628 0 
L 628 4666 
z
" transform="scale(0.015625)"/>
       <path id="DejaVuSans-61" d="M 2194 1759 
Q 1497 1759 1228 1600 
Q 959 1441 959 1056 
Q 959 750 1161 570 
Q 1363 391 1709 391 
Q 2188 391 2477 730 
Q 2766 1069 2766 1631 
L 2766 1759 
L 2194 1759 
z
M 3341 1997 
L 3341 0 
L 2766 0 
L 2766 531 
Q 2569 213 2275 61 
Q 1981 -91 1556 -91 
Q 1019 -91 701 211 
Q 384 513 384 1019 
Q 384 1609 779 1909 
Q 1175 2209 1959 2209 
L 2766 2209 
L 2766 2266 
Q 2766 2663 2505 2880 
Q 2244 3097 1772 3097 
Q 1472 3097 1187 3025 
Q 903 2953 641 2809 
L 641 3341 
Q 956 3463 1253 3523 
Q 1550 3584 1831 3584 
Q 2591 3584 2966 3190 
Q 3341 2797 3341 1997 
z
" transform="scale(0.015625)"/>
       <path id="DejaVuSans-74" d="M 1172 4494 
L 1172 3500 
L 2356 3500 
L 2356 3053 
L 1172 3053 
L 1172 1153 
Q 1172 725 1289 603 
Q 1406 481 1766 481 
L 2356 481 
L 2356 0 
L 1766 0 
Q 1100 0 847 248 
Q 594 497 594 1153 
L 594 3053 
L 172 3053 
L 172 3500 
L 594 3500 
L 594 4494 
L 1172 4494 
z
" transform="scale(0.015625)"/>
      </defs>
      <use xlink:href="#DejaVuSans-44"/>
      <use xlink:href="#DejaVuSans-61" transform="translate(77.001953 0)"/>
      <use xlink:href="#DejaVuSans-74" transform="translate(138.28125 0)"/>
      <use xlink:href="#DejaVuSans-61" transform="translate(177.490234 0)"/>
     </g>
    </g>
   </g>
   <g id="matplotlib.axis_2">
    <g id="ytick_1">
     <g id="line2d_13">
      <path d="M 46.965625 232.772869 
L 1274.565625 232.772869 
" clip-path="url(#pfa1e1d0472)" style="fill: none; stroke-dasharray: 1.85,0.8; stroke-dashoffset: 0; stroke: #d3d3d3; stroke-width: 0.5"/>
     </g>
     <g id="line2d_14">
      <defs>
       <path id="m70efada057" d="M 0 0 
L -3.5 0 
" style="stroke: #000000; stroke-width: 0.8"/>
      </defs>
      <g>
       <use xlink:href="#m70efada057" x="46.965625" y="232.772869" style="stroke: #000000; stroke-width: 0.8"/>
      </g>
     </g>
     <g id="text_8">
      <!-- 20 -->
      <g transform="translate(27.240625 236.572087) scale(0.1 -0.1)">
       <use xlink:href="#DejaVuSans-32"/>
       <use xlink:href="#DejaVuSans-30" transform="translate(63.623047 0)"/>
      </g>
     </g>
    </g>
    <g id="ytick_2">
     <g id="line2d_15">
      <path d="M 46.965625 196.198053 
L 1274.565625 196.198053 
" clip-path="url(#pfa1e1d0472)" style="fill: none; stroke-dasharray: 1.85,0.8; stroke-dashoffset: 0; stroke: #d3d3d3; stroke-width: 0.5"/>
     </g>
     <g id="line2d_16">
      <g>
       <use xlink:href="#m70efada057" x="46.965625" y="196.198053" style="stroke: #000000; stroke-width: 0.8"/>
      </g>
     </g>
     <g id="text_9">
      <!-- 40 -->
      <g transform="translate(27.240625 199.997272) scale(0.1 -0.1)">
       <use xlink:href="#DejaVuSans-34"/>
       <use xlink:href="#DejaVuSans-30" transform="translate(63.623047 0)"/>
      </g>
     </g>
    </g>
    <g id="ytick_3">
     <g id="line2d_17">
      <path d="M 46.965625 159.623238 
L 1274.565625 159.623238 
" clip-path="url(#pfa1e1d0472)" style="fill: none; stroke-dasharray: 1.85,0.8; stroke-dashoffset: 0; stroke: #d3d3d3; stroke-width: 0.5"/>
     </g>
     <g id="line2d_18">
      <g>
       <use xlink:href="#m70efada057" x="46.965625" y="159.623238" style="stroke: #000000; stroke-width: 0.8"/>
      </g>
     </g>
     <g id="text_10">
      <!-- 60 -->
      <g transform="translate(27.240625 163.422456) scale(0.1 -0.1)">
       <defs>
        <path id="DejaVuSans-36" d="M 2113 2584 
Q 1688 2584 1439 2293 
Q 1191 2003 1191 1497 
Q 1191 994 1439 701 
Q 1688 409 2113 409 
Q 2538 409 2786 701 
Q 3034 994 3034 1497 
Q 3034 2003 2786 2293 
Q 2538 2584 2113 2584 
z
M 3366 4563 
L 3366 3988 
Q 3128 4100 2886 4159 
Q 2644 4219 2406 4219 
Q 1781 4219 1451 3797 
Q 1122 3375 1075 2522 
Q 1259 2794 1537 2939 
Q 1816 3084 2150 3084 
Q 2853 3084 3261 2657 
Q 3669 2231 3669 1497 
Q 3669 778 3244 343 
Q 2819 -91 2113 -91 
Q 1303 -91 875 529 
Q 447 1150 447 2328 
Q 447 3434 972 4092 
Q 1497 4750 2381 4750 
Q 2619 4750 2861 4703 
Q 3103 4656 3366 4563 
z
" transform="scale(0.015625)"/>
       </defs>
       <use xlink:href="#DejaVuSans-36"/>
       <use xlink:href="#DejaVuSans-30" transform="translate(63.623047 0)"/>
      </g>
     </g>
    </g>
    <g id="ytick_4">
     <g id="line2d_19">
      <path d="M 46.965625 123.048422 
L 1274.565625 123.048422 
" clip-path="url(#pfa1e1d0472)" style="fill: none; stroke-dasharray: 1.85,0.8; stroke-dashoffset: 0; stroke: #d3d3d3; stroke-width: 0.5"/>
     </g>
     <g id="line2d_20">
      <g>
       <use xlink:href="#m70efada057" x="46.965625" y="123.048422" style="stroke: #000000; stroke-width: 0.8"/>
      </g>
     </g>
     <g id="text_11">
      <!-- 80 -->
      <g transform="translate(27.240625 126.847641) scale(0.1 -0.1)">
       <defs>
        <path id="DejaVuSans-38" d="M 2034 2216 
Q 1584 2216 1326 1975 
Q 1069 1734 1069 1313 
Q 1069 891 1326 650 
Q 1584 409 2034 409 
Q 2484 409 2743 651 
Q 3003 894 3003 1313 
Q 3003 1734 2745 1975 
Q 2488 2216 2034 2216 
z
M 1403 2484 
Q 997 2584 770 2862 
Q 544 3141 544 3541 
Q 544 4100 942 4425 
Q 1341 4750 2034 4750 
Q 2731 4750 3128 4425 
Q 3525 4100 3525 3541 
Q 3525 3141 3298 2862 
Q 3072 2584 2669 2484 
Q 3125 2378 3379 2068 
Q 3634 1759 3634 1313 
Q 3634 634 3220 271 
Q 2806 -91 2034 -91 
Q 1263 -91 848 271 
Q 434 634 434 1313 
Q 434 1759 690 2068 
Q 947 2378 1403 2484 
z
M 1172 3481 
Q 1172 3119 1398 2916 
Q 1625 2713 2034 2713 
Q 2441 2713 2670 2916 
Q 2900 3119 2900 3481 
Q 2900 3844 2670 4047 
Q 2441 4250 2034 4250 
Q 1625 4250 1398 4047 
Q 1172 3844 1172 3481 
z
" transform="scale(0.015625)"/>
       </defs>
       <use xlink:href="#DejaVuSans-38"/>
       <use xlink:href="#DejaVuSans-30" transform="translate(63.623047 0)"/>
      </g>
     </g>
    </g>
    <g id="ytick_5">
     <g id="line2d_21">
      <path d="M 46.965625 86.473606 
L 1274.565625 86.473606 
" clip-path="url(#pfa1e1d0472)" style="fill: none; stroke-dasharray: 1.85,0.8; stroke-dashoffset: 0; stroke: #d3d3d3; stroke-width: 0.5"/>
     </g>
     <g id="line2d_22">
      <g>
       <use xlink:href="#m70efada057" x="46.965625" y="86.473606" style="stroke: #000000; stroke-width: 0.8"/>
      </g>
     </g>
     <g id="text_12">
      <!-- 100 -->
      <g transform="translate(20.878125 90.272825) scale(0.1 -0.1)">
       <use xlink:href="#DejaVuSans-31"/>
       <use xlink:href="#DejaVuSans-30" transform="translate(63.623047 0)"/>
       <use xlink:href="#DejaVuSans-30" transform="translate(127.246094 0)"/>
      </g>
     </g>
    </g>
    <g id="ytick_6">
     <g id="line2d_23">
      <path d="M 46.965625 49.898791 
L 1274.565625 49.898791 
" clip-path="url(#pfa1e1d0472)" style="fill: none; stroke-dasharray: 1.85,0.8; stroke-dashoffset: 0; stroke: #d3d3d3; stroke-width: 0.5"/>
     </g>
     <g id="line2d_24">
      <g>
       <use xlink:href="#m70efada057" x="46.965625" y="49.898791" style="stroke: #000000; stroke-width: 0.8"/>
      </g>
     </g>
     <g id="text_13">
      <!-- 120 -->
      <g transform="translate(20.878125 53.69801) scale(0.1 -0.1)">
       <use xlink:href="#DejaVuSans-31"/>
       <use xlink:href="#DejaVuSans-32" transform="translate(63.623047 0)"/>
       <use xlink:href="#DejaVuSans-30" transform="translate(127.246094 0)"/>
      </g>
     </g>
    </g>
    <g id="text_14">
     <!-- Fechamento -->
     <g transform="translate(14.798438 163.992656) rotate(-90) scale(0.1 -0.1)">
      <defs>
       <path id="DejaVuSans-46" d="M 628 4666 
L 3309 4666 
L 3309 4134 
L 1259 4134 
L 1259 2759 
L 3109 2759 
L 3109 2228 
L 1259 2228 
L 1259 0 
L 628 0 
L 628 4666 
z
" transform="scale(0.015625)"/>
       <path id="DejaVuSans-65" d="M 3597 1894 
L 3597 1613 
L 953 1613 
Q 991 1019 1311 708 
Q 1631 397 2203 397 
Q 2534 397 2845 478 
Q 3156 559 3463 722 
L 3463 178 
Q 3153 47 2828 -22 
Q 2503 -91 2169 -91 
Q 1331 -91 842 396 
Q 353 884 353 1716 
Q 353 2575 817 3079 
Q 1281 3584 2069 3584 
Q 2775 3584 3186 3129 
Q 3597 2675 3597 1894 
z
M 3022 2063 
Q 3016 2534 2758 2815 
Q 2500 3097 2075 3097 
Q 1594 3097 1305 2825 
Q 1016 2553 972 2059 
L 3022 2063 
z
" transform="scale(0.015625)"/>
       <path id="DejaVuSans-63" d="M 3122 3366 
L 3122 2828 
Q 2878 2963 2633 3030 
Q 2388 3097 2138 3097 
Q 1578 3097 1268 2742 
Q 959 2388 959 1747 
Q 959 1106 1268 751 
Q 1578 397 2138 397 
Q 2388 397 2633 464 
Q 2878 531 3122 666 
L 3122 134 
Q 2881 22 2623 -34 
Q 2366 -91 2075 -91 
Q 1284 -91 818 406 
Q 353 903 353 1747 
Q 353 2603 823 3093 
Q 1294 3584 2113 3584 
Q 2378 3584 2631 3529 
Q 2884 3475 3122 3366 
z
" transform="scale(0.015625)"/>
       <path id="DejaVuSans-68" d="M 3513 2113 
L 3513 0 
L 2938 0 
L 2938 2094 
Q 2938 2591 2744 2837 
Q 2550 3084 2163 3084 
Q 1697 3084 1428 2787 
Q 1159 2491 1159 1978 
L 1159 0 
L 581 0 
L 581 4863 
L 1159 4863 
L 1159 2956 
Q 1366 3272 1645 3428 
Q 1925 3584 2291 3584 
Q 2894 3584 3203 3211 
Q 3513 2838 3513 2113 
z
" transform="scale(0.015625)"/>
       <path id="DejaVuSans-6d" d="M 3328 2828 
Q 3544 3216 3844 3400 
Q 4144 3584 4550 3584 
Q 5097 3584 5394 3201 
Q 5691 2819 5691 2113 
L 5691 0 
L 5113 0 
L 5113 2094 
Q 5113 2597 4934 2840 
Q 4756 3084 4391 3084 
Q 3944 3084 3684 2787 
Q 3425 2491 3425 1978 
L 3425 0 
L 2847 0 
L 2847 2094 
Q 2847 2600 2669 2842 
Q 2491 3084 2119 3084 
Q 1678 3084 1418 2786 
Q 1159 2488 1159 1978 
L 1159 0 
L 581 0 
L 581 3500 
L 1159 3500 
L 1159 2956 
Q 1356 3278 1631 3431 
Q 1906 3584 2284 3584 
Q 2666 3584 2933 3390 
Q 3200 3197 3328 2828 
z
" transform="scale(0.015625)"/>
       <path id="DejaVuSans-6e" d="M 3513 2113 
L 3513 0 
L 2938 0 
L 2938 2094 
Q 2938 2591 2744 2837 
Q 2550 3084 2163 3084 
Q 1697 3084 1428 2787 
Q 1159 2491 1159 1978 
L 1159 0 
L 581 0 
L 581 3500 
L 1159 3500 
L 1159 2956 
Q 1366 3272 1645 3428 
Q 1925 3584 2291 3584 
Q 2894 3584 3203 3211 
Q 3513 2838 3513 2113 
z
" transform="scale(0.015625)"/>
       <path id="DejaVuSans-6f" d="M 1959 3097 
Q 1497 3097 1228 2736 
Q 959 2375 959 1747 
Q 959 1119 1226 758 
Q 1494 397 1959 397 
Q 2419 397 2687 759 
Q 2956 1122 2956 1747 
Q 2956 2369 2687 2733 
Q 2419 3097 1959 3097 
z
M 1959 3584 
Q 2709 3584 3137 3096 
Q 3566 2609 3566 1747 
Q 3566 888 3137 398 
Q 2709 -91 1959 -91 
Q 1206 -91 779 398 
Q 353 888 353 1747 
Q 353 2609 779 3096 
Q 1206 3584 1959 3584 
z
" transform="scale(0.015625)"/>
      </defs>
      <use xlink:href="#DejaVuSans-46"/>
      <use xlink:href="#DejaVuSans-65" transform="translate(52.019531 0)"/>
      <use xlink:href="#DejaVuSans-63" transform="translate(113.542969 0)"/>
      <use xlink:href="#DejaVuSans-68" transform="translate(168.523438 0)"/>
      <use xlink:href="#DejaVuSans-61" transform="translate(231.902344 0)"/>
      <use xlink:href="#DejaVuSans-6d" transform="translate(293.181641 0)"/>
      <use xlink:href="#DejaVuSans-65" transform="translate(390.59375 0)"/>
      <use xlink:href="#DejaVuSans-6e" transform="translate(452.117188 0)"/>
      <use xlink:href="#DejaVuSans-74" transform="translate(515.496094 0)"/>
      <use xlink:href="#DejaVuSans-6f" transform="translate(554.705078 0)"/>
     </g>
    </g>
   </g>
   <g id="line2d_25">
    <path d="M 102.765625 151.942526 
L 103.351759 150.077211 
L 105.110163 149.857762 
L 105.696297 148.467919 
L 106.282432 148.339907 
L 106.868566 147.663273 
L 107.454701 148.394769 
L 109.213104 147.937584 
L 109.799238 146.456304 
L 110.971507 145.139611 
L 111.557642 144.700713 
L 113.316045 144.188665 
L 113.90218 148.650793 
L 115.074449 148.193608 
L 115.660583 143.896067 
L 117.418986 143.329157 
L 118.005121 144.499551 
L 118.591255 149.674888 
L 119.17739 149.8029 
L 119.763524 150.516108 
L 121.521928 151.942526 
L 122.108062 151.412191 
L 122.694196 152.308274 
L 123.280331 151.174455 
L 123.866465 150.753845 
L 126.211003 151.229317 
L 127.969407 158.361406 
L 129.72781 160.866781 
L 130.313944 160.519321 
L 130.900079 159.970698 
L 131.486213 162.750384 
L 132.072348 162.988121 
L 133.830751 169.772749 
L 134.416886 170.668832 
L 135.00302 168.254894 
L 135.589154 168.894953 
L 136.175289 169.736174 
L 137.933692 171.930663 
L 138.519827 170.577395 
L 139.105961 167.322236 
L 139.692096 166.316429 
L 140.27823 164.524263 
L 142.622768 163.737904 
L 143.208902 161.232529 
L 143.795037 160.885069 
L 144.381171 162.366349 
L 146.139575 166.389578 
L 147.897978 173.92399 
L 148.484112 176.9597 
L 150.242516 174.436038 
L 150.82865 174.509187 
L 151.414785 175.844168 
L 152.000919 177.928933 
L 152.587054 186.560589 
L 154.345457 206.512151 
L 154.931591 201.281952 
L 155.517726 203.897052 
L 156.10386 208.596916 
L 156.689995 207.444809 
L 159.034533 216.807962 
L 159.620667 223.848614 
L 160.206801 217.283434 
L 160.792936 220.008258 
L 162.551339 219.916821 
L 163.137474 219.697372 
L 163.723608 219.258474 
L 164.309743 221.178652 
L 164.895877 223.757177 
L 166.65428 227.725544 
L 167.240415 227.762119 
L 167.826549 224.104637 
L 168.412684 214.595185 
L 168.998818 206.969336 
L 170.757222 208.907802 
L 171.343356 211.065716 
L 171.929491 209.291837 
L 172.515625 211.778925 
L 174.860163 211.303452 
L 176.032432 218.709852 
L 176.618566 218.472116 
L 177.204701 217.996643 
L 178.963104 222.586783 
L 179.549238 233.998125 
L 180.721507 230.340643 
L 181.307642 230.139482 
L 183.066045 232.791156 
L 183.65218 231.931648 
L 184.238314 228.127867 
L 184.824449 223.135405 
L 185.410583 220.995778 
L 187.168986 219.605935 
L 187.755121 212.711582 
L 188.341255 214.997508 
L 188.92739 215.472981 
L 189.513524 212.711582 
L 191.271928 215.162095 
L 191.858062 214.522036 
L 192.444196 215.966741 
L 193.030331 212.418984 
L 193.616465 209.913609 
L 195.374869 205.689218 
L 195.961003 205.981816 
L 196.547138 203.970201 
L 197.133272 203.403292 
L 197.719407 205.104021 
L 200.063944 203.20213 
L 200.650079 205.81723 
L 201.236213 204.811422 
L 201.822348 204.738273 
L 203.580751 199.270338 
L 204.166886 196.984412 
L 205.339154 196.216341 
L 205.925289 191.991949 
L 207.683692 194.73506 
L 208.269827 194.040139 
L 208.855961 193.034332 
L 209.442096 198.849727 
L 210.02823 198.520554 
L 211.786633 196.710101 
L 212.372768 194.442462 
L 212.958902 194.899647 
L 214.131171 192.193111 
L 215.889575 190.565532 
L 216.475709 191.388465 
L 217.061843 195.631143 
L 217.647978 194.277875 
L 218.234112 194.332738 
L 219.992516 193.070906 
L 220.57865 194.095001 
L 221.164785 192.485709 
L 221.750919 190.455807 
L 224.681591 190.565532 
L 225.267726 190.181496 
L 225.85386 191.900512 
L 226.439995 190.272933 
L 228.198398 191.223878 
L 228.784533 190.894705 
L 229.370667 189.267126 
L 229.956801 190.035197 
L 230.542936 190.455807 
L 232.301339 190.199783 
L 232.887474 188.297893 
L 233.473608 188.352755 
L 234.059743 190.144921 
L 236.40428 189.962047 
L 236.990415 190.309508 
L 237.576549 189.340275 
L 238.162684 190.821555 
L 238.748818 190.163209 
L 241.093356 188.096731 
L 241.679491 186.743463 
L 242.265625 186.889763 
L 242.851759 188.151594 
L 244.610163 187.072637 
L 245.196297 187.96872 
L 245.782432 186.267991 
L 246.368566 187.127499 
L 246.954701 187.420097 
L 248.713104 186.377715 
L 249.299238 186.213128 
L 249.885373 186.377715 
L 251.057642 188.243031 
L 252.816045 186.816613 
L 253.40218 185.481632 
L 253.988314 185.883955 
L 254.574449 186.889763 
L 255.160583 186.962912 
L 256.918986 186.542302 
L 257.505121 185.99368 
L 258.091255 188.096731 
L 258.67739 188.755078 
L 259.263524 191.333603 
L 261.608062 196.600376 
L 262.194196 194.753348 
L 262.780331 196.088329 
L 263.366465 196.508939 
L 265.124869 196.911262 
L 265.711003 195.22882 
L 266.297138 192.138249 
L 266.883272 190.163209 
L 267.469407 190.43752 
L 269.22781 193.564666 
L 269.813944 193.052619 
L 270.400079 192.961182 
L 270.986213 192.650296 
L 271.572348 192.686871 
L 273.330751 191.754213 
L 273.916886 194.31445 
L 275.089154 194.497324 
L 275.675289 197.533034 
L 277.433692 193.838978 
L 278.019827 191.35189 
L 278.605961 192.558859 
L 279.192096 190.090059 
L 279.77823 190.986142 
L 281.536633 193.052619 
L 282.708902 190.126634 
L 283.295037 190.419232 
L 283.881171 190.839843 
L 285.639575 191.406752 
L 286.225709 190.419232 
L 286.811843 193.034332 
L 287.397978 191.699351 
L 287.984112 192.961182 
L 289.742516 195.356832 
L 290.32865 194.003564 
L 290.914785 197.807345 
L 291.500919 200.495594 
L 292.087054 200.843055 
L 293.845457 198.081656 
L 294.431591 196.728388 
L 295.017726 193.948702 
L 295.60386 194.497324 
L 296.189995 197.203861 
L 297.948398 191.809075 
L 298.534533 189.596299 
L 299.120667 189.248838 
L 299.706801 189.742598 
L 300.292936 191.114154 
L 302.051339 189.212263 
L 302.637474 189.340275 
L 303.223608 188.261318 
L 303.809743 188.517342 
L 304.395877 187.127499 
L 306.15428 185.115884 
L 306.740415 181.824151 
L 307.326549 180.452595 
L 310.257222 182.317911 
L 310.843356 182.628797 
L 311.429491 181.110942 
L 312.601759 179.282201 
L 314.360163 180.123422 
L 315.532432 179.99541 
L 316.118566 177.45346 
L 316.704701 177.965508 
L 318.463104 177.38031 
L 319.049238 176.520802 
L 319.635373 175.935605 
L 320.221507 175.167534 
L 320.807642 173.777691 
L 322.566045 176.246491 
L 323.15218 177.764346 
L 323.738314 175.716156 
L 324.324449 175.55157 
L 326.668986 176.337928 
L 327.841255 175.460133 
L 328.42739 174.618912 
L 330.771928 175.917318 
L 331.358062 171.327179 
L 331.944196 170.04706 
L 332.530331 169.900761 
L 333.116465 166.956488 
L 334.874869 167.559973 
L 335.461003 165.877531 
L 336.047138 166.828476 
L 336.633272 166.17013 
L 337.219407 168.584067 
L 340.150079 166.791901 
L 340.736213 166.755327 
L 341.322348 168.017158 
L 343.080751 167.15765 
L 343.666886 167.102787 
L 344.25302 167.285661 
L 344.839154 167.797709 
L 345.425289 167.15765 
L 347.183692 166.298141 
L 348.355961 162.439498 
L 348.942096 161.744577 
L 349.52823 160.830206 
L 351.286633 158.599143 
L 351.872768 157.62991 
L 352.458902 156.934989 
L 353.045037 157.538473 
L 353.631171 155.179397 
L 355.975709 153.496956 
L 356.561843 151.686503 
L 357.147978 152.436286 
L 357.734112 154.301602 
L 359.492516 150.040636 
L 360.07865 149.8029 
L 360.664785 146.748902 
L 361.250919 147.041501 
L 361.837054 148.413057 
L 363.595457 152.875184 
L 364.181591 154.685637 
L 364.767726 152.180263 
L 365.939995 142.506224 
L 367.698398 144.554414 
L 368.284533 145.871107 
L 368.870667 145.176185 
L 369.456801 142.012464 
L 370.042936 142.762248 
L 371.801339 143.384019 
L 372.973608 144.993311 
L 373.559743 153.624968 
L 374.145877 151.339042 
L 375.90428 151.174455 
L 376.490415 158.178532 
L 377.076549 151.558491 
L 377.662684 156.057193 
L 378.248818 151.265892 
L 380.007222 150.516108 
L 380.593356 152.052251 
L 381.179491 153.149495 
L 381.765625 150.735557 
L 384.110163 155.691445 
L 384.696297 154.612488 
L 385.282432 153.844417 
L 385.868566 153.771267 
L 386.454701 154.228452 
L 388.213104 153.624968 
L 388.799238 152.911759 
L 389.385373 147.590123 
L 389.971507 146.931777 
L 390.557642 147.242662 
L 392.316045 146.730615 
L 392.90218 147.608411 
L 393.488314 149.894337 
L 394.074449 149.748037 
L 394.660583 148.449631 
L 396.418986 149.290852 
L 397.591255 146.328292 
L 398.17739 143.969216 
L 398.763524 146.364867 
L 400.521928 145.797957 
L 401.108062 143.384019 
L 401.694196 143.23772 
L 402.280331 144.828725 
L 402.866465 144.481264 
L 404.624869 144.408114 
L 405.211003 143.987504 
L 405.797138 142.579373 
L 406.383272 146.730615 
L 406.969407 143.694905 
L 408.72781 142.32335 
L 409.313944 143.694905 
L 409.900079 147.443824 
L 410.486213 150.278372 
L 411.072348 147.846147 
L 412.830751 144.152091 
L 414.00302 143.402307 
L 414.589154 142.32335 
L 417.519827 140.878645 
L 418.105961 138.86703 
L 418.692096 138.940179 
L 419.27823 137.87951 
L 421.036633 138.611006 
L 421.622768 137.276025 
L 422.208902 137.276025 
L 422.795037 136.727403 
L 423.381171 136.416517 
L 425.139575 136.105631 
L 425.725709 134.039154 
L 426.311843 133.307658 
L 426.897978 135.703308 
L 429.242516 132.375 
L 429.82865 132.539587 
L 431.000919 131.168031 
L 431.587054 130.034212 
L 433.345457 132.777323 
L 433.931591 132.631024 
L 434.517726 131.95439 
L 435.10386 130.655984 
L 435.689995 130.052499 
L 438.034533 133.051634 
L 438.620667 135.063249 
L 439.206801 133.801418 
L 439.792936 131.186318 
L 441.551339 131.899527 
L 442.137474 129.467302 
L 442.723608 132.631024 
L 443.309743 134.990099 
L 443.895877 134.77065 
L 445.65428 143.859492 
L 446.240415 142.524511 
L 446.826549 137.257738 
L 447.412684 134.404902 
L 447.998818 133.837993 
L 449.757222 133.106496 
L 450.343356 133.143071 
L 450.929491 132.667598 
L 451.515625 130.271948 
L 452.101759 129.759901 
L 453.860163 136.050769 
L 454.446297 136.928564 
L 455.032432 140.640908 
L 455.618566 138.976754 
L 457.963104 143.091421 
L 458.549238 140.183723 
L 459.135373 138.702443 
L 459.721507 138.940179 
L 460.307642 140.256873 
L 462.066045 142.231913 
L 462.65218 143.109708 
L 463.238314 144.572701 
L 463.824449 147.82786 
L 464.410583 150.15036 
L 466.168986 143.621756 
L 466.755121 139.415652 
L 467.341255 137.221163 
L 467.92739 139.379077 
L 468.513524 136.39823 
L 470.271928 135.099824 
L 470.858062 135.867895 
L 471.444196 138.428132 
L 472.030331 135.794745 
L 472.616465 136.562816 
L 474.961003 138.245258 
L 475.547138 136.581104 
L 476.133272 138.684156 
L 476.719407 135.995907 
L 478.47781 134.91695 
L 479.063944 134.752363 
L 479.650079 131.350905 
L 480.236213 130.96687 
L 480.822348 131.570354 
L 482.580751 134.167166 
L 483.166886 133.36252 
L 483.75302 130.015924 
L 484.339154 128.077459 
L 484.925289 126.541317 
L 486.683692 123.90793 
L 487.855961 125.535509 
L 488.442096 125.754958 
L 489.02823 124.365115 
L 490.786633 120.744209 
L 491.372768 118.366846 
L 491.958902 121.073382 
L 492.545037 119.482377 
L 494.889575 116.373518 
L 496.061843 117.233026 
L 497.234112 114.160742 
L 498.992516 115.129974 
L 500.164785 112.405151 
L 500.750919 114.617927 
L 501.337054 112.935485 
L 503.095457 112.094265 
L 503.681591 111.344481 
L 504.267726 114.672789 
L 504.85386 115.148262 
L 505.439995 115.038537 
L 507.198398 114.435053 
L 507.784533 114.416765 
L 508.370667 119.409228 
L 508.956801 122.060902 
L 509.542936 118.037672 
L 511.301339 116.775841 
L 511.887474 114.307041 
L 512.473608 118.220546 
L 513.059743 117.799936 
L 513.645877 119.080054 
L 515.40428 119.299503 
L 515.990415 118.604582 
L 516.576549 122.536375 
L 517.162684 120.780783 
L 517.748818 125.078324 
L 519.507222 123.597044 
L 520.093356 118.824031 
L 520.679491 118.933755 
L 521.851759 136.361655 
L 523.610163 135.044961 
L 524.196297 140.293448 
L 524.782432 143.402307 
L 525.368566 141.939314 
L 525.954701 141.555279 
L 527.713104 135.703308 
L 528.299238 131.38748 
L 528.885373 130.692558 
L 529.471507 133.252796 
L 530.057642 131.917815 
L 531.816045 133.307658 
L 532.40218 134.569489 
L 532.988314 134.240316 
L 533.574449 132.155551 
L 534.160583 134.898662 
L 535.918986 138.556144 
L 536.505121 134.057441 
L 537.67739 128.808955 
L 540.608062 124.986887 
L 541.194196 124.456552 
L 541.780331 124.291966 
L 542.366465 127.108226 
L 544.124869 124.913738 
L 544.711003 123.048422 
L 545.297138 121.585429 
L 545.883272 119.409228 
L 546.469407 119.848126 
L 548.22781 121.457417 
L 548.813944 116.245506 
L 549.400079 114.508203 
L 549.986213 114.873951 
L 550.572348 111.966253 
L 552.916886 109.314579 
L 553.50302 107.61385 
L 554.089154 107.723574 
L 554.675289 108.619657 
L 556.433692 111.582217 
L 557.605961 104.834164 
L 558.192096 105.967983 
L 558.77823 104.706152 
L 560.536633 102.548238 
L 561.122768 106.297156 
L 561.708902 105.730247 
L 562.295037 102.731112 
L 562.881171 98.781032 
L 564.639575 99.841701 
L 565.225709 103.334596 
L 565.811843 101.926466 
L 566.397978 102.18249 
L 566.984112 96.641405 
L 568.742516 92.910774 
L 569.32865 98.762744 
L 569.914785 95.964771 
L 570.500919 99.329654 
L 571.087054 98.287272 
L 573.431591 92.252427 
L 574.017726 92.252427 
L 574.60386 88.156048 
L 575.189995 90.2591 
L 576.948398 84.663153 
L 577.534533 77.384765 
L 578.120667 62.827988 
L 578.706801 67.344978 
L 579.292936 53.355111 
L 581.051339 44.028533 
L 581.637474 35.305439 
L 582.223608 66.101434 
L 582.809743 69.411455 
L 583.395877 63.303461 
L 585.15428 73.855295 
L 585.740415 86.638193 
L 586.326549 90.094513 
L 586.912684 74.330768 
L 587.498818 71.971692 
L 589.257222 57.908675 
L 589.843356 58.164699 
L 590.429491 46.972806 
L 591.015625 51.672669 
L 591.601759 48.710109 
L 593.946297 67.765588 
L 594.532432 61.877043 
L 595.118566 72.008267 
L 595.704701 78.445434 
L 597.463104 72.703188 
L 598.049238 74.330768 
L 598.635373 84.516854 
L 599.221507 85.412937 
L 599.807642 81.389707 
L 601.566045 89.253292 
L 602.15218 77.988249 
L 602.738314 70.417262 
L 603.324449 65.077339 
L 605.668986 62.407378 
L 606.255121 73.215236 
L 606.841255 74.038169 
L 607.42739 71.240196 
L 608.013524 74.31248 
L 609.771928 82.230928 
L 610.358062 77.34819 
L 610.944196 76.744705 
L 611.530331 72.593464 
L 612.116465 69.393168 
L 613.874869 72.611751 
L 614.461003 77.384765 
L 615.047138 67.930175 
L 615.633272 66.540332 
L 616.219407 63.815508 
L 617.97781 75.610886 
L 618.563944 81.974904 
L 619.150079 72.739763 
L 619.736213 72.849488 
L 620.322348 65.35165 
L 622.080751 60.432338 
L 622.666886 64.656729 
L 623.25302 69.813778 
L 623.839154 64.455567 
L 624.425289 63.52291 
L 626.183692 61.931905 
L 626.769827 61.675881 
L 627.355961 60.816373 
L 627.942096 54.653517 
L 628.52823 50.941173 
L 630.872768 44.705167 
L 631.458902 56.683419 
L 632.045037 54.269481 
L 632.631171 50.410838 
L 634.389575 50.794874 
L 634.975709 48.856409 
L 635.561843 43.351899 
L 636.147978 44.284557 
L 636.734112 46.223022 
L 638.492516 45.747549 
L 639.07865 47.759164 
L 639.664785 52.623615 
L 640.250919 50.246252 
L 640.837054 62.480527 
L 643.181591 59.682554 
L 643.767726 65.00419 
L 644.35386 68.094762 
L 644.939995 62.480527 
L 646.698398 58.877908 
L 647.284533 53.592847 
L 648.456801 59.389955 
L 649.042936 65.205351 
L 651.973608 85.211775 
L 652.559743 77.969962 
L 653.145877 73.635846 
L 654.90428 73.489547 
L 655.490415 87.406264 
L 656.076549 87.259965 
L 656.662684 88.119473 
L 657.248818 84.352267 
L 659.007222 75.007402 
L 659.593356 73.032362 
L 660.179491 73.81872 
L 660.765625 79.414667 
L 661.351759 80.621636 
L 663.110163 77.055591 
L 663.696297 78.427147 
L 664.282432 74.367342 
L 664.868566 73.416397 
L 665.454701 68.167911 
L 667.213104 86.418744 
L 667.799238 85.486086 
L 668.385373 92.362152 
L 668.971507 97.226602 
L 669.557642 95.76361 
L 671.316045 92.599888 
L 671.90218 93.22166 
L 672.488314 91.228332 
L 673.074449 87.205103 
L 673.660583 89.856777 
L 675.418986 95.434436 
L 676.005121 100.481761 
L 676.591255 98.08611 
L 677.17739 92.709612 
L 677.763524 92.471876 
L 679.521928 92.910774 
L 680.108062 86.071283 
L 680.694196 84.242543 
L 681.280331 87.680575 
L 681.866465 84.663153 
L 683.624869 77.165316 
L 684.211003 87.735438 
L 684.797138 92.892487 
L 685.383272 100.445186 
L 685.969407 99.238217 
L 688.313944 99.585678 
L 688.900079 108.418496 
L 689.486213 106.315444 
L 690.072348 99.56739 
L 691.830751 97.446051 
L 692.416886 98.963906 
L 693.00302 97.263177 
L 693.589154 103.224872 
L 694.175289 102.292214 
L 695.933692 101.103533 
L 696.519827 103.627195 
L 697.105961 105.0719 
L 697.692096 103.919793 
L 698.27823 111.801666 
L 700.036633 115.623734 
L 700.622768 111.582217 
L 701.208902 106.004558 
L 701.795037 107.522413 
L 702.381171 108.491645 
L 704.139575 106.845779 
L 704.725709 101.469281 
L 705.311843 98.598158 
L 705.897978 96.67798 
L 706.484112 90.277387 
L 708.242516 93.441109 
L 709.414785 100.280599 
L 710.000919 96.403669 
L 710.587054 101.780167 
L 712.345457 101.798454 
L 712.931591 104.706152 
L 713.517726 100.353749 
L 714.10386 100.408611 
L 714.689995 98.360421 
L 716.448398 98.799319 
L 717.034533 98.323847 
L 717.620667 94.355479 
L 718.206801 92.032978 
L 718.792936 94.20918 
L 720.551339 95.928196 
L 721.137474 96.25737 
L 721.723608 93.495971 
L 722.309743 96.220795 
L 722.895877 89.088706 
L 724.65428 90.277387 
L 725.826549 99.914851 
L 726.412684 98.049536 
L 726.998818 93.806857 
L 728.757222 99.018768 
L 729.343356 97.702075 
L 729.929491 99.530816 
L 730.515625 105.163337 
L 731.101759 109.113417 
L 732.860163 109.424303 
L 733.446297 107.760149 
L 734.032432 113.154934 
L 735.204701 116.410093 
L 737.549238 117.507337 
L 738.135373 113.11836 
L 738.721507 110.466685 
L 739.307642 112.862336 
L 741.066045 118.147397 
L 741.65218 124.237103 
L 742.238314 128.223758 
L 742.824449 130.089074 
L 743.410583 130.180511 
L 745.168986 126.724191 
L 745.755121 121.804878 
L 746.341255 118.110822 
L 746.92739 120.835646 
L 747.513524 124.804013 
L 749.858062 123.066709 
L 750.444196 119.025192 
L 751.030331 121.256256 
L 751.616465 115.879758 
L 753.961003 115.129974 
L 755.133272 118.915468 
L 755.719407 112.240564 
L 758.063944 119.208066 
L 758.650079 126.998502 
L 759.236213 125.444072 
L 759.822348 125.663521 
L 762.166886 122.865548 
L 762.75302 118.165684 
L 763.925289 113.392671 
L 766.269827 112.222277 
L 766.855961 113.941293 
L 767.442096 111.783379 
L 768.02823 109.09513 
L 769.786633 108.071035 
L 770.372768 111.838241 
L 770.958902 111.856528 
L 771.545037 109.387728 
L 772.131171 110.869008 
L 773.889575 114.087592 
L 774.475709 114.837376 
L 775.061843 117.854798 
L 775.647978 119.080054 
L 776.234112 123.158146 
L 777.992516 121.237969 
L 778.57865 116.300368 
L 779.164785 113.740131 
L 779.750919 114.819088 
L 780.337054 111.362768 
L 782.095457 110.960445 
L 782.681591 112.844048 
L 783.85386 113.648694 
L 784.439995 117.5622 
L 786.784533 117.470763 
L 787.370667 121.951178 
L 787.956801 119.006905 
L 788.542936 117.269601 
L 790.301339 118.568007 
L 790.887474 115.93462 
L 792.059743 114.361903 
L 792.645877 112.386863 
L 794.40428 111.746804 
L 794.990415 117.031865 
L 795.576549 118.183971 
L 796.162684 120.140724 
L 796.748818 117.964523 
L 798.507222 121.640292 
L 799.679491 134.587776 
L 800.265625 132.740748 
L 800.851759 135.90447 
L 802.610163 134.404902 
L 803.782432 129.101554 
L 804.954701 132.210413 
L 806.713104 126.486455 
L 807.299238 125.517222 
L 807.885373 126.193856 
L 808.471507 124.383403 
L 809.057642 123.469032 
L 810.816045 114.03273 
L 811.988314 113.923005 
L 812.574449 113.685269 
L 814.918986 115.404286 
L 815.505121 112.789186 
L 816.091255 109.643752 
L 816.67739 111.911391 
L 817.263524 111.509068 
L 819.021928 114.343616 
L 819.608062 114.325328 
L 820.194196 117.342751 
L 820.780331 121.036807 
L 821.366465 120.012712 
L 823.124869 118.05596 
L 823.711003 121.640292 
L 824.297138 127.272813 
L 824.883272 126.029269 
L 825.469407 123.889643 
L 827.22781 124.310253 
L 827.813944 131.606929 
L 828.400079 137.074864 
L 828.986213 136.763978 
L 829.572348 131.643504 
L 831.330751 128.516357 
L 831.916886 127.729998 
L 832.50302 129.613601 
L 833.089154 132.228701 
L 833.675289 133.709981 
L 835.433692 131.771515 
L 836.019827 132.356713 
L 836.605961 128.607794 
L 837.192096 130.619409 
L 837.77823 131.131456 
L 839.536633 130.381672 
L 840.122768 128.827243 
L 840.708902 126.047557 
L 841.295037 129.887912 
L 841.881171 128.626081 
L 844.811843 136.471379 
L 845.984112 130.125649 
L 847.742516 129.064979 
L 848.32865 129.83305 
L 848.914785 128.626081 
L 851.845457 137.970947 
L 852.431591 133.490532 
L 853.017726 135.483859 
L 853.60386 130.96687 
L 854.189995 129.247853 
L 856.534533 130.546259 
L 857.120667 128.315195 
L 857.706801 133.764843 
L 858.292936 134.295178 
L 860.051339 133.691693 
L 860.637474 137.202876 
L 861.223608 133.966004 
L 861.809743 133.399095 
L 862.395877 132.375 
L 864.15428 132.832185 
L 865.326549 129.174704 
L 865.912684 129.41244 
L 866.498818 125.846395 
L 868.257222 127.272813 
L 868.843356 124.145666 
L 869.429491 122.84726 
L 870.015625 120.561335 
L 870.601759 123.286158 
L 872.360163 125.791533 
L 872.946297 123.725056 
L 873.532432 124.035942 
L 874.118566 123.706769 
L 874.704701 121.091669 
L 876.463104 118.037672 
L 877.049238 116.391806 
L 877.635373 117.708499 
L 878.221507 115.294561 
L 878.807642 113.923005 
L 880.566045 112.880623 
L 881.15218 114.069305 
L 881.738314 117.196451 
L 882.324449 113.648694 
L 882.910583 111.63708 
L 884.668986 113.282946 
L 885.255121 111.765091 
L 885.841255 109.241429 
L 886.42739 111.344481 
L 887.013524 110.594697 
L 888.771928 111.691942 
L 889.944196 116.739266 
L 891.116465 114.270466 
L 892.874869 114.892238 
L 893.461003 115.678597 
L 894.047138 117.178164 
L 894.633272 116.903853 
L 895.219407 114.855663 
L 896.97781 114.965388 
L 897.563944 113.008635 
L 898.150079 112.332001 
L 898.736213 110.50326 
L 899.322348 107.412688 
L 901.666886 104.687865 
L 902.25302 103.66377 
L 902.839154 104.907313 
L 903.425289 103.572333 
L 905.183692 103.59062 
L 905.769827 100.993808 
L 906.355961 101.322982 
L 906.942096 97.994673 
L 907.52823 97.574063 
L 909.286633 96.659693 
L 909.872768 96.824279 
L 910.458902 98.305559 
L 911.045037 98.72617 
L 911.631171 98.781032 
L 913.389575 98.744457 
L 913.975709 97.519201 
L 914.561843 92.782762 
L 915.147978 94.922389 
L 915.734112 95.050401 
L 917.492516 103.462608 
L 918.07865 103.078573 
L 918.664785 112.423438 
L 919.250919 115.605447 
L 919.837054 114.672789 
L 921.595457 108.144185 
L 922.181591 109.058555 
L 922.767726 112.405151 
L 923.35386 112.075977 
L 923.939995 103.133435 
L 925.698398 105.401073 
L 926.284533 104.943888 
L 926.870667 102.017903 
L 927.456801 100.408611 
L 928.042936 100.810934 
L 929.801339 105.0719 
L 930.387474 108.290484 
L 930.973608 104.523278 
L 931.559743 108.546508 
L 932.145877 103.883219 
L 933.90428 109.424303 
L 934.490415 109.497453 
L 935.076549 114.581352 
L 935.662684 110.521548 
L 936.248818 114.10588 
L 938.007222 113.575545 
L 938.593356 120.104149 
L 939.179491 123.889643 
L 939.765625 123.030135 
L 940.351759 120.433323 
L 942.110163 118.439995 
L 942.696297 118.531432 
L 943.282432 120.890508 
L 943.868566 127.766573 
L 944.454701 121.93289 
L 946.213104 118.805743 
L 946.799238 118.568007 
L 947.971507 120.543047 
L 948.557642 121.987752 
L 950.316045 123.084997 
L 951.488314 117.379326 
L 952.074449 117.873086 
L 952.660583 125.096612 
L 954.418986 126.651041 
L 955.005121 128.168896 
L 955.591255 133.472244 
L 956.17739 133.92943 
L 956.763524 130.655984 
L 958.521928 130.308523 
L 959.108062 135.41071 
L 959.694196 133.545394 
L 960.280331 129.247853 
L 960.866465 129.357578 
L 962.624869 126.797341 
L 963.211003 124.456552 
L 963.797138 123.597044 
L 964.969407 124.749151 
L 967.313944 121.091669 
L 969.072348 128.461495 
L 971.416886 130.564547 
L 972.00302 126.248718 
L 972.589154 127.455687 
L 973.175289 125.316061 
L 974.933692 130.143936 
L 975.519827 127.455687 
L 976.105961 128.900392 
L 976.692096 127.784861 
L 977.27823 126.175569 
L 979.622768 126.175569 
L 980.208902 126.925352 
L 980.795037 124.694289 
L 981.381171 125.681809 
L 983.139575 122.938698 
L 983.725709 123.871355 
L 984.311843 122.975272 
L 984.897978 118.604582 
L 985.484112 116.556392 
L 987.242516 118.659444 
L 987.82865 117.799936 
L 988.414785 119.921275 
L 989.000919 125.425785 
L 989.587054 127.93116 
L 991.345457 126.724191 
L 992.517726 124.493127 
L 993.10386 120.067574 
L 993.689995 119.04348 
L 995.448398 119.39094 
L 996.034533 117.98281 
L 996.620667 120.122437 
L 997.206801 117.818223 
L 997.792936 116.702691 
L 1000.137474 118.769169 
L 1001.309743 116.336943 
L 1001.895877 120.085862 
L 1003.65428 118.421708 
L 1004.240415 116.373518 
L 1004.826549 116.318656 
L 1005.998818 116.556392 
L 1007.757222 117.927948 
L 1008.343356 119.317791 
L 1008.929491 117.635349 
L 1009.515625 117.635349 
L 1010.101759 119.244641 
L 1011.860163 119.006905 
L 1012.446297 119.53724 
L 1013.032432 115.678597 
L 1013.618566 113.136647 
L 1014.204701 113.282946 
L 1016.549238 109.552315 
L 1017.135373 112.167414 
L 1017.721507 112.4783 
L 1018.307642 113.11836 
L 1020.066045 110.704422 
L 1020.65218 111.618792 
L 1021.238314 111.911391 
L 1021.824449 109.369441 
L 1024.168986 109.479165 
L 1024.755121 106.736054 
L 1025.341255 105.949696 
L 1025.92739 103.572333 
L 1026.513524 102.621387 
L 1028.271928 104.066093 
L 1028.858062 105.821684 
L 1029.444196 103.883219 
L 1030.030331 105.236487 
L 1030.616465 103.938081 
L 1032.961003 104.724439 
L 1033.547138 109.716902 
L 1034.133272 110.046075 
L 1034.719407 109.716902 
L 1036.47781 110.247237 
L 1037.063944 107.650425 
L 1037.650079 108.381921 
L 1038.236213 106.571468 
L 1038.822348 105.675385 
L 1040.580751 107.686999 
L 1041.166886 108.674519 
L 1041.75302 116.757554 
L 1042.339154 116.336943 
L 1042.925289 117.635349 
L 1044.683692 116.958715 
L 1045.269827 117.269601 
L 1045.855961 116.50153 
L 1046.442096 115.952908 
L 1047.02823 117.946235 
L 1048.786633 116.903853 
L 1049.372768 118.696019 
L 1049.958902 118.019385 
L 1050.545037 117.06844 
L 1051.131171 115.770034 
L 1052.889575 116.263794 
L 1054.647978 120.561335 
L 1055.234112 119.171492 
L 1057.57865 115.331136 
L 1058.164785 116.464955 
L 1058.750919 119.646964 
L 1059.337054 120.085862 
L 1061.095457 126.047557 
L 1061.681591 127.583699 
L 1062.267726 125.95612 
L 1062.85386 123.286158 
L 1063.439995 123.743343 
L 1065.198398 120.067574 
L 1065.784533 119.53724 
L 1066.370667 118.293696 
L 1066.956801 118.019385 
L 1067.542936 118.257121 
L 1069.301339 115.276274 
L 1069.887474 113.301234 
L 1071.059743 112.606312 
L 1071.645877 113.46582 
L 1073.40428 112.05769 
L 1073.990415 113.886431 
L 1074.576549 113.447533 
L 1075.162684 111.362768 
L 1075.748818 111.326194 
L 1077.507222 110.978733 
L 1078.093356 111.63708 
L 1078.679491 109.625465 
L 1079.851759 111.088457 
L 1081.610163 112.533162 
L 1082.196297 114.52649 
L 1083.368566 113.173222 
L 1083.954701 113.849856 
L 1085.713104 114.179029 
L 1086.299238 116.227219 
L 1086.885373 113.758419 
L 1087.471507 113.703557 
L 1088.057642 118.238834 
L 1089.816045 118.659444 
L 1090.40218 121.201394 
L 1091.574449 118.714306 
L 1092.160583 120.981945 
L 1093.918986 123.450745 
L 1094.505121 125.553797 
L 1095.091255 121.731729 
L 1095.67739 123.926218 
L 1096.263524 128.882105 
L 1098.021928 129.814763 
L 1098.608062 129.48559 
L 1099.194196 126.102419 
L 1099.780331 124.584564 
L 1100.366465 123.670194 
L 1102.124869 118.842318 
L 1102.711003 121.786591 
L 1103.297138 123.48732 
L 1103.883272 121.146532 
L 1104.469407 123.633619 
L 1106.22781 127.327675 
L 1106.813944 128.168896 
L 1107.400079 130.271948 
L 1107.986213 128.132321 
L 1108.572348 124.840588 
L 1110.330751 120.433323 
L 1110.916886 123.871355 
L 1111.50302 125.517222 
L 1112.089154 123.158146 
L 1112.675289 125.242911 
L 1115.605961 136.39823 
L 1116.192096 136.416517 
L 1116.77823 139.397365 
L 1118.536633 137.970947 
L 1119.122768 142.81711 
L 1120.295037 137.73321 
L 1120.881171 138.391557 
L 1122.639575 136.306793 
L 1123.225709 134.569489 
L 1123.811843 134.660926 
L 1124.397978 132.411575 
L 1124.984112 133.124784 
L 1126.742516 134.203741 
L 1127.32865 131.88124 
L 1128.500919 138.409845 
L 1129.087054 137.714923 
L 1130.845457 138.098959 
L 1131.431591 134.825513 
L 1132.017726 134.203741 
L 1132.60386 127.400825 
L 1133.189995 126.614466 
L 1134.948398 121.347693 
L 1135.534533 128.205471 
L 1136.120667 129.302715 
L 1136.706801 124.145666 
L 1137.292936 124.804013 
L 1139.051339 127.693424 
L 1139.637474 133.563681 
L 1140.223608 133.618544 
L 1140.809743 133.197933 
L 1141.395877 135.739883 
L 1143.15428 133.490532 
L 1143.740415 130.290235 
L 1144.326549 132.265275 
L 1144.912684 133.325945 
L 1145.498818 130.271948 
L 1147.257222 138.739018 
L 1147.843356 139.28764 
L 1148.429491 136.672541 
L 1149.015625 135.557009 
L 1149.601759 135.666733 
L 1151.360163 132.045827 
L 1151.946297 131.222893 
L 1152.532432 132.338425 
L 1153.118566 131.040019 
L 1153.704701 134.258603 
L 1155.463104 137.989234 
L 1156.049238 137.87951 
L 1156.635373 137.166301 
L 1157.221507 136.654253 
L 1157.807642 139.433939 
L 1159.566045 135.300985 
L 1160.15218 135.282698 
L 1160.738314 136.197068 
L 1161.324449 133.600256 
L 1161.910583 131.88124 
L 1163.668986 135.83132 
L 1164.255121 136.197068 
L 1164.841255 136.160493 
L 1166.013524 135.959332 
L 1167.771928 137.989234 
L 1168.358062 134.715788 
L 1168.944196 137.111439 
L 1169.530331 137.513762 
L 1170.116465 139.28764 
L 1171.874869 137.422324 
L 1172.461003 137.330887 
L 1173.047138 134.898662 
L 1173.633272 135.099824 
L 1174.219407 133.124784 
L 1175.97781 134.185453 
L 1176.563944 135.502147 
L 1177.150079 135.136399 
L 1177.736213 136.069056 
L 1178.322348 135.959332 
L 1180.080751 136.526242 
L 1180.666886 134.788938 
L 1181.839154 135.374135 
L 1182.425289 133.709981 
L 1184.183692 133.307658 
L 1184.769827 132.850473 
L 1186.52823 129.430727 
L 1188.286633 129.814763 
L 1188.872768 128.443207 
L 1189.458902 130.070787 
L 1190.045037 128.680944 
L 1190.631171 123.48732 
L 1192.389575 121.201394 
L 1192.975709 123.194721 
L 1193.561843 119.336078 
L 1194.147978 120.689346 
L 1194.734112 121.603717 
L 1197.664785 124.877163 
L 1198.250919 126.175569 
L 1198.837054 125.791533 
L 1200.595457 128.388345 
L 1201.181591 127.638561 
L 1201.767726 129.302715 
L 1202.35386 128.772381 
L 1202.939995 128.973542 
L 1204.698398 130.436535 
L 1205.284533 129.997637 
L 1205.870667 132.905335 
L 1206.456801 133.490532 
L 1207.042936 132.813898 
L 1208.801339 130.601121 
L 1209.387474 128.534644 
L 1209.973608 131.862953 
L 1210.559743 132.155551 
L 1211.145877 132.667598 
L 1212.90428 131.625216 
L 1213.490415 130.655984 
L 1214.076549 130.290235 
L 1214.662684 129.48559 
L 1215.248818 133.234508 
L 1217.007222 132.594449 
L 1217.593356 135.813033 
L 1218.179491 136.709116 
L 1218.765625 133.947717 
L 1218.765625 133.947717 
" clip-path="url(#pfa1e1d0472)" style="fill: none; stroke: #0000ff; stroke-linecap: square"/>
   </g>
   <g id="line2d_26">
    <path d="M 102.765625 152.509434 
L 103.351759 151.558492 
L 105.110163 150.516113 
L 107.454701 147.699861 
L 109.213104 148.266769 
L 109.799238 147.718148 
L 110.971507 146.145436 
L 111.557642 145.139632 
L 113.316045 144.609299 
L 113.90218 147.407263 
L 115.074449 147.791298 
L 115.660583 148.12047 
L 117.418986 143.036587 
L 118.005121 143.932667 
L 118.591255 144.133828 
L 119.17739 149.034837 
L 119.763524 149.729757 
L 121.521928 150.150366 
L 122.108062 151.905951 
L 122.694196 151.467055 
L 123.280331 151.741365 
L 123.866465 150.936722 
L 126.211003 149.748044 
L 126.797138 151.320756 
L 127.383272 154.81364 
L 127.969407 155.746294 
L 129.72781 159.111167 
L 130.313944 161.543384 
L 130.900079 160.226695 
L 131.486213 160.336419 
L 132.072348 161.323936 
L 133.830751 167.212462 
L 134.416886 170.321312 
L 135.00302 170.81507 
L 135.589154 167.724508 
L 136.175289 168.108542 
L 137.933692 170.156726 
L 138.519827 171.7843 
L 139.105961 170.26645 
L 139.692096 166.316382 
L 140.27823 166.206658 
L 142.622768 164.487647 
L 143.208902 163.829303 
L 143.795037 160.830178 
L 144.381171 161.15935 
L 146.139575 163.244108 
L 146.725709 166.53583 
L 147.311843 168.620588 
L 147.897978 171.619713 
L 148.484112 175.405195 
L 150.242516 179.666147 
L 150.82865 172.460932 
L 151.414785 174.74685 
L 152.000919 174.893149 
L 152.587054 177.691113 
L 154.345457 197.587749 
L 154.931591 208.157837 
L 155.517726 200.221127 
L 156.10386 203.275115 
L 156.689995 209.255078 
L 158.448398 206.329102 
L 159.034533 215.03388 
L 159.620667 216.935764 
L 160.206801 220.995556 
L 160.792936 218.14273 
L 162.551339 220.885832 
L 163.137474 218.801074 
L 164.309743 218.892511 
L 166.65428 225.457669 
L 167.240415 227.359553 
L 167.826549 221.928211 
L 168.412684 222.476831 
L 168.998818 214.558409 
L 170.757222 212.199341 
L 171.343356 208.432147 
L 171.929491 210.078009 
L 172.515625 207.79209 
L 174.860163 208.999055 
L 175.446297 210.663204 
L 176.618566 218.033005 
L 177.204701 217.283224 
L 178.963104 218.051293 
L 179.549238 221.873349 
L 180.135373 233.577252 
L 180.721507 230.395253 
L 181.307642 229.499173 
L 183.066045 230.395253 
L 183.65218 232.461724 
L 184.238314 231.401058 
L 184.824449 227.085243 
L 185.410583 220.48351 
L 187.168986 221.416165 
L 187.755121 218.252454 
L 188.341255 211.047238 
L 188.92739 214.265812 
L 189.513524 215.527639 
L 191.271928 213.24172 
L 192.444196 215.454489 
L 193.030331 215.600788 
L 193.616465 212.016468 
L 195.374869 209.529388 
L 195.961003 204.536942 
L 196.547138 206.383964 
L 197.133272 203.878597 
L 197.719407 203.622574 
L 200.063944 205.10385 
L 200.650079 203.329977 
L 201.236213 206.54855 
L 201.822348 205.286723 
L 204.166886 198.977588 
L 204.75302 197.075703 
L 205.339154 197.331726 
L 205.925289 196.325922 
L 207.683692 191.790659 
L 208.269827 194.460612 
L 208.855961 194.606911 
L 209.442096 193.802268 
L 210.02823 199.160461 
L 211.786633 198.593553 
L 212.958902 194.899509 
L 213.545037 195.137244 
L 214.131171 193.601107 
L 215.889575 193.363372 
L 216.475709 190.400821 
L 217.061843 191.936958 
L 217.647978 195.411555 
L 218.234112 193.50967 
L 219.992516 195.631003 
L 220.57865 193.363372 
L 221.164785 193.052487 
L 221.750919 192.503866 
L 224.095457 191.16889 
L 224.681591 190.437396 
L 225.267726 190.784855 
L 225.85386 190.016787 
L 226.439995 191.808947 
L 228.198398 190.510545 
L 228.784533 191.955246 
L 229.370667 190.437396 
L 229.956801 189.541316 
L 230.542936 190.089936 
L 232.301339 190.54712 
L 232.887474 190.382534 
L 233.473608 189.065844 
L 234.059743 188.242914 
L 234.645877 190.053361 
L 236.40428 189.980212 
L 236.990415 189.57789 
L 237.576549 190.163085 
L 238.162684 189.248718 
L 238.748818 190.126511 
L 240.507222 189.705902 
L 241.093356 189.047557 
L 241.679491 188.151477 
L 242.265625 186.61534 
L 242.851759 186.834788 
L 244.610163 187.767443 
L 245.196297 187.072523 
L 245.782432 187.822305 
L 246.368566 186.26788 
L 246.954701 186.962799 
L 248.713104 187.127385 
L 249.299238 186.359317 
L 249.885373 186.981087 
L 250.471507 186.560478 
L 251.057642 187.218822 
L 252.816045 188.114902 
L 253.40218 187.072523 
L 253.988314 185.262076 
L 254.574449 185.92042 
L 255.160583 186.962799 
L 256.918986 185.755834 
L 257.505121 186.011857 
L 258.091255 185.499811 
L 258.67739 188.206339 
L 259.263524 189.120707 
L 261.608062 192.138119 
L 262.194196 196.563658 
L 262.780331 195.02752 
L 263.366465 196.289347 
L 265.711003 196.81968 
L 266.297138 194.826359 
L 266.883272 192.06497 
L 267.469407 190.236235 
L 269.22781 190.675131 
L 269.813944 192.924475 
L 270.400079 193.015912 
L 270.986213 193.454808 
L 271.572348 192.668452 
L 273.330751 192.814751 
L 273.916886 191.754085 
L 274.50302 194.826359 
L 275.089154 192.503866 
L 275.675289 194.75321 
L 277.433692 197.624324 
L 278.019827 193.418234 
L 278.605961 192.650165 
L 279.192096 192.430717 
L 279.77823 189.961925 
L 281.536633 191.278614 
L 282.122768 192.851326 
L 282.708902 191.772372 
L 283.295037 189.961925 
L 283.881171 190.638557 
L 285.639575 191.187177 
L 286.225709 191.754085 
L 286.811843 191.040878 
L 287.397978 193.052487 
L 287.984112 191.735797 
L 289.742516 193.217073 
L 290.32865 195.246968 
L 290.914785 194.899509 
L 291.500919 197.44145 
L 292.087054 200.5503 
L 293.845457 200.916047 
L 294.431591 197.624324 
L 295.60386 194.058291 
L 296.189995 194.789785 
L 297.948398 196.746531 
L 298.534533 192.302705 
L 299.120667 188.95612 
L 299.706801 189.285293 
L 300.292936 190.108223 
L 302.051339 191.205464 
L 302.637474 189.065844 
L 303.223608 189.285293 
L 303.809743 188.590373 
L 304.395877 188.480649 
L 306.15428 186.816501 
L 306.740415 185.518099 
L 307.326549 181.824054 
L 308.498818 179.92217 
L 310.257222 182.025215 
L 310.843356 182.116652 
L 311.429491 183.140743 
L 312.015625 181.421733 
L 312.601759 180.068469 
L 314.360163 179.318687 
L 314.946297 180.324492 
L 316.118566 179.775871 
L 316.704701 177.288792 
L 318.463104 177.800837 
L 319.049238 177.307079 
L 320.807642 175.258896 
L 322.566045 173.686184 
L 323.15218 176.2647 
L 323.738314 178.276309 
L 324.324449 175.898953 
L 326.668986 175.71608 
L 327.255121 175.972103 
L 327.841255 175.99039 
L 328.42739 175.149172 
L 330.771928 174.874862 
L 331.358062 176.557298 
L 331.944196 171.345403 
L 332.530331 170.339599 
L 333.116465 169.754404 
L 334.874869 166.554118 
L 335.461003 167.742795 
L 336.047138 165.603176 
L 336.633272 167.047876 
L 337.219407 166.151796 
L 339.563944 169.242358 
L 340.150079 167.121026 
L 340.736213 167.340474 
L 341.322348 166.663842 
L 343.080751 168.40114 
L 343.666886 166.974727 
L 344.25302 166.791853 
L 344.839154 167.541635 
L 345.425289 167.815945 
L 347.183692 168.949761 
L 348.355961 163.664717 
L 348.942096 162.05543 
L 349.52823 161.269074 
L 351.286633 160.427856 
L 351.872768 158.452822 
L 352.458902 157.373869 
L 353.045037 157.410443 
L 353.631171 158.0505 
L 355.975709 154.557617 
L 356.561843 153.131204 
L 357.147978 150.717273 
L 357.734112 152.94833 
L 359.492516 154.630766 
L 360.07865 149.272573 
L 360.664785 150.058929 
L 361.250919 146.200298 
L 363.595457 151.009871 
L 364.181591 153.423801 
L 364.767726 155.106237 
L 365.35386 152.417997 
L 365.939995 146.346597 
L 367.698398 141.518737 
L 368.284533 144.81046 
L 368.870667 146.218586 
L 369.456801 144.517862 
L 370.042936 142.085645 
L 371.801339 142.94515 
L 372.387474 143.420621 
L 373.559743 145.121345 
L 374.145877 154.447893 
L 375.90428 151.101308 
L 376.490415 151.741365 
L 377.076549 158.983155 
L 377.662684 152.033963 
L 378.248818 156.441214 
L 380.007222 152.235123 
L 380.593356 149.91263 
L 381.179491 151.43048 
L 381.765625 154.155295 
L 384.110163 150.826998 
L 384.696297 155.417122 
L 385.868566 154.173582 
L 386.454701 153.606675 
L 388.213104 154.100433 
L 388.799238 153.698111 
L 389.385373 152.289986 
L 389.971507 148.010746 
L 390.557642 147.078091 
L 392.316045 147.388976 
L 392.90218 146.60262 
L 393.488314 147.992458 
L 394.074449 150.278377 
L 394.660583 149.345722 
L 396.418986 148.614228 
L 397.005121 149.071412 
L 397.591255 147.443838 
L 398.17739 146.748919 
L 398.763524 144.408138 
L 400.521928 147.242677 
L 401.108062 145.63339 
L 401.694196 142.250231 
L 402.280331 143.950954 
L 402.866465 144.463 
L 404.624869 143.859518 
L 405.211003 144.554437 
L 405.797138 143.676644 
L 406.383272 143.128024 
L 406.969407 146.803781 
L 409.313944 142.195369 
L 409.900079 143.932667 
L 411.072348 150.406389 
L 412.830751 147.480413 
L 413.416886 144.280127 
L 414.589154 143.384047 
L 415.175289 142.030783 
L 417.519827 143.109736 
L 418.105961 140.311772 
L 418.692096 139.01337 
L 419.27823 138.867071 
L 421.036633 138.227014 
L 421.622768 138.793922 
L 422.208902 137.422371 
L 422.795037 137.513807 
L 423.381171 136.965187 
L 425.139575 136.782313 
L 425.725709 135.666785 
L 426.311843 133.472303 
L 426.897978 134.057498 
L 427.484112 135.721647 
L 429.242516 135.246176 
L 429.82865 132.539649 
L 430.414785 132.631085 
L 431.000919 131.515557 
L 431.587054 131.076661 
L 433.345457 130.070856 
L 433.931591 132.923683 
L 434.517726 131.936166 
L 435.10386 132.740809 
L 435.689995 131.113235 
L 438.034533 130.198868 
L 438.620667 132.265338 
L 439.206801 134.990153 
L 439.792936 133.362579 
L 441.551339 131.021799 
L 442.137474 131.77158 
L 442.723608 129.63196 
L 443.309743 133.01512 
L 443.895877 135.374188 
L 445.65428 135.849659 
L 446.240415 143.603495 
L 446.826549 143.640069 
L 447.412684 137.49552 
L 447.998818 134.551257 
L 449.757222 133.710039 
L 450.343356 132.576223 
L 450.929491 132.813959 
L 451.515625 132.539649 
L 452.101759 130.729201 
L 453.860163 131.863017 
L 454.446297 135.42905 
L 455.032432 137.074911 
L 455.618566 140.87868 
L 456.204701 139.031657 
L 457.963104 141.226139 
L 458.549238 142.634265 
L 459.135373 139.671715 
L 459.721507 138.446462 
L 460.307642 139.28768 
L 462.066045 140.933542 
L 463.238314 143.146311 
L 463.824449 146.053999 
L 464.410583 147.553562 
L 466.168986 150.150366 
L 466.755121 143.749793 
L 467.341255 139.269393 
L 467.92739 137.970991 
L 468.513524 138.73906 
L 470.271928 134.770705 
L 470.858062 135.794797 
L 471.444196 138.227014 
L 472.030331 139.068232 
L 472.616465 136.197118 
L 474.961003 136.416567 
L 475.547138 138.446462 
L 476.133272 136.544578 
L 476.719407 138.940221 
L 479.063944 134.514682 
L 479.650079 134.313521 
L 480.236213 131.350971 
L 480.822348 132.173902 
L 482.580751 131.478982 
L 483.166886 133.600315 
L 483.75302 132.905395 
L 484.925289 128.205547 
L 486.683692 126.285375 
L 487.269827 124.109181 
L 487.855961 126.2488 
L 489.02823 125.956203 
L 490.786633 124.218905 
L 491.372768 120.707734 
L 491.958902 118.184079 
L 492.545037 121.585526 
L 493.131171 118.677838 
L 494.889575 118.312091 
L 495.475709 116.446781 
L 496.061843 117.269712 
L 496.647978 116.922252 
L 497.234112 115.367828 
L 498.992516 113.813403 
L 499.57865 115.532414 
L 500.164785 113.721966 
L 500.750919 112.295553 
L 501.337054 114.544897 
L 503.681591 112.021243 
L 504.267726 111.838369 
L 504.85386 115.404402 
L 505.439995 115.386115 
L 507.198398 116.227333 
L 507.784533 114.965506 
L 508.370667 115.660425 
L 508.956801 120.634584 
L 509.542936 121.219779 
L 511.301339 118.348666 
L 511.887474 116.483356 
L 512.473608 113.612242 
L 513.059743 118.220654 
L 513.645877 118.165792 
L 515.40428 119.537343 
L 516.576549 118.787562 
L 517.162684 122.536469 
L 517.748818 121.201492 
L 519.507222 125.480732 
L 520.093356 124.109181 
L 520.679491 119.025298 
L 521.851759 118.897286 
L 523.610163 134.770705 
L 524.196297 132.978545 
L 524.782432 141.079841 
L 525.368566 143.512058 
L 525.954701 140.421496 
L 527.713104 140.787243 
L 528.299238 134.862142 
L 528.885373 131.69843 
L 529.471507 130.326879 
L 530.057642 133.83805 
L 531.816045 131.204672 
L 532.988314 135.374188 
L 533.574449 132.978545 
L 534.160583 133.088269 
L 535.918986 135.739935 
L 536.505121 137.49552 
L 537.67739 130.966936 
L 540.021928 129.814833 
L 540.608062 125.114985 
L 541.194196 124.877249 
L 541.780331 124.420066 
L 542.366465 124.602939 
L 544.124869 126.815708 
L 545.297138 122.902216 
L 545.883272 122.774204 
L 546.469407 119.28132 
L 548.22781 119.775079 
L 548.813944 121.292929 
L 549.400079 116.300483 
L 549.986213 114.307161 
L 550.572348 115.495839 
L 552.916886 111.161737 
L 553.50302 107.595704 
L 554.089154 108.912394 
L 554.675289 109.607313 
L 556.433692 109.058692 
L 557.019827 109.936485 
L 557.605961 108.38206 
L 558.192096 105.163487 
L 558.77823 104.962326 
L 560.536633 103.298177 
L 561.122768 105.894981 
L 561.708902 106.059567 
L 562.295037 106.480176 
L 562.881171 102.859281 
L 564.639575 99.768719 
L 565.225709 99.256673 
L 565.811843 102.438672 
L 566.397978 101.615741 
L 566.984112 102.456959 
L 568.742516 95.050583 
L 569.32865 94.227652 
L 569.914785 98.196007 
L 570.500919 100.939109 
L 571.087054 99.311535 
L 573.431591 96.93418 
L 574.017726 92.636653 
L 574.60386 90.935929 
L 575.189995 87.113873 
L 576.948398 85.596023 
L 577.534533 89.930125 
L 578.120667 72.685155 
L 578.706801 60.414344 
L 579.292936 67.125801 
L 581.637474 42.126995 
L 582.223608 32.398125 
L 582.809743 63.175733 
L 583.395877 68.698513 
L 585.15428 62.883136 
L 586.326549 88.229402 
L 586.912684 89.948413 
L 587.498818 73.233775 
L 589.257222 72.99604 
L 589.843356 55.659633 
L 590.429491 59.518264 
L 591.015625 47.576625 
L 591.601759 53.044542 
L 593.360163 49.33221 
L 593.946297 68.680226 
L 594.532432 66.357732 
L 595.704701 75.519694 
L 597.463104 78.701693 
L 598.049238 71.405041 
L 598.635373 75.885441 
L 599.221507 82.542036 
L 599.807642 83.383254 
L 601.566045 80.8596 
L 602.15218 87.845367 
L 602.738314 77.366716 
L 603.324449 71.167305 
L 606.255121 63.34032 
L 606.841255 72.355983 
L 607.42739 73.654385 
L 608.013524 70.673547 
L 609.771928 75.976878 
L 610.358062 81.773967 
L 610.944196 76.65351 
L 611.530331 77.769038 
L 612.116465 72.483994 
L 613.874869 75.13566 
L 614.461003 72.99604 
L 615.047138 75.318533 
L 615.633272 67.930444 
L 616.219407 66.083422 
L 617.97781 62.608826 
L 618.563944 76.30605 
L 619.150079 83.364967 
L 619.736213 72.64858 
L 620.322348 71.843937 
L 622.080751 65.607951 
L 622.666886 60.341194 
L 623.25302 62.901423 
L 623.839154 69.466582 
L 624.425289 65.443365 
L 626.183692 63.175733 
L 627.355961 61.017826 
L 627.942096 60.048597 
L 628.52823 54.397806 
L 630.872768 50.868348 
L 631.458902 56.061955 
L 632.045037 57.54323 
L 632.631171 53.081117 
L 634.389575 47.430326 
L 634.975709 49.752819 
L 635.561843 48.015521 
L 636.147978 42.785339 
L 636.734112 44.522637 
L 638.492516 46.808556 
L 639.07865 45.327281 
L 639.664785 48.070383 
L 640.250919 51.508405 
L 640.837054 51.106083 
L 643.181591 61.237274 
L 643.767726 59.829149 
L 644.35386 67.784145 
L 644.939995 68.533927 
L 646.698398 63.687779 
L 647.284533 57.506655 
L 647.870667 53.629737 
L 648.456801 57.140908 
L 649.042936 69.173984 
L 651.387474 65.242204 
L 651.973608 79.158877 
L 652.559743 86.546966 
L 653.145877 78.262796 
L 654.90428 74.111568 
L 655.490415 75.080798 
L 656.076549 87.735643 
L 656.662684 86.748126 
L 657.248818 87.20531 
L 659.007222 84.79138 
L 659.593356 76.251188 
L 660.179491 73.398362 
L 660.765625 74.056706 
L 661.351759 78.701693 
L 663.110163 80.182968 
L 663.696297 77.677601 
L 664.282432 77.732463 
L 664.868566 72.776592 
L 665.454701 71.7525 
L 667.213104 79.396612 
L 667.799238 86.473816 
L 668.385373 87.132161 
L 668.971507 91.941734 
L 669.557642 98.196007 
L 671.316045 96.952467 
L 671.90218 92.801239 
L 672.488314 92.947538 
L 673.074449 91.466262 
L 673.660583 87.772218 
L 675.418986 90.570182 
L 676.005121 98.10457 
L 676.591255 99.69557 
L 677.17739 98.945788 
L 677.763524 92.636653 
L 679.521928 94.410526 
L 680.108062 92.72809 
L 680.694196 86.181219 
L 681.280331 83.54784 
L 681.866465 86.693264 
L 683.624869 84.955966 
L 684.211003 77.330142 
L 685.383272 96.019812 
L 685.969407 101.103695 
L 688.313944 99.110374 
L 688.900079 99.640708 
L 689.486213 109.07698 
L 690.072348 107.577417 
L 691.830751 100.555075 
L 692.416886 97.062191 
L 693.00302 98.37888 
L 693.589154 96.65987 
L 694.175289 103.572488 
L 696.519827 101.158558 
L 697.105961 103.499338 
L 697.692096 104.907464 
L 698.27823 104.121108 
L 700.036633 110.759416 
L 700.622768 115.898161 
L 701.208902 112.38699 
L 701.795037 106.681337 
L 702.381171 107.394544 
L 704.139575 111.14345 
L 705.897978 97.757111 
L 706.484112 95.635778 
L 708.242516 88.851172 
L 709.414785 98.013133 
L 710.000919 100.24419 
L 710.587054 96.074674 
L 712.345457 101.634029 
L 712.931591 101.067121 
L 713.517726 103.316465 
L 714.10386 100.171041 
L 716.448398 98.159432 
L 717.034533 98.250869 
L 717.620667 98.817777 
L 718.206801 93.496158 
L 718.792936 92.362343 
L 720.551339 93.788756 
L 721.137474 99.640708 
L 721.723608 96.220973 
L 722.309743 94.410526 
L 722.895877 96.568433 
L 724.65428 90.533608 
L 725.240415 90.131286 
L 726.412684 100.116179 
L 726.998818 98.781202 
L 728.757222 93.843618 
L 729.343356 100.134466 
L 729.929491 97.885122 
L 730.515625 99.640708 
L 731.101759 104.79774 
L 732.860163 108.784382 
L 733.446297 109.058692 
L 734.032432 107.668854 
L 735.204701 114.014564 
L 736.963104 116.099322 
L 737.549238 118.787562 
L 738.135373 116.501643 
L 738.721507 110.978864 
L 739.307642 110.009634 
L 741.066045 112.953898 
L 741.65218 117.397723 
L 742.238314 123.432549 
L 742.824449 127.638639 
L 743.410583 129.028477 
L 745.168986 129.138202 
L 745.755121 126.358525 
L 746.92739 117.854907 
L 747.513524 120.59801 
L 749.271928 124.712663 
L 749.858062 122.536469 
L 750.444196 123.139951 
L 751.030331 118.714413 
L 751.616465 119.884803 
L 753.961003 114.892357 
L 754.547138 114.636334 
L 755.133272 117.818333 
L 755.719407 116.355345 
L 758.063944 112.002956 
L 759.236213 126.541398 
L 759.822348 125.224709 
L 761.580751 125.828191 
L 762.166886 123.578847 
L 762.75302 123.798296 
L 763.339154 117.818333 
L 763.925289 115.825011 
L 766.269827 113.100196 
L 766.855961 110.759416 
L 767.442096 114.654621 
L 768.02823 111.41776 
L 769.786633 108.766095 
L 770.372768 108.363773 
L 770.958902 111.527484 
L 771.545037 111.838369 
L 772.131171 109.150129 
L 773.889575 110.613117 
L 774.475709 113.612242 
L 775.061843 112.953898 
L 775.647978 117.397723 
L 776.234112 119.116734 
L 777.992516 123.505698 
L 778.57865 120.488285 
L 779.164785 115.678713 
L 779.750919 113.776828 
L 780.337054 115.312966 
L 782.095457 110.978864 
L 782.681591 112.533289 
L 783.267726 113.374507 
L 783.85386 113.648817 
L 784.439995 114.508322 
L 786.784533 117.544022 
L 787.370667 118.037781 
L 787.956801 122.189009 
L 788.542936 118.750987 
L 790.301339 117.342861 
L 790.887474 118.220654 
L 791.473608 117.379436 
L 792.059743 115.166667 
L 792.645877 114.983793 
L 794.40428 112.204116 
L 794.990415 111.655496 
L 795.576549 117.598884 
L 796.162684 118.257229 
L 796.748818 120.360274 
L 798.507222 118.403528 
L 799.093356 121.786687 
L 800.265625 133.380867 
L 800.851759 133.01512 
L 802.610163 136.05082 
L 803.196297 134.496395 
L 803.782432 132.027603 
L 804.368566 130.838925 
L 804.954701 131.42412 
L 806.713104 131.753293 
L 807.299238 126.376812 
L 807.885373 124.840675 
L 808.471507 126.303662 
L 809.057642 124.365203 
L 811.40218 114.307161 
L 811.988314 113.721966 
L 812.574449 114.215725 
L 814.918986 113.996277 
L 815.505121 115.221529 
L 816.091255 112.899036 
L 816.67739 109.97306 
L 817.263524 111.454335 
L 819.021928 111.582346 
L 819.608062 114.234012 
L 820.194196 114.160863 
L 821.366465 121.530664 
L 823.124869 120.122538 
L 823.711003 118.330378 
L 824.297138 121.219779 
L 824.883272 126.94372 
L 825.469407 126.139076 
L 827.22781 122.719342 
L 827.813944 124.401778 
L 828.986213 137.879554 
L 829.572348 136.489716 
L 831.330751 131.442408 
L 831.916886 128.809029 
L 832.50302 128.077535 
L 833.089154 129.193064 
L 833.675289 131.350971 
L 835.433692 133.56374 
L 836.019827 131.369258 
L 836.605961 132.777384 
L 837.192096 128.918753 
L 837.77823 130.546327 
L 839.536633 130.838925 
L 840.122768 130.418316 
L 840.708902 127.455765 
L 841.295037 126.230513 
L 841.881171 130.144006 
L 844.225709 127.858087 
L 844.811843 134.660981 
L 845.397978 137.513807 
L 845.984112 133.271142 
L 847.742516 127.620352 
L 848.32865 129.503949 
L 848.914785 130.235443 
L 849.500919 128.900466 
L 850.087054 131.222959 
L 851.845457 132.411637 
L 852.431591 137.678394 
L 853.017726 133.892912 
L 853.60386 134.990153 
L 854.189995 131.131523 
L 856.534533 129.942845 
L 857.120667 131.277821 
L 857.706801 128.607868 
L 858.292936 133.746614 
L 860.051339 133.197993 
L 860.637474 133.600315 
L 861.223608 136.654302 
L 861.809743 134.478108 
L 862.395877 133.56374 
L 864.15428 131.954453 
L 865.326549 132.301913 
L 865.912684 129.375937 
L 866.498818 129.485661 
L 868.257222 125.809904 
L 868.843356 126.962007 
L 869.429491 124.365203 
L 870.015625 122.774204 
L 870.601759 120.104251 
L 872.360163 124.054319 
L 872.946297 125.736755 
L 873.532432 123.414261 
L 874.118566 123.962882 
L 874.704701 123.670284 
L 876.463104 121.238067 
L 877.049238 117.873195 
L 877.635373 117.068551 
L 878.221507 117.507448 
L 878.807642 115.642138 
L 880.566045 114.124288 
L 881.738314 112.569863 
L 882.324449 116.757666 
L 882.910583 113.319645 
L 884.668986 111.820082 
L 885.255121 112.368702 
L 885.841255 112.057818 
L 886.42739 109.570738 
L 887.013524 111.362898 
L 888.771928 110.905715 
L 889.358062 111.527484 
L 889.944196 113.685392 
L 890.530331 116.922252 
L 891.116465 116.04446 
L 892.874869 113.795116 
L 893.461003 115.020368 
L 894.047138 115.770149 
L 894.633272 117.580597 
L 895.219407 117.196563 
L 896.97781 114.142575 
L 897.563944 115.038655 
L 898.150079 112.752737 
L 898.736213 112.350415 
L 899.322348 110.576542 
L 901.666886 107.138521 
L 902.25302 104.79774 
L 902.839154 103.645637 
L 903.425289 105.126912 
L 905.183692 103.5542 
L 905.769827 103.737074 
L 906.355961 101.231707 
L 906.942096 100.737948 
L 907.52823 97.20849 
L 909.286633 97.080479 
L 909.872768 96.294123 
L 910.458902 96.568433 
L 911.045037 98.872639 
L 911.631171 98.689765 
L 913.389575 97.903409 
L 913.975709 98.799489 
L 914.561843 97.153628 
L 915.147978 92.65494 
L 915.734112 95.434617 
L 917.492516 100.756236 
L 918.07865 103.956522 
L 918.664785 103.00558 
L 919.250919 112.021243 
L 919.837054 115.331253 
L 921.595457 111.436048 
L 922.181591 108.217474 
L 922.767726 108.875819 
L 923.35386 112.807599 
L 923.939995 111.326324 
L 925.698398 103.078729 
L 926.284533 104.651441 
L 926.870667 103.115304 
L 927.456801 102.31066 
L 928.042936 99.549271 
L 929.801339 100.86596 
L 930.387474 104.121108 
L 930.973608 108.162612 
L 931.559743 104.688016 
L 932.145877 107.943164 
L 933.90428 104.212545 
L 935.076549 113.081909 
L 935.662684 114.014564 
L 936.248818 110.503393 
L 938.007222 113.191633 
L 938.593356 113.484231 
L 939.179491 120.360274 
L 939.765625 123.450836 
L 940.351759 123.597135 
L 942.110163 120.396849 
L 942.696297 118.019493 
L 943.282432 118.696125 
L 943.868566 121.329504 
L 944.454701 127.56549 
L 946.213104 122.189009 
L 946.799238 119.153309 
L 947.385373 118.659551 
L 947.971507 120.067676 
L 948.557642 120.067676 
L 950.316045 122.426744 
L 950.90218 122.792491 
L 951.488314 119.519056 
L 952.074449 117.800045 
L 952.660583 122.189009 
L 954.418986 124.090893 
L 955.591255 128.424995 
L 956.17739 133.472303 
L 956.763524 133.106556 
L 958.521928 130.985224 
L 959.108062 129.90627 
L 959.694196 135.191314 
L 960.280331 132.722522 
L 960.866465 129.266213 
L 962.624869 128.589581 
L 963.797138 124.420066 
L 964.383272 124.621226 
L 964.969407 124.072606 
L 967.313944 124.52979 
L 967.900079 121.695251 
L 968.486213 123.341112 
L 969.072348 127.76665 
L 971.416886 128.150685 
L 972.00302 130.381741 
L 972.589154 125.791617 
L 973.175289 127.437478 
L 974.933692 125.608743 
L 975.519827 129.705109 
L 976.105961 127.693501 
L 976.692096 129.01019 
L 977.27823 125.864766 
L 979.622768 126.559685 
L 980.208902 126.962007 
L 980.795037 126.614547 
L 981.381171 124.913824 
L 983.139575 125.151559 
L 983.725709 123.2131 
L 984.311843 123.523985 
L 984.897978 122.481607 
L 985.484112 118.677838 
L 987.242516 115.495839 
L 987.82865 118.348666 
L 988.414785 118.312091 
L 989.587054 125.023548 
L 991.345457 127.327754 
L 991.931591 126.815708 
L 993.10386 124.18233 
L 993.689995 119.884803 
L 995.448398 119.829941 
L 996.034533 119.299608 
L 996.620667 118.184079 
L 997.206801 120.268837 
L 997.792936 117.873195 
L 1000.137474 117.013689 
L 1000.723608 118.366953 
L 1001.309743 117.269712 
L 1001.895877 116.794241 
L 1003.65428 120.140826 
L 1004.826549 116.830816 
L 1005.412684 116.373632 
L 1005.998818 119.445907 
L 1007.757222 116.483356 
L 1008.343356 117.617172 
L 1008.929491 119.244746 
L 1009.515625 117.854907 
L 1010.101759 116.94054 
L 1011.860163 119.555631 
L 1012.446297 118.604689 
L 1013.032432 118.677838 
L 1013.618566 115.770149 
L 1014.204701 113.667104 
L 1015.963104 113.209921 
L 1016.549238 110.52168 
L 1017.135373 109.845048 
L 1017.721507 111.783507 
L 1018.307642 112.899036 
L 1020.066045 112.807599 
L 1020.65218 110.667979 
L 1021.238314 112.130967 
L 1021.824449 111.106875 
L 1024.168986 110.375381 
L 1024.755121 108.784382 
L 1025.341255 106.205866 
L 1025.92739 105.675533 
L 1026.513524 102.914143 
L 1028.271928 104.194257 
L 1028.858062 103.755361 
L 1029.444196 105.657245 
L 1030.030331 103.773648 
L 1030.616465 104.230832 
L 1032.961003 103.974809 
L 1033.547138 104.669729 
L 1034.133272 109.442727 
L 1034.719407 110.320519 
L 1036.47781 110.174221 
L 1037.063944 109.826761 
L 1037.650079 107.577417 
L 1038.236213 108.217474 
L 1038.822348 106.205866 
L 1040.580751 106.132716 
L 1041.166886 107.83344 
L 1042.339154 116.538218 
L 1042.925289 116.099322 
L 1044.683692 117.598884 
L 1045.269827 116.483356 
L 1045.855961 117.48916 
L 1046.442096 116.135896 
L 1047.02823 115.34954 
L 1048.786633 118.11093 
L 1049.372768 116.647942 
L 1049.958902 117.982919 
L 1050.545037 117.690321 
L 1051.131171 116.757666 
L 1052.889575 115.733575 
L 1053.475709 116.282195 
L 1054.061843 118.513252 
L 1054.647978 119.957952 
L 1055.234112 120.232263 
L 1057.57865 119.116734 
L 1058.164785 114.599759 
L 1058.750919 116.647942 
L 1059.337054 119.793366 
L 1061.095457 120.87232 
L 1061.681591 126.413387 
L 1062.267726 128.223834 
L 1063.439995 123.01194 
L 1065.198398 124.127468 
L 1065.784533 119.445907 
L 1066.370667 119.171596 
L 1066.956801 118.403528 
L 1067.542936 119.135022 
L 1069.301339 118.257229 
L 1069.887474 115.002081 
L 1071.059743 113.209921 
L 1071.645877 112.6613 
L 1073.40428 113.740254 
L 1073.990415 111.801795 
L 1074.576549 114.106001 
L 1075.162684 113.447656 
L 1075.748818 111.088588 
L 1077.507222 114.087713 
L 1078.093356 110.814278 
L 1078.679491 111.161737 
L 1079.851759 110.192508 
L 1081.610163 110.704554 
L 1082.196297 112.6613 
L 1082.782432 113.886552 
L 1083.368566 113.136771 
L 1083.954701 112.825886 
L 1086.299238 114.160863 
L 1086.885373 116.026172 
L 1087.471507 113.539093 
L 1088.057642 114.270587 
L 1090.988314 120.323699 
L 1091.574449 120.25055 
L 1092.160583 118.568114 
L 1093.918986 121.183205 
L 1094.505121 123.341112 
L 1095.091255 124.767525 
L 1095.67739 120.287125 
L 1096.263524 122.975365 
L 1098.021928 127.730076 
L 1098.608062 128.11411 
L 1099.194196 129.997707 
L 1099.780331 125.828191 
L 1100.366465 124.858962 
L 1102.124869 123.651997 
L 1102.711003 119.409332 
L 1103.883272 123.066802 
L 1104.469407 121.292929 
L 1106.22781 123.688572 
L 1106.813944 127.181455 
L 1107.400079 128.38842 
L 1107.986213 130.070856 
L 1108.572348 128.315271 
L 1110.330751 124.292054 
L 1110.916886 120.817458 
L 1112.089154 126.04764 
L 1112.675289 123.926307 
L 1115.019827 128.73588 
L 1115.605961 134.606119 
L 1116.192096 136.544578 
L 1116.77823 136.123969 
L 1118.536633 138.556186 
L 1119.122768 137.861267 
L 1119.708902 141.921059 
L 1120.295037 140.019174 
L 1120.881171 137.001762 
L 1122.639575 137.641819 
L 1123.225709 135.831371 
L 1123.811843 134.606119 
L 1124.397978 136.032532 
L 1124.984112 132.411637 
L 1126.742516 132.631085 
L 1127.32865 133.508878 
L 1127.914785 131.954453 
L 1128.500919 134.990153 
L 1129.087054 139.068232 
L 1131.431591 137.678394 
L 1132.017726 133.28943 
L 1132.60386 132.685947 
L 1133.189995 126.724272 
L 1134.948398 126.687697 
L 1135.534533 120.927182 
L 1136.120667 127.583777 
L 1136.706801 128.991903 
L 1137.292936 124.45664 
L 1139.051339 125.608743 
L 1139.637474 131.808155 
L 1140.223608 132.704235 
L 1140.809743 133.106556 
L 1141.395877 133.069982 
L 1143.15428 135.593636 
L 1143.740415 133.764901 
L 1144.326549 131.003511 
L 1144.912684 131.808155 
L 1145.498818 133.01512 
L 1147.257222 134.020924 
L 1147.843356 137.477233 
L 1148.429491 138.921933 
L 1149.601759 133.783188 
L 1151.360163 134.514682 
L 1151.946297 131.826442 
L 1152.532432 131.296109 
L 1153.118566 131.991028 
L 1153.704701 131.241247 
L 1155.463104 134.496395 
L 1156.049238 137.824692 
L 1156.635373 138.080715 
L 1157.221507 137.696681 
L 1157.807642 136.892038 
L 1159.566045 139.726577 
L 1160.15218 135.520486 
L 1160.738314 135.227889 
L 1161.324449 135.630211 
L 1161.910583 133.490591 
L 1163.668986 131.808155 
L 1164.255121 135.630211 
L 1164.841255 135.959383 
L 1166.013524 135.995957 
L 1167.771928 138.153865 
L 1168.358062 137.934416 
L 1168.944196 134.368383 
L 1169.530331 136.855463 
L 1170.116465 137.367509 
L 1171.874869 139.433979 
L 1172.461003 137.806405 
L 1173.047138 137.623532 
L 1173.633272 134.770705 
L 1174.219407 135.063303 
L 1175.97781 133.088269 
L 1177.150079 135.227889 
L 1177.736213 135.97767 
L 1178.322348 136.379992 
L 1180.666886 136.142256 
L 1181.839154 134.423245 
L 1182.425289 135.593636 
L 1184.183692 133.600315 
L 1184.769827 133.83805 
L 1185.942096 132.411637 
L 1186.52823 130.546327 
L 1188.286633 129.2845 
L 1188.872768 129.924558 
L 1189.458902 128.095823 
L 1190.045037 130.070856 
L 1190.631171 128.150685 
L 1192.389575 123.871445 
L 1192.975709 121.384366 
L 1193.561843 122.463319 
L 1194.147978 118.586401 
L 1194.734112 120.652872 
L 1197.07865 121.329504 
L 1197.664785 124.310341 
L 1198.250919 125.041835 
L 1198.837054 126.925432 
L 1200.595457 125.70018 
L 1201.181591 128.406708 
L 1201.767726 127.382616 
L 1202.35386 128.790742 
L 1202.939995 128.534719 
L 1204.698398 128.863891 
L 1205.284533 131.241247 
L 1205.870667 130.217155 
L 1206.456801 132.923683 
L 1207.042936 133.655177 
L 1208.801339 133.033407 
L 1209.387474 130.272017 
L 1209.973608 128.863891 
L 1210.559743 132.247051 
L 1211.145877 131.753293 
L 1212.90428 132.850533 
L 1213.490415 132.850533 
L 1214.076549 130.729201 
L 1214.662684 130.290305 
L 1215.248818 129.339362 
L 1217.007222 134.18551 
L 1217.593356 132.39335 
L 1218.179491 135.593636 
L 1218.765625 136.416567 
L 1218.765625 136.416567 
" clip-path="url(#pfa1e1d0472)" style="fill: none; stroke: #ffa500; stroke-linecap: square"/>
   </g>
   <g id="text_15">
    <!-- Previso com Modelo XGBoost - 97.36% -->
    <g transform="translate(540.762813 16.318125) scale(0.12 -0.12)">
     <defs>
      <path id="DejaVuSans-50" d="M 1259 4147 
L 1259 2394 
L 2053 2394 
Q 2494 2394 2734 2622 
Q 2975 2850 2975 3272 
Q 2975 3691 2734 3919 
Q 2494 4147 2053 4147 
L 1259 4147 
z
M 628 4666 
L 2053 4666 
Q 2838 4666 3239 4311 
Q 3641 3956 3641 3272 
Q 3641 2581 3239 2228 
Q 2838 1875 2053 1875 
L 1259 1875 
L 1259 0 
L 628 0 
L 628 4666 
z
" transform="scale(0.015625)"/>
      <path id="DejaVuSans-72" d="M 2631 2963 
Q 2534 3019 2420 3045 
Q 2306 3072 2169 3072 
Q 1681 3072 1420 2755 
Q 1159 2438 1159 1844 
L 1159 0 
L 581 0 
L 581 3500 
L 1159 3500 
L 1159 2956 
Q 1341 3275 1631 3429 
Q 1922 3584 2338 3584 
Q 2397 3584 2469 3576 
Q 2541 3569 2628 3553 
L 2631 2963 
z
" transform="scale(0.015625)"/>
      <path id="DejaVuSans-76" d="M 191 3500 
L 800 3500 
L 1894 563 
L 2988 3500 
L 3597 3500 
L 2284 0 
L 1503 0 
L 191 3500 
z
" transform="scale(0.015625)"/>
      <path id="DejaVuSans-69" d="M 603 3500 
L 1178 3500 
L 1178 0 
L 603 0 
L 603 3500 
z
M 603 4863 
L 1178 4863 
L 1178 4134 
L 603 4134 
L 603 4863 
z
" transform="scale(0.015625)"/>
      <path id="DejaVuSans-73" d="M 2834 3397 
L 2834 2853 
Q 2591 2978 2328 3040 
Q 2066 3103 1784 3103 
Q 1356 3103 1142 2972 
Q 928 2841 928 2578 
Q 928 2378 1081 2264 
Q 1234 2150 1697 2047 
L 1894 2003 
Q 2506 1872 2764 1633 
Q 3022 1394 3022 966 
Q 3022 478 2636 193 
Q 2250 -91 1575 -91 
Q 1294 -91 989 -36 
Q 684 19 347 128 
L 347 722 
Q 666 556 975 473 
Q 1284 391 1588 391 
Q 1994 391 2212 530 
Q 2431 669 2431 922 
Q 2431 1156 2273 1281 
Q 2116 1406 1581 1522 
L 1381 1569 
Q 847 1681 609 1914 
Q 372 2147 372 2553 
Q 372 3047 722 3315 
Q 1072 3584 1716 3584 
Q 2034 3584 2315 3537 
Q 2597 3491 2834 3397 
z
" transform="scale(0.015625)"/>
      <path id="DejaVuSans-e3" d="M 2194 1759 
Q 1497 1759 1228 1600 
Q 959 1441 959 1056 
Q 959 750 1161 570 
Q 1363 391 1709 391 
Q 2188 391 2477 730 
Q 2766 1069 2766 1631 
L 2766 1759 
L 2194 1759 
z
M 3341 1997 
L 3341 0 
L 2766 0 
L 2766 531 
Q 2569 213 2275 61 
Q 1981 -91 1556 -91 
Q 1019 -91 701 211 
Q 384 513 384 1019 
Q 384 1609 779 1909 
Q 1175 2209 1959 2209 
L 2766 2209 
L 2766 2266 
Q 2766 2663 2505 2880 
Q 2244 3097 1772 3097 
Q 1472 3097 1187 3025 
Q 903 2953 641 2809 
L 641 3341 
Q 956 3463 1253 3523 
Q 1550 3584 1831 3584 
Q 2591 3584 2966 3190 
Q 3341 2797 3341 1997 
z
M 1844 4281 
L 1665 4453 
Q 1597 4516 1545 4545 
Q 1494 4575 1453 4575 
Q 1334 4575 1278 4461 
Q 1222 4347 1215 4091 
L 825 4091 
Q 831 4513 990 4742 
Q 1150 4972 1434 4972 
Q 1553 4972 1653 4928 
Q 1753 4884 1869 4781 
L 2047 4609 
Q 2115 4547 2167 4517 
Q 2219 4488 2259 4488 
Q 2378 4488 2434 4602 
Q 2490 4716 2497 4972 
L 2887 4972 
Q 2881 4550 2721 4320 
Q 2562 4091 2278 4091 
Q 2159 4091 2059 4134 
Q 1959 4178 1844 4281 
z
" transform="scale(0.015625)"/>
      <path id="DejaVuSans-20" transform="scale(0.015625)"/>
      <path id="DejaVuSans-4d" d="M 628 4666 
L 1569 4666 
L 2759 1491 
L 3956 4666 
L 4897 4666 
L 4897 0 
L 4281 0 
L 4281 4097 
L 3078 897 
L 2444 897 
L 1241 4097 
L 1241 0 
L 628 0 
L 628 4666 
z
" transform="scale(0.015625)"/>
      <path id="DejaVuSans-64" d="M 2906 2969 
L 2906 4863 
L 3481 4863 
L 3481 0 
L 2906 0 
L 2906 525 
Q 2725 213 2448 61 
Q 2172 -91 1784 -91 
Q 1150 -91 751 415 
Q 353 922 353 1747 
Q 353 2572 751 3078 
Q 1150 3584 1784 3584 
Q 2172 3584 2448 3432 
Q 2725 3281 2906 2969 
z
M 947 1747 
Q 947 1113 1208 752 
Q 1469 391 1925 391 
Q 2381 391 2643 752 
Q 2906 1113 2906 1747 
Q 2906 2381 2643 2742 
Q 2381 3103 1925 3103 
Q 1469 3103 1208 2742 
Q 947 2381 947 1747 
z
" transform="scale(0.015625)"/>
      <path id="DejaVuSans-6c" d="M 603 4863 
L 1178 4863 
L 1178 0 
L 603 0 
L 603 4863 
z
" transform="scale(0.015625)"/>
      <path id="DejaVuSans-58" d="M 403 4666 
L 1081 4666 
L 2241 2931 
L 3406 4666 
L 4084 4666 
L 2584 2425 
L 4184 0 
L 3506 0 
L 2194 1984 
L 872 0 
L 191 0 
L 1856 2491 
L 403 4666 
z
" transform="scale(0.015625)"/>
      <path id="DejaVuSans-47" d="M 3809 666 
L 3809 1919 
L 2778 1919 
L 2778 2438 
L 4434 2438 
L 4434 434 
Q 4069 175 3628 42 
Q 3188 -91 2688 -91 
Q 1594 -91 976 548 
Q 359 1188 359 2328 
Q 359 3472 976 4111 
Q 1594 4750 2688 4750 
Q 3144 4750 3555 4637 
Q 3966 4525 4313 4306 
L 4313 3634 
Q 3963 3931 3569 4081 
Q 3175 4231 2741 4231 
Q 1884 4231 1454 3753 
Q 1025 3275 1025 2328 
Q 1025 1384 1454 906 
Q 1884 428 2741 428 
Q 3075 428 3337 486 
Q 3600 544 3809 666 
z
" transform="scale(0.015625)"/>
      <path id="DejaVuSans-42" d="M 1259 2228 
L 1259 519 
L 2272 519 
Q 2781 519 3026 730 
Q 3272 941 3272 1375 
Q 3272 1813 3026 2020 
Q 2781 2228 2272 2228 
L 1259 2228 
z
M 1259 4147 
L 1259 2741 
L 2194 2741 
Q 2656 2741 2882 2914 
Q 3109 3088 3109 3444 
Q 3109 3797 2882 3972 
Q 2656 4147 2194 4147 
L 1259 4147 
z
M 628 4666 
L 2241 4666 
Q 2963 4666 3353 4366 
Q 3744 4066 3744 3513 
Q 3744 3084 3544 2831 
Q 3344 2578 2956 2516 
Q 3422 2416 3680 2098 
Q 3938 1781 3938 1306 
Q 3938 681 3513 340 
Q 3088 0 2303 0 
L 628 0 
L 628 4666 
z
" transform="scale(0.015625)"/>
      <path id="DejaVuSans-2d" d="M 313 2009 
L 1997 2009 
L 1997 1497 
L 313 1497 
L 313 2009 
z
" transform="scale(0.015625)"/>
      <path id="DejaVuSans-39" d="M 703 97 
L 703 672 
Q 941 559 1184 500 
Q 1428 441 1663 441 
Q 2288 441 2617 861 
Q 2947 1281 2994 2138 
Q 2813 1869 2534 1725 
Q 2256 1581 1919 1581 
Q 1219 1581 811 2004 
Q 403 2428 403 3163 
Q 403 3881 828 4315 
Q 1253 4750 1959 4750 
Q 2769 4750 3195 4129 
Q 3622 3509 3622 2328 
Q 3622 1225 3098 567 
Q 2575 -91 1691 -91 
Q 1453 -91 1209 -44 
Q 966 3 703 97 
z
M 1959 2075 
Q 2384 2075 2632 2365 
Q 2881 2656 2881 3163 
Q 2881 3666 2632 3958 
Q 2384 4250 1959 4250 
Q 1534 4250 1286 3958 
Q 1038 3666 1038 3163 
Q 1038 2656 1286 2365 
Q 1534 2075 1959 2075 
z
" transform="scale(0.015625)"/>
      <path id="DejaVuSans-37" d="M 525 4666 
L 3525 4666 
L 3525 4397 
L 1831 0 
L 1172 0 
L 2766 4134 
L 525 4134 
L 525 4666 
z
" transform="scale(0.015625)"/>
      <path id="DejaVuSans-2e" d="M 684 794 
L 1344 794 
L 1344 0 
L 684 0 
L 684 794 
z
" transform="scale(0.015625)"/>
      <path id="DejaVuSans-25" d="M 4653 2053 
Q 4381 2053 4226 1822 
Q 4072 1591 4072 1178 
Q 4072 772 4226 539 
Q 4381 306 4653 306 
Q 4919 306 5073 539 
Q 5228 772 5228 1178 
Q 5228 1588 5073 1820 
Q 4919 2053 4653 2053 
z
M 4653 2450 
Q 5147 2450 5437 2106 
Q 5728 1763 5728 1178 
Q 5728 594 5436 251 
Q 5144 -91 4653 -91 
Q 4153 -91 3862 251 
Q 3572 594 3572 1178 
Q 3572 1766 3864 2108 
Q 4156 2450 4653 2450 
z
M 1428 4353 
Q 1159 4353 1004 4120 
Q 850 3888 850 3481 
Q 850 3069 1003 2837 
Q 1156 2606 1428 2606 
Q 1700 2606 1854 2837 
Q 2009 3069 2009 3481 
Q 2009 3884 1853 4118 
Q 1697 4353 1428 4353 
z
M 4250 4750 
L 4750 4750 
L 1831 -91 
L 1331 -91 
L 4250 4750 
z
M 1428 4750 
Q 1922 4750 2215 4408 
Q 2509 4066 2509 3481 
Q 2509 2891 2217 2550 
Q 1925 2209 1428 2209 
Q 931 2209 642 2551 
Q 353 2894 353 3481 
Q 353 4063 643 4406 
Q 934 4750 1428 4750 
z
" transform="scale(0.015625)"/>
     </defs>
     <use xlink:href="#DejaVuSans-50"/>
     <use xlink:href="#DejaVuSans-72" transform="translate(58.552734 0)"/>
     <use xlink:href="#DejaVuSans-65" transform="translate(97.416016 0)"/>
     <use xlink:href="#DejaVuSans-76" transform="translate(158.939453 0)"/>
     <use xlink:href="#DejaVuSans-69" transform="translate(218.119141 0)"/>
     <use xlink:href="#DejaVuSans-73" transform="translate(245.902344 0)"/>
     <use xlink:href="#DejaVuSans-e3" transform="translate(298.001953 0)"/>
     <use xlink:href="#DejaVuSans-6f" transform="translate(359.28125 0)"/>
     <use xlink:href="#DejaVuSans-20" transform="translate(420.462891 0)"/>
     <use xlink:href="#DejaVuSans-63" transform="translate(452.25 0)"/>
     <use xlink:href="#DejaVuSans-6f" transform="translate(507.230469 0)"/>
     <use xlink:href="#DejaVuSans-6d" transform="translate(568.412109 0)"/>
     <use xlink:href="#DejaVuSans-20" transform="translate(665.824219 0)"/>
     <use xlink:href="#DejaVuSans-4d" transform="translate(697.611328 0)"/>
     <use xlink:href="#DejaVuSans-6f" transform="translate(783.890625 0)"/>
     <use xlink:href="#DejaVuSans-64" transform="translate(845.072266 0)"/>
     <use xlink:href="#DejaVuSans-65" transform="translate(908.548828 0)"/>
     <use xlink:href="#DejaVuSans-6c" transform="translate(970.072266 0)"/>
     <use xlink:href="#DejaVuSans-6f" transform="translate(997.855469 0)"/>
     <use xlink:href="#DejaVuSans-20" transform="translate(1059.037109 0)"/>
     <use xlink:href="#DejaVuSans-58" transform="translate(1090.824219 0)"/>
     <use xlink:href="#DejaVuSans-47" transform="translate(1159.330078 0)"/>
     <use xlink:href="#DejaVuSans-42" transform="translate(1236.820312 0)"/>
     <use xlink:href="#DejaVuSans-6f" transform="translate(1305.423828 0)"/>
     <use xlink:href="#DejaVuSans-6f" transform="translate(1366.605469 0)"/>
     <use xlink:href="#DejaVuSans-73" transform="translate(1427.787109 0)"/>
     <use xlink:href="#DejaVuSans-74" transform="translate(1479.886719 0)"/>
     <use xlink:href="#DejaVuSans-20" transform="translate(1519.095703 0)"/>
     <use xlink:href="#DejaVuSans-2d" transform="translate(1550.882812 0)"/>
     <use xlink:href="#DejaVuSans-20" transform="translate(1586.966797 0)"/>
     <use xlink:href="#DejaVuSans-39" transform="translate(1618.753906 0)"/>
     <use xlink:href="#DejaVuSans-37" transform="translate(1682.376953 0)"/>
     <use xlink:href="#DejaVuSans-2e" transform="translate(1746 0)"/>
     <use xlink:href="#DejaVuSans-33" transform="translate(1777.787109 0)"/>
     <use xlink:href="#DejaVuSans-36" transform="translate(1841.410156 0)"/>
     <use xlink:href="#DejaVuSans-25" transform="translate(1905.033203 0)"/>
    </g>
   </g>
   <g id="legend_1">
    <g id="patch_3">
     <path d="M 1174.115625 59.674375 
L 1267.565625 59.674375 
Q 1269.565625 59.674375 1269.565625 57.674375 
L 1269.565625 29.318125 
Q 1269.565625 27.318125 1267.565625 27.318125 
L 1174.115625 27.318125 
Q 1172.115625 27.318125 1172.115625 29.318125 
L 1172.115625 57.674375 
Q 1172.115625 59.674375 1174.115625 59.674375 
z
" style="fill: #fdfefe; opacity: 0.8; stroke: #cccccc; stroke-linejoin: miter"/>
    </g>
    <g id="line2d_27">
     <path d="M 1176.115625 35.416562 
L 1186.115625 35.416562 
L 1196.115625 35.416562 
" style="fill: none; stroke: #0000ff; stroke-linecap: square"/>
    </g>
    <g id="text_16">
     <!-- Dados Reais -->
     <g transform="translate(1204.115625 38.916562) scale(0.1 -0.1)">
      <defs>
       <path id="DejaVuSans-52" d="M 2841 2188 
Q 3044 2119 3236 1894 
Q 3428 1669 3622 1275 
L 4263 0 
L 3584 0 
L 2988 1197 
Q 2756 1666 2539 1819 
Q 2322 1972 1947 1972 
L 1259 1972 
L 1259 0 
L 628 0 
L 628 4666 
L 2053 4666 
Q 2853 4666 3247 4331 
Q 3641 3997 3641 3322 
Q 3641 2881 3436 2590 
Q 3231 2300 2841 2188 
z
M 1259 4147 
L 1259 2491 
L 2053 2491 
Q 2509 2491 2742 2702 
Q 2975 2913 2975 3322 
Q 2975 3731 2742 3939 
Q 2509 4147 2053 4147 
L 1259 4147 
z
" transform="scale(0.015625)"/>
      </defs>
      <use xlink:href="#DejaVuSans-44"/>
      <use xlink:href="#DejaVuSans-61" transform="translate(77.001953 0)"/>
      <use xlink:href="#DejaVuSans-64" transform="translate(138.28125 0)"/>
      <use xlink:href="#DejaVuSans-6f" transform="translate(201.757812 0)"/>
      <use xlink:href="#DejaVuSans-73" transform="translate(262.939453 0)"/>
      <use xlink:href="#DejaVuSans-20" transform="translate(315.039062 0)"/>
      <use xlink:href="#DejaVuSans-52" transform="translate(346.826172 0)"/>
      <use xlink:href="#DejaVuSans-65" transform="translate(411.808594 0)"/>
      <use xlink:href="#DejaVuSans-61" transform="translate(473.332031 0)"/>
      <use xlink:href="#DejaVuSans-69" transform="translate(534.611328 0)"/>
      <use xlink:href="#DejaVuSans-73" transform="translate(562.394531 0)"/>
     </g>
    </g>
    <g id="line2d_28">
     <path d="M 1176.115625 50.094687 
L 1186.115625 50.094687 
L 1196.115625 50.094687 
" style="fill: none; stroke: #ffa500; stroke-linecap: square"/>
    </g>
    <g id="text_17">
     <!-- Previses -->
     <g transform="translate(1204.115625 53.594687) scale(0.1 -0.1)">
      <defs>
       <path id="DejaVuSans-f5" d="M 1959 3097 
Q 1497 3097 1228 2736 
Q 959 2375 959 1747 
Q 959 1119 1226 758 
Q 1494 397 1959 397 
Q 2419 397 2687 759 
Q 2956 1122 2956 1747 
Q 2956 2369 2687 2733 
Q 2419 3097 1959 3097 
z
M 1959 3584 
Q 2709 3584 3137 3096 
Q 3566 2609 3566 1747 
Q 3566 888 3137 398 
Q 2709 -91 1959 -91 
Q 1206 -91 779 398 
Q 353 888 353 1747 
Q 353 2609 779 3096 
Q 1206 3584 1959 3584 
z
M 1948 4281 
L 1769 4453 
Q 1701 4516 1649 4545 
Q 1598 4575 1557 4575 
Q 1438 4575 1382 4461 
Q 1326 4347 1319 4091 
L 929 4091 
Q 935 4513 1094 4742 
Q 1254 4972 1538 4972 
Q 1657 4972 1757 4928 
Q 1857 4884 1973 4781 
L 2151 4609 
Q 2219 4547 2271 4517 
Q 2323 4488 2363 4488 
Q 2482 4488 2538 4602 
Q 2594 4716 2601 4972 
L 2991 4972 
Q 2985 4550 2825 4320 
Q 2666 4091 2382 4091 
Q 2263 4091 2163 4134 
Q 2063 4178 1948 4281 
z
" transform="scale(0.015625)"/>
      </defs>
      <use xlink:href="#DejaVuSans-50"/>
      <use xlink:href="#DejaVuSans-72" transform="translate(58.552734 0)"/>
      <use xlink:href="#DejaVuSans-65" transform="translate(97.416016 0)"/>
      <use xlink:href="#DejaVuSans-76" transform="translate(158.939453 0)"/>
      <use xlink:href="#DejaVuSans-69" transform="translate(218.119141 0)"/>
      <use xlink:href="#DejaVuSans-73" transform="translate(245.902344 0)"/>
      <use xlink:href="#DejaVuSans-f5" transform="translate(298.001953 0)"/>
      <use xlink:href="#DejaVuSans-65" transform="translate(359.183594 0)"/>
      <use xlink:href="#DejaVuSans-73" transform="translate(420.707031 0)"/>
     </g>
    </g>
   </g>
  </g>
 </g>
 <defs>
  <clipPath id="pfa1e1d0472">
   <rect x="46.965625" y="22.318125" width="1227.6" height="221.76"/>
  </clipPath>
 </defs>
</svg>
