<?xml version="1.0" encoding="utf-8" standalone="no"?>
<!DOCTYPE svg PUBLIC "-//W3C//DTD SVG 1.1//EN"
  "http://www.w3.org/Graphics/SVG/1.1/DTD/svg11.dtd">
<svg xmlns:xlink="http://www.w3.org/1999/xlink" width="856.495625pt" height="202.334887pt" viewBox="0 0 856.495625 202.334887" xmlns="http://www.w3.org/2000/svg" version="1.1">
 <metadata>
  <rdf:RDF xmlns:dc="http://purl.org/dc/elements/1.1/" xmlns:cc="http://creativecommons.org/ns#" xmlns:rdf="http://www.w3.org/1999/02/22-rdf-syntax-ns#">
   <cc:Work>
    <dc:type rdf:resource="http://purl.org/dc/dcmitype/StillImage"/>
    <dc:date>2025-03-03T07:02:26.066255</dc:date>
    <dc:format>image/svg+xml</dc:format>
    <dc:creator>
     <cc:Agent>
      <dc:title>Matplotlib v3.10.0, https://matplotlib.org/</dc:title>
     </cc:Agent>
    </dc:creator>
   </cc:Work>
  </rdf:RDF>
 </metadata>
 <defs>
  <style type="text/css">*{stroke-linejoin: round; stroke-linecap: butt}</style>
 </defs>
 <g id="figure_1">
  <g id="patch_1">
   <path d="M 0 202.334887 
L 856.495625 202.334887 
L 856.495625 0 
L 0 0 
z
" style="fill: #ffffff"/>
  </g>
  <g id="axes_1">
   <g id="patch_2">
    <path d="M 46.965625 154.091687 
L 849.295625 154.091687 
L 849.295625 22.539687 
L 46.965625 22.539687 
z
" style="fill: #fdfefe"/>
   </g>
   <g id="patch_3">
    <path d="M 83.43517 154.091687 
L 114.473081 154.091687 
L 114.473081 48.840185 
L 83.43517 48.840185 
z
" clip-path="url(#p099b692494)" style="fill: #1f77b4"/>
   </g>
   <g id="patch_4">
    <path d="M 122.232559 154.091687 
L 153.27047 154.091687 
L 153.27047 102.963121 
L 122.232559 102.963121 
z
" clip-path="url(#p099b692494)" style="fill: #1f77b4"/>
   </g>
   <g id="patch_5">
    <path d="M 161.029948 154.091687 
L 192.067859 154.091687 
L 192.067859 66.694249 
L 161.029948 66.694249 
z
" clip-path="url(#p099b692494)" style="fill: #1f77b4"/>
   </g>
   <g id="patch_6">
    <path d="M 199.827337 154.091687 
L 230.865248 154.091687 
L 230.865248 47.830847 
L 199.827337 47.830847 
z
" clip-path="url(#p099b692494)" style="fill: #1f77b4"/>
   </g>
   <g id="patch_7">
    <path d="M 238.624726 154.091687 
L 269.662637 154.091687 
L 269.662637 33.666474 
L 238.624726 33.666474 
z
" clip-path="url(#p099b692494)" style="fill: #1f77b4"/>
   </g>
   <g id="patch_8">
    <path d="M 277.422114 154.091687 
L 308.460025 154.091687 
L 308.460025 29.483329 
L 277.422114 29.483329 
z
" clip-path="url(#p099b692494)" style="fill: #1f77b4"/>
   </g>
   <g id="patch_9">
    <path d="M 316.219503 154.091687 
L 347.257414 154.091687 
L 347.257414 29.83099 
L 316.219503 29.83099 
z
" clip-path="url(#p099b692494)" style="fill: #1f77b4"/>
   </g>
   <g id="patch_10">
    <path d="M 355.016892 154.091687 
L 386.054803 154.091687 
L 386.054803 89.79687 
L 355.016892 89.79687 
z
" clip-path="url(#p099b692494)" style="fill: #1f77b4"/>
   </g>
   <g id="patch_11">
    <path d="M 393.814281 154.091687 
L 424.852192 154.091687 
L 424.852192 112.282673 
L 393.814281 112.282673 
z
" clip-path="url(#p099b692494)" style="fill: #1f77b4"/>
   </g>
   <g id="patch_12">
    <path d="M 432.611669 154.091687 
L 463.649581 154.091687 
L 463.649581 91.142654 
L 432.611669 91.142654 
z
" clip-path="url(#p099b692494)" style="fill: #1f77b4"/>
   </g>
   <g id="patch_13">
    <path d="M 471.409058 154.091687 
L 502.446969 154.091687 
L 502.446969 79.400691 
L 471.409058 79.400691 
z
" clip-path="url(#p099b692494)" style="fill: #1f77b4"/>
   </g>
   <g id="patch_14">
    <path d="M 510.206447 154.091687 
L 541.244358 154.091687 
L 541.244358 93.755717 
L 510.206447 93.755717 
z
" clip-path="url(#p099b692494)" style="fill: #1f77b4"/>
   </g>
   <g id="patch_15">
    <path d="M 549.003836 154.091687 
L 580.041747 154.091687 
L 580.041747 80.073583 
L 549.003836 80.073583 
z
" clip-path="url(#p099b692494)" style="fill: #1f77b4"/>
   </g>
   <g id="patch_16">
    <path d="M 587.801225 154.091687 
L 618.839136 154.091687 
L 618.839136 95.99869 
L 587.801225 95.99869 
z
" clip-path="url(#p099b692494)" style="fill: #1f77b4"/>
   </g>
   <g id="patch_17">
    <path d="M 626.598613 154.091687 
L 657.636524 154.091687 
L 657.636524 66.862472 
L 626.598613 66.862472 
z
" clip-path="url(#p099b692494)" style="fill: #1f77b4"/>
   </g>
   <g id="patch_18">
    <path d="M 665.396002 154.091687 
L 696.433913 154.091687 
L 696.433913 57.744788 
L 665.396002 57.744788 
z
" clip-path="url(#p099b692494)" style="fill: #1f77b4"/>
   </g>
   <g id="patch_19">
    <path d="M 704.193391 154.091687 
L 735.231302 154.091687 
L 735.231302 67.692372 
L 704.193391 67.692372 
z
" clip-path="url(#p099b692494)" style="fill: #1f77b4"/>
   </g>
   <g id="patch_20">
    <path d="M 742.99078 154.091687 
L 774.028691 154.091687 
L 774.028691 70.38394 
L 742.99078 70.38394 
z
" clip-path="url(#p099b692494)" style="fill: #1f77b4"/>
   </g>
   <g id="patch_21">
    <path d="M 781.788169 154.091687 
L 812.82608 154.091687 
L 812.82608 71.056832 
L 781.788169 71.056832 
z
" clip-path="url(#p099b692494)" style="fill: #1f77b4"/>
   </g>
   <g id="matplotlib.axis_1">
    <g id="text_1">
     <!-- Ano -->
     <g transform="translate(438.482188 165.690125) scale(0.1 -0.1)">
      <defs>
       <path id="DejaVuSans-41" d="M 2188 4044 
L 1331 1722 
L 3047 1722 
L 2188 4044 
z
M 1831 4666 
L 2547 4666 
L 4325 0 
L 3669 0 
L 3244 1197 
L 1141 1197 
L 716 0 
L 50 0 
L 1831 4666 
z
" transform="scale(0.015625)"/>
       <path id="DejaVuSans-6e" d="M 3513 2113 
L 3513 0 
L 2938 0 
L 2938 2094 
Q 2938 2591 2744 2837 
Q 2550 3084 2163 3084 
Q 1697 3084 1428 2787 
Q 1159 2491 1159 1978 
L 1159 0 
L 581 0 
L 581 3500 
L 1159 3500 
L 1159 2956 
Q 1366 3272 1645 3428 
Q 1925 3584 2291 3584 
Q 2894 3584 3203 3211 
Q 3513 2838 3513 2113 
z
" transform="scale(0.015625)"/>
       <path id="DejaVuSans-6f" d="M 1959 3097 
Q 1497 3097 1228 2736 
Q 959 2375 959 1747 
Q 959 1119 1226 758 
Q 1494 397 1959 397 
Q 2419 397 2687 759 
Q 2956 1122 2956 1747 
Q 2956 2369 2687 2733 
Q 2419 3097 1959 3097 
z
M 1959 3584 
Q 2709 3584 3137 3096 
Q 3566 2609 3566 1747 
Q 3566 888 3137 398 
Q 2709 -91 1959 -91 
Q 1206 -91 779 398 
Q 353 888 353 1747 
Q 353 2609 779 3096 
Q 1206 3584 1959 3584 
z
" transform="scale(0.015625)"/>
      </defs>
      <use xlink:href="#DejaVuSans-41"/>
      <use xlink:href="#DejaVuSans-6e" transform="translate(68.408203 0)"/>
      <use xlink:href="#DejaVuSans-6f" transform="translate(131.787109 0)"/>
     </g>
    </g>
   </g>
   <g id="matplotlib.axis_2">
    <g id="ytick_1">
     <g id="line2d_1">
      <path d="M 46.965625 154.091687 
L 849.295625 154.091687 
" clip-path="url(#p099b692494)" style="fill: none; stroke-dasharray: 1.85,0.8; stroke-dashoffset: 0; stroke: #d3d3d3; stroke-width: 0.5"/>
     </g>
     <g id="line2d_2">
      <defs>
       <path id="m548e875611" d="M 0 0 
L -3.5 0 
" style="stroke: #000000; stroke-width: 0.8"/>
      </defs>
      <g>
       <use xlink:href="#m548e875611" x="46.965625" y="154.091687" style="stroke: #000000; stroke-width: 0.8"/>
      </g>
     </g>
     <g id="text_2">
      <!-- 0 -->
      <g transform="translate(33.603125 157.890906) scale(0.1 -0.1)">
       <defs>
        <path id="DejaVuSans-30" d="M 2034 4250 
Q 1547 4250 1301 3770 
Q 1056 3291 1056 2328 
Q 1056 1369 1301 889 
Q 1547 409 2034 409 
Q 2525 409 2770 889 
Q 3016 1369 3016 2328 
Q 3016 3291 2770 3770 
Q 2525 4250 2034 4250 
z
M 2034 4750 
Q 2819 4750 3233 4129 
Q 3647 3509 3647 2328 
Q 3647 1150 3233 529 
Q 2819 -91 2034 -91 
Q 1250 -91 836 529 
Q 422 1150 422 2328 
Q 422 3509 836 4129 
Q 1250 4750 2034 4750 
z
" transform="scale(0.015625)"/>
       </defs>
       <use xlink:href="#DejaVuSans-30"/>
      </g>
     </g>
    </g>
    <g id="ytick_2">
     <g id="line2d_3">
      <path d="M 46.965625 131.661959 
L 849.295625 131.661959 
" clip-path="url(#p099b692494)" style="fill: none; stroke-dasharray: 1.85,0.8; stroke-dashoffset: 0; stroke: #d3d3d3; stroke-width: 0.5"/>
     </g>
     <g id="line2d_4">
      <g>
       <use xlink:href="#m548e875611" x="46.965625" y="131.661959" style="stroke: #000000; stroke-width: 0.8"/>
      </g>
     </g>
     <g id="text_3">
      <!-- 20 -->
      <g transform="translate(27.240625 135.461177) scale(0.1 -0.1)">
       <defs>
        <path id="DejaVuSans-32" d="M 1228 531 
L 3431 531 
L 3431 0 
L 469 0 
L 469 531 
Q 828 903 1448 1529 
Q 2069 2156 2228 2338 
Q 2531 2678 2651 2914 
Q 2772 3150 2772 3378 
Q 2772 3750 2511 3984 
Q 2250 4219 1831 4219 
Q 1534 4219 1204 4116 
Q 875 4013 500 3803 
L 500 4441 
Q 881 4594 1212 4672 
Q 1544 4750 1819 4750 
Q 2544 4750 2975 4387 
Q 3406 4025 3406 3419 
Q 3406 3131 3298 2873 
Q 3191 2616 2906 2266 
Q 2828 2175 2409 1742 
Q 1991 1309 1228 531 
z
" transform="scale(0.015625)"/>
       </defs>
       <use xlink:href="#DejaVuSans-32"/>
       <use xlink:href="#DejaVuSans-30" transform="translate(63.623047 0)"/>
      </g>
     </g>
    </g>
    <g id="ytick_3">
     <g id="line2d_5">
      <path d="M 46.965625 109.23223 
L 849.295625 109.23223 
" clip-path="url(#p099b692494)" style="fill: none; stroke-dasharray: 1.85,0.8; stroke-dashoffset: 0; stroke: #d3d3d3; stroke-width: 0.5"/>
     </g>
     <g id="line2d_6">
      <g>
       <use xlink:href="#m548e875611" x="46.965625" y="109.23223" style="stroke: #000000; stroke-width: 0.8"/>
      </g>
     </g>
     <g id="text_4">
      <!-- 40 -->
      <g transform="translate(27.240625 113.031449) scale(0.1 -0.1)">
       <defs>
        <path id="DejaVuSans-34" d="M 2419 4116 
L 825 1625 
L 2419 1625 
L 2419 4116 
z
M 2253 4666 
L 3047 4666 
L 3047 1625 
L 3713 1625 
L 3713 1100 
L 3047 1100 
L 3047 0 
L 2419 0 
L 2419 1100 
L 313 1100 
L 313 1709 
L 2253 4666 
z
" transform="scale(0.015625)"/>
       </defs>
       <use xlink:href="#DejaVuSans-34"/>
       <use xlink:href="#DejaVuSans-30" transform="translate(63.623047 0)"/>
      </g>
     </g>
    </g>
    <g id="ytick_4">
     <g id="line2d_7">
      <path d="M 46.965625 86.802501 
L 849.295625 86.802501 
" clip-path="url(#p099b692494)" style="fill: none; stroke-dasharray: 1.85,0.8; stroke-dashoffset: 0; stroke: #d3d3d3; stroke-width: 0.5"/>
     </g>
     <g id="line2d_8">
      <g>
       <use xlink:href="#m548e875611" x="46.965625" y="86.802501" style="stroke: #000000; stroke-width: 0.8"/>
      </g>
     </g>
     <g id="text_5">
      <!-- 60 -->
      <g transform="translate(27.240625 90.60172) scale(0.1 -0.1)">
       <defs>
        <path id="DejaVuSans-36" d="M 2113 2584 
Q 1688 2584 1439 2293 
Q 1191 2003 1191 1497 
Q 1191 994 1439 701 
Q 1688 409 2113 409 
Q 2538 409 2786 701 
Q 3034 994 3034 1497 
Q 3034 2003 2786 2293 
Q 2538 2584 2113 2584 
z
M 3366 4563 
L 3366 3988 
Q 3128 4100 2886 4159 
Q 2644 4219 2406 4219 
Q 1781 4219 1451 3797 
Q 1122 3375 1075 2522 
Q 1259 2794 1537 2939 
Q 1816 3084 2150 3084 
Q 2853 3084 3261 2657 
Q 3669 2231 3669 1497 
Q 3669 778 3244 343 
Q 2819 -91 2113 -91 
Q 1303 -91 875 529 
Q 447 1150 447 2328 
Q 447 3434 972 4092 
Q 1497 4750 2381 4750 
Q 2619 4750 2861 4703 
Q 3103 4656 3366 4563 
z
" transform="scale(0.015625)"/>
       </defs>
       <use xlink:href="#DejaVuSans-36"/>
       <use xlink:href="#DejaVuSans-30" transform="translate(63.623047 0)"/>
      </g>
     </g>
    </g>
    <g id="ytick_5">
     <g id="line2d_9">
      <path d="M 46.965625 64.372772 
L 849.295625 64.372772 
" clip-path="url(#p099b692494)" style="fill: none; stroke-dasharray: 1.85,0.8; stroke-dashoffset: 0; stroke: #d3d3d3; stroke-width: 0.5"/>
     </g>
     <g id="line2d_10">
      <g>
       <use xlink:href="#m548e875611" x="46.965625" y="64.372772" style="stroke: #000000; stroke-width: 0.8"/>
      </g>
     </g>
     <g id="text_6">
      <!-- 80 -->
      <g transform="translate(27.240625 68.171991) scale(0.1 -0.1)">
       <defs>
        <path id="DejaVuSans-38" d="M 2034 2216 
Q 1584 2216 1326 1975 
Q 1069 1734 1069 1313 
Q 1069 891 1326 650 
Q 1584 409 2034 409 
Q 2484 409 2743 651 
Q 3003 894 3003 1313 
Q 3003 1734 2745 1975 
Q 2488 2216 2034 2216 
z
M 1403 2484 
Q 997 2584 770 2862 
Q 544 3141 544 3541 
Q 544 4100 942 4425 
Q 1341 4750 2034 4750 
Q 2731 4750 3128 4425 
Q 3525 4100 3525 3541 
Q 3525 3141 3298 2862 
Q 3072 2584 2669 2484 
Q 3125 2378 3379 2068 
Q 3634 1759 3634 1313 
Q 3634 634 3220 271 
Q 2806 -91 2034 -91 
Q 1263 -91 848 271 
Q 434 634 434 1313 
Q 434 1759 690 2068 
Q 947 2378 1403 2484 
z
M 1172 3481 
Q 1172 3119 1398 2916 
Q 1625 2713 2034 2713 
Q 2441 2713 2670 2916 
Q 2900 3119 2900 3481 
Q 2900 3844 2670 4047 
Q 2441 4250 2034 4250 
Q 1625 4250 1398 4047 
Q 1172 3844 1172 3481 
z
" transform="scale(0.015625)"/>
       </defs>
       <use xlink:href="#DejaVuSans-38"/>
       <use xlink:href="#DejaVuSans-30" transform="translate(63.623047 0)"/>
      </g>
     </g>
    </g>
    <g id="ytick_6">
     <g id="line2d_11">
      <path d="M 46.965625 41.943044 
L 849.295625 41.943044 
" clip-path="url(#p099b692494)" style="fill: none; stroke-dasharray: 1.85,0.8; stroke-dashoffset: 0; stroke: #d3d3d3; stroke-width: 0.5"/>
     </g>
     <g id="line2d_12">
      <g>
       <use xlink:href="#m548e875611" x="46.965625" y="41.943044" style="stroke: #000000; stroke-width: 0.8"/>
      </g>
     </g>
     <g id="text_7">
      <!-- 100 -->
      <g transform="translate(20.878125 45.742262) scale(0.1 -0.1)">
       <defs>
        <path id="DejaVuSans-31" d="M 794 531 
L 1825 531 
L 1825 4091 
L 703 3866 
L 703 4441 
L 1819 4666 
L 2450 4666 
L 2450 531 
L 3481 531 
L 3481 0 
L 794 0 
L 794 531 
z
" transform="scale(0.015625)"/>
       </defs>
       <use xlink:href="#DejaVuSans-31"/>
       <use xlink:href="#DejaVuSans-30" transform="translate(63.623047 0)"/>
       <use xlink:href="#DejaVuSans-30" transform="translate(127.246094 0)"/>
      </g>
     </g>
    </g>
    <g id="text_8">
     <!-- Valor do Brent -->
     <g transform="translate(14.798437 123.907094) rotate(-90) scale(0.1 -0.1)">
      <defs>
       <path id="DejaVuSans-56" d="M 1831 0 
L 50 4666 
L 709 4666 
L 2188 738 
L 3669 4666 
L 4325 4666 
L 2547 0 
L 1831 0 
z
" transform="scale(0.015625)"/>
       <path id="DejaVuSans-61" d="M 2194 1759 
Q 1497 1759 1228 1600 
Q 959 1441 959 1056 
Q 959 750 1161 570 
Q 1363 391 1709 391 
Q 2188 391 2477 730 
Q 2766 1069 2766 1631 
L 2766 1759 
L 2194 1759 
z
M 3341 1997 
L 3341 0 
L 2766 0 
L 2766 531 
Q 2569 213 2275 61 
Q 1981 -91 1556 -91 
Q 1019 -91 701 211 
Q 384 513 384 1019 
Q 384 1609 779 1909 
Q 1175 2209 1959 2209 
L 2766 2209 
L 2766 2266 
Q 2766 2663 2505 2880 
Q 2244 3097 1772 3097 
Q 1472 3097 1187 3025 
Q 903 2953 641 2809 
L 641 3341 
Q 956 3463 1253 3523 
Q 1550 3584 1831 3584 
Q 2591 3584 2966 3190 
Q 3341 2797 3341 1997 
z
" transform="scale(0.015625)"/>
       <path id="DejaVuSans-6c" d="M 603 4863 
L 1178 4863 
L 1178 0 
L 603 0 
L 603 4863 
z
" transform="scale(0.015625)"/>
       <path id="DejaVuSans-72" d="M 2631 2963 
Q 2534 3019 2420 3045 
Q 2306 3072 2169 3072 
Q 1681 3072 1420 2755 
Q 1159 2438 1159 1844 
L 1159 0 
L 581 0 
L 581 3500 
L 1159 3500 
L 1159 2956 
Q 1341 3275 1631 3429 
Q 1922 3584 2338 3584 
Q 2397 3584 2469 3576 
Q 2541 3569 2628 3553 
L 2631 2963 
z
" transform="scale(0.015625)"/>
       <path id="DejaVuSans-20" transform="scale(0.015625)"/>
       <path id="DejaVuSans-64" d="M 2906 2969 
L 2906 4863 
L 3481 4863 
L 3481 0 
L 2906 0 
L 2906 525 
Q 2725 213 2448 61 
Q 2172 -91 1784 -91 
Q 1150 -91 751 415 
Q 353 922 353 1747 
Q 353 2572 751 3078 
Q 1150 3584 1784 3584 
Q 2172 3584 2448 3432 
Q 2725 3281 2906 2969 
z
M 947 1747 
Q 947 1113 1208 752 
Q 1469 391 1925 391 
Q 2381 391 2643 752 
Q 2906 1113 2906 1747 
Q 2906 2381 2643 2742 
Q 2381 3103 1925 3103 
Q 1469 3103 1208 2742 
Q 947 2381 947 1747 
z
" transform="scale(0.015625)"/>
       <path id="DejaVuSans-42" d="M 1259 2228 
L 1259 519 
L 2272 519 
Q 2781 519 3026 730 
Q 3272 941 3272 1375 
Q 3272 1813 3026 2020 
Q 2781 2228 2272 2228 
L 1259 2228 
z
M 1259 4147 
L 1259 2741 
L 2194 2741 
Q 2656 2741 2882 2914 
Q 3109 3088 3109 3444 
Q 3109 3797 2882 3972 
Q 2656 4147 2194 4147 
L 1259 4147 
z
M 628 4666 
L 2241 4666 
Q 2963 4666 3353 4366 
Q 3744 4066 3744 3513 
Q 3744 3084 3544 2831 
Q 3344 2578 2956 2516 
Q 3422 2416 3680 2098 
Q 3938 1781 3938 1306 
Q 3938 681 3513 340 
Q 3088 0 2303 0 
L 628 0 
L 628 4666 
z
" transform="scale(0.015625)"/>
       <path id="DejaVuSans-65" d="M 3597 1894 
L 3597 1613 
L 953 1613 
Q 991 1019 1311 708 
Q 1631 397 2203 397 
Q 2534 397 2845 478 
Q 3156 559 3463 722 
L 3463 178 
Q 3153 47 2828 -22 
Q 2503 -91 2169 -91 
Q 1331 -91 842 396 
Q 353 884 353 1716 
Q 353 2575 817 3079 
Q 1281 3584 2069 3584 
Q 2775 3584 3186 3129 
Q 3597 2675 3597 1894 
z
M 3022 2063 
Q 3016 2534 2758 2815 
Q 2500 3097 2075 3097 
Q 1594 3097 1305 2825 
Q 1016 2553 972 2059 
L 3022 2063 
z
" transform="scale(0.015625)"/>
       <path id="DejaVuSans-74" d="M 1172 4494 
L 1172 3500 
L 2356 3500 
L 2356 3053 
L 1172 3053 
L 1172 1153 
Q 1172 725 1289 603 
Q 1406 481 1766 481 
L 2356 481 
L 2356 0 
L 1766 0 
Q 1100 0 847 248 
Q 594 497 594 1153 
L 594 3053 
L 172 3053 
L 172 3500 
L 594 3500 
L 594 4494 
L 1172 4494 
z
" transform="scale(0.015625)"/>
      </defs>
      <use xlink:href="#DejaVuSans-56"/>
      <use xlink:href="#DejaVuSans-61" transform="translate(60.658203 0)"/>
      <use xlink:href="#DejaVuSans-6c" transform="translate(121.9375 0)"/>
      <use xlink:href="#DejaVuSans-6f" transform="translate(149.720703 0)"/>
      <use xlink:href="#DejaVuSans-72" transform="translate(210.902344 0)"/>
      <use xlink:href="#DejaVuSans-20" transform="translate(252.015625 0)"/>
      <use xlink:href="#DejaVuSans-64" transform="translate(283.802734 0)"/>
      <use xlink:href="#DejaVuSans-6f" transform="translate(347.279297 0)"/>
      <use xlink:href="#DejaVuSans-20" transform="translate(408.460938 0)"/>
      <use xlink:href="#DejaVuSans-42" transform="translate(440.248047 0)"/>
      <use xlink:href="#DejaVuSans-72" transform="translate(508.851562 0)"/>
      <use xlink:href="#DejaVuSans-65" transform="translate(547.714844 0)"/>
      <use xlink:href="#DejaVuSans-6e" transform="translate(609.238281 0)"/>
      <use xlink:href="#DejaVuSans-74" transform="translate(672.617188 0)"/>
     </g>
    </g>
   </g>
   <g id="line2d_13">
    <path d="M 98.954126 61.387185 
L 137.751515 43.125943 
L 176.548904 82.79381 
L 215.346292 63.963744 
L 254.143681 29.618655 
L 292.94107 28.804068 
L 331.738459 32.215741 
L 370.535847 42.745669 
L 409.333236 94.089626 
L 448.130625 103.44527 
L 486.928014 92.717203 
L 525.725403 73.605778 
L 564.522791 82.136406 
L 603.32018 105.770472 
L 642.117569 74.517952 
L 680.914958 43.102285 
L 719.712346 61.916226 
L 758.509735 64.573171 
L 797.307124 68.030781 
" clip-path="url(#p099b692494)" style="fill: none; stroke: #ffa500; stroke-linecap: square"/>
    <defs>
     <path id="mb8be40398c" d="M 0 3 
C 0.795609 3 1.55874 2.683901 2.12132 2.12132 
C 2.683901 1.55874 3 0.795609 3 0 
C 3 -0.795609 2.683901 -1.55874 2.12132 -2.12132 
C 1.55874 -2.683901 0.795609 -3 0 -3 
C -0.795609 -3 -1.55874 -2.683901 -2.12132 -2.12132 
C -2.683901 -1.55874 -3 -0.795609 -3 0 
C -3 0.795609 -2.683901 1.55874 -2.12132 2.12132 
C -1.55874 2.683901 -0.795609 3 0 3 
z
" style="stroke: #ffa500"/>
    </defs>
    <g clip-path="url(#p099b692494)">
     <use xlink:href="#mb8be40398c" x="98.954126" y="61.387185" style="fill: #ffa500; stroke: #ffa500"/>
     <use xlink:href="#mb8be40398c" x="137.751515" y="43.125943" style="fill: #ffa500; stroke: #ffa500"/>
     <use xlink:href="#mb8be40398c" x="176.548904" y="82.79381" style="fill: #ffa500; stroke: #ffa500"/>
     <use xlink:href="#mb8be40398c" x="215.346292" y="63.963744" style="fill: #ffa500; stroke: #ffa500"/>
     <use xlink:href="#mb8be40398c" x="254.143681" y="29.618655" style="fill: #ffa500; stroke: #ffa500"/>
     <use xlink:href="#mb8be40398c" x="292.94107" y="28.804068" style="fill: #ffa500; stroke: #ffa500"/>
     <use xlink:href="#mb8be40398c" x="331.738459" y="32.215741" style="fill: #ffa500; stroke: #ffa500"/>
     <use xlink:href="#mb8be40398c" x="370.535847" y="42.745669" style="fill: #ffa500; stroke: #ffa500"/>
     <use xlink:href="#mb8be40398c" x="409.333236" y="94.089626" style="fill: #ffa500; stroke: #ffa500"/>
     <use xlink:href="#mb8be40398c" x="448.130625" y="103.44527" style="fill: #ffa500; stroke: #ffa500"/>
     <use xlink:href="#mb8be40398c" x="486.928014" y="92.717203" style="fill: #ffa500; stroke: #ffa500"/>
     <use xlink:href="#mb8be40398c" x="525.725403" y="73.605778" style="fill: #ffa500; stroke: #ffa500"/>
     <use xlink:href="#mb8be40398c" x="564.522791" y="82.136406" style="fill: #ffa500; stroke: #ffa500"/>
     <use xlink:href="#mb8be40398c" x="603.32018" y="105.770472" style="fill: #ffa500; stroke: #ffa500"/>
     <use xlink:href="#mb8be40398c" x="642.117569" y="74.517952" style="fill: #ffa500; stroke: #ffa500"/>
     <use xlink:href="#mb8be40398c" x="680.914958" y="43.102285" style="fill: #ffa500; stroke: #ffa500"/>
     <use xlink:href="#mb8be40398c" x="719.712346" y="61.916226" style="fill: #ffa500; stroke: #ffa500"/>
     <use xlink:href="#mb8be40398c" x="758.509735" y="64.573171" style="fill: #ffa500; stroke: #ffa500"/>
     <use xlink:href="#mb8be40398c" x="797.307124" y="68.030781" style="fill: #ffa500; stroke: #ffa500"/>
    </g>
   </g>
   <g id="text_9">
    <!-- 2007 -->
    <g style="fill: #ffffff" transform="translate(87.501626 152.780712) scale(0.09 -0.09)">
     <defs>
      <path id="DejaVuSans-37" d="M 525 4666 
L 3525 4666 
L 3525 4397 
L 1831 0 
L 1172 0 
L 2766 4134 
L 525 4134 
L 525 4666 
z
" transform="scale(0.015625)"/>
     </defs>
     <use xlink:href="#DejaVuSans-32"/>
     <use xlink:href="#DejaVuSans-30" transform="translate(63.623047 0)"/>
     <use xlink:href="#DejaVuSans-30" transform="translate(127.246094 0)"/>
     <use xlink:href="#DejaVuSans-37" transform="translate(190.869141 0)"/>
    </g>
   </g>
   <g id="text_10">
    <!-- 2008 -->
    <g style="fill: #ffffff" transform="translate(126.299015 152.780712) scale(0.09 -0.09)">
     <use xlink:href="#DejaVuSans-32"/>
     <use xlink:href="#DejaVuSans-30" transform="translate(63.623047 0)"/>
     <use xlink:href="#DejaVuSans-30" transform="translate(127.246094 0)"/>
     <use xlink:href="#DejaVuSans-38" transform="translate(190.869141 0)"/>
    </g>
   </g>
   <g id="text_11">
    <!-- 2009 -->
    <g style="fill: #ffffff" transform="translate(165.096404 152.780712) scale(0.09 -0.09)">
     <defs>
      <path id="DejaVuSans-39" d="M 703 97 
L 703 672 
Q 941 559 1184 500 
Q 1428 441 1663 441 
Q 2288 441 2617 861 
Q 2947 1281 2994 2138 
Q 2813 1869 2534 1725 
Q 2256 1581 1919 1581 
Q 1219 1581 811 2004 
Q 403 2428 403 3163 
Q 403 3881 828 4315 
Q 1253 4750 1959 4750 
Q 2769 4750 3195 4129 
Q 3622 3509 3622 2328 
Q 3622 1225 3098 567 
Q 2575 -91 1691 -91 
Q 1453 -91 1209 -44 
Q 966 3 703 97 
z
M 1959 2075 
Q 2384 2075 2632 2365 
Q 2881 2656 2881 3163 
Q 2881 3666 2632 3958 
Q 2384 4250 1959 4250 
Q 1534 4250 1286 3958 
Q 1038 3666 1038 3163 
Q 1038 2656 1286 2365 
Q 1534 2075 1959 2075 
z
" transform="scale(0.015625)"/>
     </defs>
     <use xlink:href="#DejaVuSans-32"/>
     <use xlink:href="#DejaVuSans-30" transform="translate(63.623047 0)"/>
     <use xlink:href="#DejaVuSans-30" transform="translate(127.246094 0)"/>
     <use xlink:href="#DejaVuSans-39" transform="translate(190.869141 0)"/>
    </g>
   </g>
   <g id="text_12">
    <!-- 2010 -->
    <g style="fill: #ffffff" transform="translate(203.893792 152.780712) scale(0.09 -0.09)">
     <use xlink:href="#DejaVuSans-32"/>
     <use xlink:href="#DejaVuSans-30" transform="translate(63.623047 0)"/>
     <use xlink:href="#DejaVuSans-31" transform="translate(127.246094 0)"/>
     <use xlink:href="#DejaVuSans-30" transform="translate(190.869141 0)"/>
    </g>
   </g>
   <g id="text_13">
    <!-- 2011 -->
    <g style="fill: #ffffff" transform="translate(242.691181 152.780712) scale(0.09 -0.09)">
     <use xlink:href="#DejaVuSans-32"/>
     <use xlink:href="#DejaVuSans-30" transform="translate(63.623047 0)"/>
     <use xlink:href="#DejaVuSans-31" transform="translate(127.246094 0)"/>
     <use xlink:href="#DejaVuSans-31" transform="translate(190.869141 0)"/>
    </g>
   </g>
   <g id="text_14">
    <!-- 2012 -->
    <g style="fill: #ffffff" transform="translate(281.48857 152.780712) scale(0.09 -0.09)">
     <use xlink:href="#DejaVuSans-32"/>
     <use xlink:href="#DejaVuSans-30" transform="translate(63.623047 0)"/>
     <use xlink:href="#DejaVuSans-31" transform="translate(127.246094 0)"/>
     <use xlink:href="#DejaVuSans-32" transform="translate(190.869141 0)"/>
    </g>
   </g>
   <g id="text_15">
    <!-- 2013 -->
    <g style="fill: #ffffff" transform="translate(320.285959 152.780712) scale(0.09 -0.09)">
     <defs>
      <path id="DejaVuSans-33" d="M 2597 2516 
Q 3050 2419 3304 2112 
Q 3559 1806 3559 1356 
Q 3559 666 3084 287 
Q 2609 -91 1734 -91 
Q 1441 -91 1130 -33 
Q 819 25 488 141 
L 488 750 
Q 750 597 1062 519 
Q 1375 441 1716 441 
Q 2309 441 2620 675 
Q 2931 909 2931 1356 
Q 2931 1769 2642 2001 
Q 2353 2234 1838 2234 
L 1294 2234 
L 1294 2753 
L 1863 2753 
Q 2328 2753 2575 2939 
Q 2822 3125 2822 3475 
Q 2822 3834 2567 4026 
Q 2313 4219 1838 4219 
Q 1578 4219 1281 4162 
Q 984 4106 628 3988 
L 628 4550 
Q 988 4650 1302 4700 
Q 1616 4750 1894 4750 
Q 2613 4750 3031 4423 
Q 3450 4097 3450 3541 
Q 3450 3153 3228 2886 
Q 3006 2619 2597 2516 
z
" transform="scale(0.015625)"/>
     </defs>
     <use xlink:href="#DejaVuSans-32"/>
     <use xlink:href="#DejaVuSans-30" transform="translate(63.623047 0)"/>
     <use xlink:href="#DejaVuSans-31" transform="translate(127.246094 0)"/>
     <use xlink:href="#DejaVuSans-33" transform="translate(190.869141 0)"/>
    </g>
   </g>
   <g id="text_16">
    <!-- 2014 -->
    <g style="fill: #ffffff" transform="translate(359.083347 152.780712) scale(0.09 -0.09)">
     <use xlink:href="#DejaVuSans-32"/>
     <use xlink:href="#DejaVuSans-30" transform="translate(63.623047 0)"/>
     <use xlink:href="#DejaVuSans-31" transform="translate(127.246094 0)"/>
     <use xlink:href="#DejaVuSans-34" transform="translate(190.869141 0)"/>
    </g>
   </g>
   <g id="text_17">
    <!-- 2015 -->
    <g style="fill: #ffffff" transform="translate(397.880736 152.780712) scale(0.09 -0.09)">
     <defs>
      <path id="DejaVuSans-35" d="M 691 4666 
L 3169 4666 
L 3169 4134 
L 1269 4134 
L 1269 2991 
Q 1406 3038 1543 3061 
Q 1681 3084 1819 3084 
Q 2600 3084 3056 2656 
Q 3513 2228 3513 1497 
Q 3513 744 3044 326 
Q 2575 -91 1722 -91 
Q 1428 -91 1123 -41 
Q 819 9 494 109 
L 494 744 
Q 775 591 1075 516 
Q 1375 441 1709 441 
Q 2250 441 2565 725 
Q 2881 1009 2881 1497 
Q 2881 1984 2565 2268 
Q 2250 2553 1709 2553 
Q 1456 2553 1204 2497 
Q 953 2441 691 2322 
L 691 4666 
z
" transform="scale(0.015625)"/>
     </defs>
     <use xlink:href="#DejaVuSans-32"/>
     <use xlink:href="#DejaVuSans-30" transform="translate(63.623047 0)"/>
     <use xlink:href="#DejaVuSans-31" transform="translate(127.246094 0)"/>
     <use xlink:href="#DejaVuSans-35" transform="translate(190.869141 0)"/>
    </g>
   </g>
   <g id="text_18">
    <!-- 2016 -->
    <g style="fill: #ffffff" transform="translate(436.678125 152.780712) scale(0.09 -0.09)">
     <use xlink:href="#DejaVuSans-32"/>
     <use xlink:href="#DejaVuSans-30" transform="translate(63.623047 0)"/>
     <use xlink:href="#DejaVuSans-31" transform="translate(127.246094 0)"/>
     <use xlink:href="#DejaVuSans-36" transform="translate(190.869141 0)"/>
    </g>
   </g>
   <g id="text_19">
    <!-- 2017 -->
    <g style="fill: #ffffff" transform="translate(475.475514 152.780712) scale(0.09 -0.09)">
     <use xlink:href="#DejaVuSans-32"/>
     <use xlink:href="#DejaVuSans-30" transform="translate(63.623047 0)"/>
     <use xlink:href="#DejaVuSans-31" transform="translate(127.246094 0)"/>
     <use xlink:href="#DejaVuSans-37" transform="translate(190.869141 0)"/>
    </g>
   </g>
   <g id="text_20">
    <!-- 2018 -->
    <g style="fill: #ffffff" transform="translate(514.272903 152.780712) scale(0.09 -0.09)">
     <use xlink:href="#DejaVuSans-32"/>
     <use xlink:href="#DejaVuSans-30" transform="translate(63.623047 0)"/>
     <use xlink:href="#DejaVuSans-31" transform="translate(127.246094 0)"/>
     <use xlink:href="#DejaVuSans-38" transform="translate(190.869141 0)"/>
    </g>
   </g>
   <g id="text_21">
    <!-- 2019 -->
    <g style="fill: #ffffff" transform="translate(553.070291 152.780712) scale(0.09 -0.09)">
     <use xlink:href="#DejaVuSans-32"/>
     <use xlink:href="#DejaVuSans-30" transform="translate(63.623047 0)"/>
     <use xlink:href="#DejaVuSans-31" transform="translate(127.246094 0)"/>
     <use xlink:href="#DejaVuSans-39" transform="translate(190.869141 0)"/>
    </g>
   </g>
   <g id="text_22">
    <!-- 2020 -->
    <g style="fill: #ffffff" transform="translate(591.86768 152.780712) scale(0.09 -0.09)">
     <use xlink:href="#DejaVuSans-32"/>
     <use xlink:href="#DejaVuSans-30" transform="translate(63.623047 0)"/>
     <use xlink:href="#DejaVuSans-32" transform="translate(127.246094 0)"/>
     <use xlink:href="#DejaVuSans-30" transform="translate(190.869141 0)"/>
    </g>
   </g>
   <g id="text_23">
    <!-- 2021 -->
    <g style="fill: #ffffff" transform="translate(630.665069 152.780712) scale(0.09 -0.09)">
     <use xlink:href="#DejaVuSans-32"/>
     <use xlink:href="#DejaVuSans-30" transform="translate(63.623047 0)"/>
     <use xlink:href="#DejaVuSans-32" transform="translate(127.246094 0)"/>
     <use xlink:href="#DejaVuSans-31" transform="translate(190.869141 0)"/>
    </g>
   </g>
   <g id="text_24">
    <!-- 2022 -->
    <g style="fill: #ffffff" transform="translate(669.462458 152.780712) scale(0.09 -0.09)">
     <use xlink:href="#DejaVuSans-32"/>
     <use xlink:href="#DejaVuSans-30" transform="translate(63.623047 0)"/>
     <use xlink:href="#DejaVuSans-32" transform="translate(127.246094 0)"/>
     <use xlink:href="#DejaVuSans-32" transform="translate(190.869141 0)"/>
    </g>
   </g>
   <g id="text_25">
    <!-- 2023 -->
    <g style="fill: #ffffff" transform="translate(708.259846 152.780712) scale(0.09 -0.09)">
     <use xlink:href="#DejaVuSans-32"/>
     <use xlink:href="#DejaVuSans-30" transform="translate(63.623047 0)"/>
     <use xlink:href="#DejaVuSans-32" transform="translate(127.246094 0)"/>
     <use xlink:href="#DejaVuSans-33" transform="translate(190.869141 0)"/>
    </g>
   </g>
   <g id="text_26">
    <!-- 2024 -->
    <g style="fill: #ffffff" transform="translate(747.057235 152.780712) scale(0.09 -0.09)">
     <use xlink:href="#DejaVuSans-32"/>
     <use xlink:href="#DejaVuSans-30" transform="translate(63.623047 0)"/>
     <use xlink:href="#DejaVuSans-32" transform="translate(127.246094 0)"/>
     <use xlink:href="#DejaVuSans-34" transform="translate(190.869141 0)"/>
    </g>
   </g>
   <g id="text_27">
    <!-- 2025 -->
    <g style="fill: #ffffff" transform="translate(785.854624 152.780712) scale(0.09 -0.09)">
     <use xlink:href="#DejaVuSans-32"/>
     <use xlink:href="#DejaVuSans-30" transform="translate(63.623047 0)"/>
     <use xlink:href="#DejaVuSans-32" transform="translate(127.246094 0)"/>
     <use xlink:href="#DejaVuSans-35" transform="translate(190.869141 0)"/>
    </g>
   </g>
   <g id="text_28">
    <!-- Último fechamento anual e a Média de fechamento anual do Brent (2007 a 2025) -->
    <g transform="translate(46.965625 16.539687) scale(0.11 -0.11)">
     <defs>
      <path id="DejaVuSans-da" d="M 556 4666 
L 1191 4666 
L 1191 1831 
Q 1191 1081 1462 751 
Q 1734 422 2344 422 
Q 2950 422 3222 751 
Q 3494 1081 3494 1831 
L 3494 4666 
L 4128 4666 
L 4128 1753 
Q 4128 841 3676 375 
Q 3225 -91 2344 -91 
Q 1459 -91 1007 375 
Q 556 841 556 1753 
L 556 4666 
z
M 2516 5921 
L 3094 5921 
L 2382 5096 
L 1903 5096 
L 2516 5921 
z
" transform="scale(0.015625)"/>
      <path id="DejaVuSans-69" d="M 603 3500 
L 1178 3500 
L 1178 0 
L 603 0 
L 603 3500 
z
M 603 4863 
L 1178 4863 
L 1178 4134 
L 603 4134 
L 603 4863 
z
" transform="scale(0.015625)"/>
      <path id="DejaVuSans-6d" d="M 3328 2828 
Q 3544 3216 3844 3400 
Q 4144 3584 4550 3584 
Q 5097 3584 5394 3201 
Q 5691 2819 5691 2113 
L 5691 0 
L 5113 0 
L 5113 2094 
Q 5113 2597 4934 2840 
Q 4756 3084 4391 3084 
Q 3944 3084 3684 2787 
Q 3425 2491 3425 1978 
L 3425 0 
L 2847 0 
L 2847 2094 
Q 2847 2600 2669 2842 
Q 2491 3084 2119 3084 
Q 1678 3084 1418 2786 
Q 1159 2488 1159 1978 
L 1159 0 
L 581 0 
L 581 3500 
L 1159 3500 
L 1159 2956 
Q 1356 3278 1631 3431 
Q 1906 3584 2284 3584 
Q 2666 3584 2933 3390 
Q 3200 3197 3328 2828 
z
" transform="scale(0.015625)"/>
      <path id="DejaVuSans-66" d="M 2375 4863 
L 2375 4384 
L 1825 4384 
Q 1516 4384 1395 4259 
Q 1275 4134 1275 3809 
L 1275 3500 
L 2222 3500 
L 2222 3053 
L 1275 3053 
L 1275 0 
L 697 0 
L 697 3053 
L 147 3053 
L 147 3500 
L 697 3500 
L 697 3744 
Q 697 4328 969 4595 
Q 1241 4863 1831 4863 
L 2375 4863 
z
" transform="scale(0.015625)"/>
      <path id="DejaVuSans-63" d="M 3122 3366 
L 3122 2828 
Q 2878 2963 2633 3030 
Q 2388 3097 2138 3097 
Q 1578 3097 1268 2742 
Q 959 2388 959 1747 
Q 959 1106 1268 751 
Q 1578 397 2138 397 
Q 2388 397 2633 464 
Q 2878 531 3122 666 
L 3122 134 
Q 2881 22 2623 -34 
Q 2366 -91 2075 -91 
Q 1284 -91 818 406 
Q 353 903 353 1747 
Q 353 2603 823 3093 
Q 1294 3584 2113 3584 
Q 2378 3584 2631 3529 
Q 2884 3475 3122 3366 
z
" transform="scale(0.015625)"/>
      <path id="DejaVuSans-68" d="M 3513 2113 
L 3513 0 
L 2938 0 
L 2938 2094 
Q 2938 2591 2744 2837 
Q 2550 3084 2163 3084 
Q 1697 3084 1428 2787 
Q 1159 2491 1159 1978 
L 1159 0 
L 581 0 
L 581 4863 
L 1159 4863 
L 1159 2956 
Q 1366 3272 1645 3428 
Q 1925 3584 2291 3584 
Q 2894 3584 3203 3211 
Q 3513 2838 3513 2113 
z
" transform="scale(0.015625)"/>
      <path id="DejaVuSans-75" d="M 544 1381 
L 544 3500 
L 1119 3500 
L 1119 1403 
Q 1119 906 1312 657 
Q 1506 409 1894 409 
Q 2359 409 2629 706 
Q 2900 1003 2900 1516 
L 2900 3500 
L 3475 3500 
L 3475 0 
L 2900 0 
L 2900 538 
Q 2691 219 2414 64 
Q 2138 -91 1772 -91 
Q 1169 -91 856 284 
Q 544 659 544 1381 
z
M 1991 3584 
L 1991 3584 
z
" transform="scale(0.015625)"/>
      <path id="DejaVuSans-4d" d="M 628 4666 
L 1569 4666 
L 2759 1491 
L 3956 4666 
L 4897 4666 
L 4897 0 
L 4281 0 
L 4281 4097 
L 3078 897 
L 2444 897 
L 1241 4097 
L 1241 0 
L 628 0 
L 628 4666 
z
" transform="scale(0.015625)"/>
      <path id="DejaVuSans-e9" d="M 3597 1894 
L 3597 1613 
L 953 1613 
Q 991 1019 1311 708 
Q 1631 397 2203 397 
Q 2534 397 2845 478 
Q 3156 559 3463 722 
L 3463 178 
Q 3153 47 2828 -22 
Q 2503 -91 2169 -91 
Q 1331 -91 842 396 
Q 353 884 353 1716 
Q 353 2575 817 3079 
Q 1281 3584 2069 3584 
Q 2775 3584 3186 3129 
Q 3597 2675 3597 1894 
z
M 3022 2063 
Q 3016 2534 2758 2815 
Q 2500 3097 2075 3097 
Q 1594 3097 1305 2825 
Q 1016 2553 972 2059 
L 3022 2063 
z
M 2466 5119 
L 3088 5119 
L 2070 3944 
L 1591 3944 
L 2466 5119 
z
" transform="scale(0.015625)"/>
      <path id="DejaVuSans-28" d="M 1984 4856 
Q 1566 4138 1362 3434 
Q 1159 2731 1159 2009 
Q 1159 1288 1364 580 
Q 1569 -128 1984 -844 
L 1484 -844 
Q 1016 -109 783 600 
Q 550 1309 550 2009 
Q 550 2706 781 3412 
Q 1013 4119 1484 4856 
L 1984 4856 
z
" transform="scale(0.015625)"/>
      <path id="DejaVuSans-29" d="M 513 4856 
L 1013 4856 
Q 1481 4119 1714 3412 
Q 1947 2706 1947 2009 
Q 1947 1309 1714 600 
Q 1481 -109 1013 -844 
L 513 -844 
Q 928 -128 1133 580 
Q 1338 1288 1338 2009 
Q 1338 2731 1133 3434 
Q 928 4138 513 4856 
z
" transform="scale(0.015625)"/>
     </defs>
     <use xlink:href="#DejaVuSans-da"/>
     <use xlink:href="#DejaVuSans-6c" transform="translate(73.193359 0)"/>
     <use xlink:href="#DejaVuSans-74" transform="translate(100.976562 0)"/>
     <use xlink:href="#DejaVuSans-69" transform="translate(140.185547 0)"/>
     <use xlink:href="#DejaVuSans-6d" transform="translate(167.96875 0)"/>
     <use xlink:href="#DejaVuSans-6f" transform="translate(265.380859 0)"/>
     <use xlink:href="#DejaVuSans-20" transform="translate(326.5625 0)"/>
     <use xlink:href="#DejaVuSans-66" transform="translate(358.349609 0)"/>
     <use xlink:href="#DejaVuSans-65" transform="translate(393.554688 0)"/>
     <use xlink:href="#DejaVuSans-63" transform="translate(455.078125 0)"/>
     <use xlink:href="#DejaVuSans-68" transform="translate(510.058594 0)"/>
     <use xlink:href="#DejaVuSans-61" transform="translate(573.4375 0)"/>
     <use xlink:href="#DejaVuSans-6d" transform="translate(634.716797 0)"/>
     <use xlink:href="#DejaVuSans-65" transform="translate(732.128906 0)"/>
     <use xlink:href="#DejaVuSans-6e" transform="translate(793.652344 0)"/>
     <use xlink:href="#DejaVuSans-74" transform="translate(857.03125 0)"/>
     <use xlink:href="#DejaVuSans-6f" transform="translate(896.240234 0)"/>
     <use xlink:href="#DejaVuSans-20" transform="translate(957.421875 0)"/>
     <use xlink:href="#DejaVuSans-61" transform="translate(989.208984 0)"/>
     <use xlink:href="#DejaVuSans-6e" transform="translate(1050.488281 0)"/>
     <use xlink:href="#DejaVuSans-75" transform="translate(1113.867188 0)"/>
     <use xlink:href="#DejaVuSans-61" transform="translate(1177.246094 0)"/>
     <use xlink:href="#DejaVuSans-6c" transform="translate(1238.525391 0)"/>
     <use xlink:href="#DejaVuSans-20" transform="translate(1266.308594 0)"/>
     <use xlink:href="#DejaVuSans-65" transform="translate(1298.095703 0)"/>
     <use xlink:href="#DejaVuSans-20" transform="translate(1359.619141 0)"/>
     <use xlink:href="#DejaVuSans-61" transform="translate(1391.40625 0)"/>
     <use xlink:href="#DejaVuSans-20" transform="translate(1452.685547 0)"/>
     <use xlink:href="#DejaVuSans-4d" transform="translate(1484.472656 0)"/>
     <use xlink:href="#DejaVuSans-e9" transform="translate(1570.751953 0)"/>
     <use xlink:href="#DejaVuSans-64" transform="translate(1632.275391 0)"/>
     <use xlink:href="#DejaVuSans-69" transform="translate(1695.751953 0)"/>
     <use xlink:href="#DejaVuSans-61" transform="translate(1723.535156 0)"/>
     <use xlink:href="#DejaVuSans-20" transform="translate(1784.814453 0)"/>
     <use xlink:href="#DejaVuSans-64" transform="translate(1816.601562 0)"/>
     <use xlink:href="#DejaVuSans-65" transform="translate(1880.078125 0)"/>
     <use xlink:href="#DejaVuSans-20" transform="translate(1941.601562 0)"/>
     <use xlink:href="#DejaVuSans-66" transform="translate(1973.388672 0)"/>
     <use xlink:href="#DejaVuSans-65" transform="translate(2008.59375 0)"/>
     <use xlink:href="#DejaVuSans-63" transform="translate(2070.117188 0)"/>
     <use xlink:href="#DejaVuSans-68" transform="translate(2125.097656 0)"/>
     <use xlink:href="#DejaVuSans-61" transform="translate(2188.476562 0)"/>
     <use xlink:href="#DejaVuSans-6d" transform="translate(2249.755859 0)"/>
     <use xlink:href="#DejaVuSans-65" transform="translate(2347.167969 0)"/>
     <use xlink:href="#DejaVuSans-6e" transform="translate(2408.691406 0)"/>
     <use xlink:href="#DejaVuSans-74" transform="translate(2472.070312 0)"/>
     <use xlink:href="#DejaVuSans-6f" transform="translate(2511.279297 0)"/>
     <use xlink:href="#DejaVuSans-20" transform="translate(2572.460938 0)"/>
     <use xlink:href="#DejaVuSans-61" transform="translate(2604.248047 0)"/>
     <use xlink:href="#DejaVuSans-6e" transform="translate(2665.527344 0)"/>
     <use xlink:href="#DejaVuSans-75" transform="translate(2728.90625 0)"/>
     <use xlink:href="#DejaVuSans-61" transform="translate(2792.285156 0)"/>
     <use xlink:href="#DejaVuSans-6c" transform="translate(2853.564453 0)"/>
     <use xlink:href="#DejaVuSans-20" transform="translate(2881.347656 0)"/>
     <use xlink:href="#DejaVuSans-64" transform="translate(2913.134766 0)"/>
     <use xlink:href="#DejaVuSans-6f" transform="translate(2976.611328 0)"/>
     <use xlink:href="#DejaVuSans-20" transform="translate(3037.792969 0)"/>
     <use xlink:href="#DejaVuSans-42" transform="translate(3069.580078 0)"/>
     <use xlink:href="#DejaVuSans-72" transform="translate(3138.183594 0)"/>
     <use xlink:href="#DejaVuSans-65" transform="translate(3177.046875 0)"/>
     <use xlink:href="#DejaVuSans-6e" transform="translate(3238.570312 0)"/>
     <use xlink:href="#DejaVuSans-74" transform="translate(3301.949219 0)"/>
     <use xlink:href="#DejaVuSans-20" transform="translate(3341.158203 0)"/>
     <use xlink:href="#DejaVuSans-28" transform="translate(3372.945312 0)"/>
     <use xlink:href="#DejaVuSans-32" transform="translate(3411.958984 0)"/>
     <use xlink:href="#DejaVuSans-30" transform="translate(3475.582031 0)"/>
     <use xlink:href="#DejaVuSans-30" transform="translate(3539.205078 0)"/>
     <use xlink:href="#DejaVuSans-37" transform="translate(3602.828125 0)"/>
     <use xlink:href="#DejaVuSans-20" transform="translate(3666.451172 0)"/>
     <use xlink:href="#DejaVuSans-61" transform="translate(3698.238281 0)"/>
     <use xlink:href="#DejaVuSans-20" transform="translate(3759.517578 0)"/>
     <use xlink:href="#DejaVuSans-32" transform="translate(3791.304688 0)"/>
     <use xlink:href="#DejaVuSans-30" transform="translate(3854.927734 0)"/>
     <use xlink:href="#DejaVuSans-32" transform="translate(3918.550781 0)"/>
     <use xlink:href="#DejaVuSans-35" transform="translate(3982.173828 0)"/>
     <use xlink:href="#DejaVuSans-29" transform="translate(4045.796875 0)"/>
    </g>
   </g>
   <g id="legend_1">
    <g id="patch_22">
     <path d="M 285.118125 195.134887 
L 611.143125 195.134887 
Q 613.143125 195.134887 613.143125 193.134887 
L 613.143125 179.456762 
Q 613.143125 177.456762 611.143125 177.456762 
L 285.118125 177.456762 
Q 283.118125 177.456762 283.118125 179.456762 
L 283.118125 193.134887 
Q 283.118125 195.134887 285.118125 195.134887 
z
" style="fill: #fdfefe; opacity: 0.8; stroke: #cccccc; stroke-linejoin: miter"/>
    </g>
    <g id="line2d_14">
     <path d="M 287.118125 185.5552 
L 297.118125 185.5552 
L 307.118125 185.5552 
" style="fill: none; stroke: #ffa500; stroke-linecap: square"/>
     <g>
      <use xlink:href="#mb8be40398c" x="297.118125" y="185.5552" style="fill: #ffa500; stroke: #ffa500"/>
     </g>
    </g>
    <g id="text_29">
     <!-- Média de Fechamento -->
     <g transform="translate(315.118125 189.0552) scale(0.1 -0.1)">
      <defs>
       <path id="DejaVuSans-46" d="M 628 4666 
L 3309 4666 
L 3309 4134 
L 1259 4134 
L 1259 2759 
L 3109 2759 
L 3109 2228 
L 1259 2228 
L 1259 0 
L 628 0 
L 628 4666 
z
" transform="scale(0.015625)"/>
      </defs>
      <use xlink:href="#DejaVuSans-4d"/>
      <use xlink:href="#DejaVuSans-e9" transform="translate(86.279297 0)"/>
      <use xlink:href="#DejaVuSans-64" transform="translate(147.802734 0)"/>
      <use xlink:href="#DejaVuSans-69" transform="translate(211.279297 0)"/>
      <use xlink:href="#DejaVuSans-61" transform="translate(239.0625 0)"/>
      <use xlink:href="#DejaVuSans-20" transform="translate(300.341797 0)"/>
      <use xlink:href="#DejaVuSans-64" transform="translate(332.128906 0)"/>
      <use xlink:href="#DejaVuSans-65" transform="translate(395.605469 0)"/>
      <use xlink:href="#DejaVuSans-20" transform="translate(457.128906 0)"/>
      <use xlink:href="#DejaVuSans-46" transform="translate(488.916016 0)"/>
      <use xlink:href="#DejaVuSans-65" transform="translate(540.935547 0)"/>
      <use xlink:href="#DejaVuSans-63" transform="translate(602.458984 0)"/>
      <use xlink:href="#DejaVuSans-68" transform="translate(657.439453 0)"/>
      <use xlink:href="#DejaVuSans-61" transform="translate(720.818359 0)"/>
      <use xlink:href="#DejaVuSans-6d" transform="translate(782.097656 0)"/>
      <use xlink:href="#DejaVuSans-65" transform="translate(879.509766 0)"/>
      <use xlink:href="#DejaVuSans-6e" transform="translate(941.033203 0)"/>
      <use xlink:href="#DejaVuSans-74" transform="translate(1004.412109 0)"/>
      <use xlink:href="#DejaVuSans-6f" transform="translate(1043.621094 0)"/>
     </g>
    </g>
    <g id="patch_23">
     <path d="M 445.600937 189.0552 
L 465.600937 189.0552 
L 465.600937 182.0552 
L 445.600937 182.0552 
z
" style="fill: #1f77b4"/>
    </g>
    <g id="text_30">
     <!-- Último Fechamento do Ano -->
     <g transform="translate(473.600937 189.0552) scale(0.1 -0.1)">
      <use xlink:href="#DejaVuSans-da"/>
      <use xlink:href="#DejaVuSans-6c" transform="translate(73.193359 0)"/>
      <use xlink:href="#DejaVuSans-74" transform="translate(100.976562 0)"/>
      <use xlink:href="#DejaVuSans-69" transform="translate(140.185547 0)"/>
      <use xlink:href="#DejaVuSans-6d" transform="translate(167.96875 0)"/>
      <use xlink:href="#DejaVuSans-6f" transform="translate(265.380859 0)"/>
      <use xlink:href="#DejaVuSans-20" transform="translate(326.5625 0)"/>
      <use xlink:href="#DejaVuSans-46" transform="translate(358.349609 0)"/>
      <use xlink:href="#DejaVuSans-65" transform="translate(410.369141 0)"/>
      <use xlink:href="#DejaVuSans-63" transform="translate(471.892578 0)"/>
      <use xlink:href="#DejaVuSans-68" transform="translate(526.873047 0)"/>
      <use xlink:href="#DejaVuSans-61" transform="translate(590.251953 0)"/>
      <use xlink:href="#DejaVuSans-6d" transform="translate(651.53125 0)"/>
      <use xlink:href="#DejaVuSans-65" transform="translate(748.943359 0)"/>
      <use xlink:href="#DejaVuSans-6e" transform="translate(810.466797 0)"/>
      <use xlink:href="#DejaVuSans-74" transform="translate(873.845703 0)"/>
      <use xlink:href="#DejaVuSans-6f" transform="translate(913.054688 0)"/>
      <use xlink:href="#DejaVuSans-20" transform="translate(974.236328 0)"/>
      <use xlink:href="#DejaVuSans-64" transform="translate(1006.023438 0)"/>
      <use xlink:href="#DejaVuSans-6f" transform="translate(1069.5 0)"/>
      <use xlink:href="#DejaVuSans-20" transform="translate(1130.681641 0)"/>
      <use xlink:href="#DejaVuSans-41" transform="translate(1162.46875 0)"/>
      <use xlink:href="#DejaVuSans-6e" transform="translate(1230.876953 0)"/>
      <use xlink:href="#DejaVuSans-6f" transform="translate(1294.255859 0)"/>
     </g>
    </g>
   </g>
  </g>
 </g>
 <defs>
  <clipPath id="p099b692494">
   <rect x="46.965625" y="22.539687" width="802.33" height="131.552"/>
  </clipPath>
 </defs>
</svg>
